<svg xmlns="http://www.w3.org/2000/svg" viewBox="0 0 120 120">
  <rect width="120" height="120" fill="#f4efe6"/>
  <circle cx="60" cy="60" r="54" fill="none" stroke="#111111" stroke-width="3"/>
  <circle cx="60" cy="60" r="47" fill="none" stroke="#111111" stroke-width="1.4"/>
  <g fill="#111111">
    <path d="M60 12 L67 60 L53 60 Z"/>
    <path d="M108 60 L60 67 L60 53 Z"/>
    <path d="M60 108 L53 60 L67 60 Z"/>
    <path d="M12 60 L60 53 L60 67 Z"/>
  </g>
  <g fill="#7b1e2a">
    <path d="M87 33 L64 56 L60 60 L64 64 Z" transform="rotate(0 60 60)" opacity="0"/>
    <path d="M60 30 L64 60 L56 60 Z" transform="rotate(45 60 60)"/>
    <path d="M60 30 L64 60 L56 60 Z" transform="rotate(135 60 60)"/>
    <path d="M60 30 L64 60 L56 60 Z" transform="rotate(225 60 60)"/>
    <path d="M60 30 L64 60 L56 60 Z" transform="rotate(315 60 60)"/>
  </g>
  <circle cx="60" cy="60" r="6" fill="#111111"/>
</svg>
