<?xml version="1.0" encoding="UTF-8" standalone="no"?>
<!-- Created with Inkscape (http://www.inkscape.org/) -->
<svg
   xmlns:dc="http://purl.org/dc/elements/1.1/"
   xmlns:cc="http://web.resource.org/cc/"
   xmlns:rdf="http://www.w3.org/1999/02/22-rdf-syntax-ns#"
   xmlns:svg="http://www.w3.org/2000/svg"
   xmlns="http://www.w3.org/2000/svg"
   xmlns:sodipodi="http://sodipodi.sourceforge.net/DTD/sodipodi-0.dtd"
   xmlns:inkscape="http://www.inkscape.org/namespaces/inkscape"
   width="747.36896"
   height="209.18727"
   id="svg2508"
   sodipodi:version="0.32"
   inkscape:version="0.44"
   version="1.0"
   sodipodi:docbase="C:\Dokumente und Einstellungen\Andreas\Desktop"
   sodipodi:docname="ASML_Logo.svg">
  <defs
     id="defs2510" />
  <sodipodi:namedview
     id="base"
     pagecolor="#ffffff"
     bordercolor="#666666"
     borderopacity="1.0"
     inkscape:pageopacity="0.0"
     inkscape:pageshadow="2"
     inkscape:zoom="0.35"
     inkscape:cx="350"
     inkscape:cy="520"
     inkscape:document-units="px"
     inkscape:current-layer="layer1"
     inkscape:window-width="904"
     inkscape:window-height="574"
     inkscape:window-x="161"
     inkscape:window-y="161" />
  <metadata
     id="metadata2513">
    <rdf:RDF>
      <cc:Work
         rdf:about="">
        <dc:format>image/svg+xml</dc:format>
        <dc:type
           rdf:resource="http://purl.org/dc/dcmitype/StillImage" />
      </cc:Work>
    </rdf:RDF>
  </metadata>
  <g
     inkscape:label="Ebene 1"
     inkscape:groupmode="layer"
     id="layer1"
     transform="translate(323.6845,-511.738)">
    <g
       id="g2570">
      <g
         id="g2541">
        <path
           id="path46"
           class="ps02"
           d="M -264.09782,556.55481 L -219.0909,511.73802 L -214.01969,516.68244 L -259.02661,561.49923 L -264.09782,556.55481"
           style="fill:#233485;fill-rule:nonzero;stroke:none" />
        <path
           id="path48"
           class="ps02"
           d="M -253.9554,566.50705 L -209.58236,521.69026 L -204.51115,526.63469 L -248.88424,571.51487 L -253.9554,566.50705"
           style="fill:#233485;fill-rule:nonzero;stroke:none" />
        <path
           id="path50"
           class="ps02"
           d="M -244.44691,576.45929 L -199.43994,531.64251 L -194.36873,536.65032 L -239.3757,581.46711 L -244.44691,576.45929"
           style="fill:#233485;fill-rule:nonzero;stroke:none" />
        <path
           id="path52"
           class="ps02"
           d="M -234.30449,586.41154 L -189.29752,541.59475 L -184.22636,546.60257 L -229.23327,591.41935 L -234.30449,586.41154"
           style="fill:#233485;fill-rule:nonzero;stroke:none" />
        <path
           id="path54"
           class="ps02"
           d="M -224.16206,596.36378 L -179.15515,551.54699 L -174.71782,556.55481 L -219.0909,601.3716 L -224.16206,596.36378"
           style="fill:#233485;fill-rule:nonzero;stroke:none" />
        <path
           id="path56"
           class="ps02"
           d="M -264.09782,676.1085 L -219.0909,631.22832 L -214.01969,636.23614 L -259.02661,681.05293 L -264.09782,676.1085"
           style="fill:#233485;fill-rule:nonzero;stroke:none" />
        <path
           id="path58"
           class="ps02"
           d="M -253.9554,686.06075 L -209.58236,641.24396 L -204.51115,646.18838 L -248.88424,691.00517 L -253.9554,686.06075"
           style="fill:#233485;fill-rule:nonzero;stroke:none" />
        <path
           id="path60"
           class="ps02"
           d="M -244.44691,696.01299 L -199.43994,651.1962 L -194.36873,656.14063 L -239.3757,701.02081 L -244.44691,696.01299"
           style="fill:#233485;fill-rule:nonzero;stroke:none" />
        <path
           id="path62"
           class="ps02"
           d="M -234.30449,705.96523 L -189.29752,661.14844 L -184.22636,666.15626 L -229.23327,710.97305 L -234.30449,705.96523"
           style="fill:#233485;fill-rule:nonzero;stroke:none" />
        <path
           id="path64"
           class="ps02"
           d="M -224.16206,715.91747 L -179.15515,671.10069 L -174.71782,676.1085 L -219.0909,720.92529 L -224.16206,715.91747"
           style="fill:#233485;fill-rule:nonzero;stroke:none" />
        <path
           id="path66"
           class="ps02"
           d="M -159.50418,661.14844 L -204.51115,616.33166 L -199.43994,611.32384 L -154.43302,656.14063 L -159.50418,661.14844"
           style="fill:#233485;fill-rule:nonzero;stroke:none" />
        <path
           id="path68"
           class="ps02"
           d="M -149.36181,651.1962 L -194.36873,606.37941 L -189.29752,601.3716 L -144.2906,646.18838 L -149.36181,651.1962"
           style="fill:#233485;fill-rule:nonzero;stroke:none" />
        <path
           id="path70"
           class="ps02"
           d="M -139.85327,641.24396 L -184.22636,596.36378 L -179.15515,591.41935 L -134.78206,636.23614 L -139.85327,641.24396"
           style="fill:#233485;fill-rule:nonzero;stroke:none" />
        <path
           id="path72"
           class="ps02"
           d="M -129.71085,631.22832 L -174.71782,586.41154 L -169.6466,581.46711 L -124.63964,626.2839 L -129.71085,631.22832"
           style="fill:#233485;fill-rule:nonzero;stroke:none" />
        <path
           id="path74"
           class="ps02"
           d="M -119.56848,621.27608 L -164.57539,576.45929 L -159.50418,571.51487 L -114.49727,616.33166 L -119.56848,621.27608"
           style="fill:#233485;fill-rule:nonzero;stroke:none" />
        <path
           id="path76"
           class="ps02"
           d="M -279.31145,661.14844 L -323.68449,616.33166 L -318.61328,611.32384 L -274.24024,656.14063 L -279.31145,661.14844"
           style="fill:#233485;fill-rule:nonzero;stroke:none" />
        <path
           id="path78"
           class="ps02"
           d="M -269.16903,651.1962 L -314.176,606.37941 L -309.10479,601.3716 L -264.09782,646.18838 L -269.16903,651.1962"
           style="fill:#233485;fill-rule:nonzero;stroke:none" />
        <path
           id="path80"
           class="ps02"
           d="M -259.02661,641.24396 L -304.03358,596.36378 L -298.96237,591.41935 L -253.9554,636.23614 L -259.02661,641.24396"
           style="fill:#233485;fill-rule:nonzero;stroke:none" />
        <path
           id="path82"
           class="ps02"
           d="M -248.88424,631.22832 L -293.89116,586.41154 L -288.81994,581.46711 L -244.44691,626.2839 L -248.88424,631.22832"
           style="fill:#233485;fill-rule:nonzero;stroke:none" />
        <path
           id="path84"
           class="ps02"
           d="M -239.3757,621.27608 L -283.74873,576.45929 L -279.31145,571.51487 L -234.30449,616.33166 L -239.3757,621.27608"
           style="fill:#233485;fill-rule:nonzero;stroke:none" />
        <path
           id="path86"
           class="ps02"
           d="M -239.3757,601.3716 L -234.30449,596.36378 L -219.0909,611.32384 L -204.51115,596.36378 L -199.43994,601.3716 L -214.01969,616.33166 L -199.43994,631.22832 L -204.51115,636.23614 L -219.0909,621.27608 L -234.30449,636.23614 L -239.3757,631.22832 L -224.16206,616.33166 L -239.3757,601.3716"
           style="fill:#233485;fill-rule:nonzero;stroke:none" />
      </g>
      <g
         id="g2564">
        <path
           id="path88"
           class="ps02"
           d="M -4.832423,609.73912 C -1.6628913,600.48415 1.5065898,589.13732 4.0421949,579.819 L 4.0421949,579.819 C 6.5778001,589.3275 9.7472811,600.48415 12.282886,609.73912 C 14.818491,619.62797 31.933851,676.1085 31.933851,676.1085 L 61.727186,676.1085 L 24.327036,556.55481 L -23.849462,556.55481 C -19.412127,558.71011 -15.60872,563.52775 -18.144325,570.75421 L -54.910599,676.1085 L -25.75114,676.1085 L -16.242646,646.63213 L 5.3099975,646.63213 L 12.916813,622.60728 L -8.6358307,622.60728 L -4.832423,609.73912"
           style="fill:#233485;fill-rule:nonzero;stroke:none" />
        <path
           id="path90"
           class="ps02"
           d="M 120.04605,604.47773 C 103.56462,599.85027 97.859484,597.63158 97.859484,590.15155 C 97.859484,583.36884 104.1985,578.10745 118.77825,578.10745 C 131.45623,578.10745 140.33084,581.84747 144.13425,590.53191 L 152.37499,561.11893 C 143.50038,557.25213 132.09015,553.38533 114.34092,553.38533 C 86.449311,553.38533 66.16447,568.59896 66.16447,589.83464 C 66.16447,607.96418 75.039088,618.86726 95.323929,624.5724 C 115.60872,630.40427 123.21553,632.81309 123.21553,642.57515 C 123.21553,651.76674 114.34092,654.36573 102.29682,654.42913 C 92.788324,654.42913 82.011977,651.89352 73.771285,648.97756 L 67.432273,672.43188 C 78.842496,676.29868 92.154397,679.08786 104.83242,679.08786 C 137.16136,679.08786 153.6428,662.35285 153.6428,642.32158 C 153.6428,623.05102 146.03598,611.6408 120.04605,604.47773"
           style="fill:#233485;fill-rule:nonzero;stroke:none" />
        <path
           id="path92"
           class="ps02"
           d="M 265.8432,676.1085 C 265.8432,676.1085 279.78903,613.85944 281.05683,604.03399 C 282.95856,594.96919 284.22636,588.69357 284.86024,581.84747 L 285.49416,581.84747 C 286.12804,588.69357 286.76196,595.03258 288.66364,604.03399 C 289.93145,612.71843 300.70774,676.1085 300.70774,676.1085 L 329.23327,676.1085 L 307.68068,556.55481 L 256.96858,556.55481 C 259.50418,557.886 264.57539,561.62602 263.30759,570.37385 C 258.23638,589.96137 251.89742,616.58523 249.36181,630.02391 C 248.09401,636.80667 246.82621,641.68771 245.55841,650.8159 L 244.92448,650.8159 C 243.65668,641.7511 243.0228,636.80667 241.755,630.02391 C 239.21939,617.91642 239.21939,617.78964 226.54137,556.55481 L 176.46319,556.55481 C 178.9988,557.886 184.07001,561.62602 182.16833,570.37385 L 159.98181,676.1085 L 188.50734,676.1085 C 188.50734,676.1085 200.55144,612.71843 201.81924,604.03399 C 203.72092,594.96919 204.35485,588.69357 204.98872,581.84747 L 205.62265,581.84747 C 206.89045,588.69357 207.52433,594.96919 209.42606,604.03399 C 210.69386,613.79605 224.00576,676.1085 224.00576,676.1085 L 265.8432,676.1085"
           style="fill:#233485;fill-rule:nonzero;stroke:none" />
        <path
           id="path94"
           class="ps02"
           d="M 372.33856,650.87924 L 372.33856,556.55481 L 335.57229,556.55481 C 338.74182,558.32975 342.54523,560.485 342.54523,569.4864 L 342.54523,676.1085 L 416.07767,676.1085 L 423.68449,650.87924 L 372.33856,650.87924"
           style="fill:#233485;fill-rule:nonzero;stroke:none" />
      </g>
    </g>
  </g>
</svg>
