<?xml version="1.0" encoding="utf-8"?>
<!-- Generator: Adobe Illustrator 12.0.0, SVG Export Plug-In . SVG Version: 6.00 Build 51448)  -->
<!DOCTYPE svg PUBLIC "-//W3C//DTD SVG 1.1//EN" "http://www.w3.org/Graphics/SVG/1.1/DTD/svg11.dtd" [
	<!ENTITY ns_svg "http://www.w3.org/2000/svg">
	<!ENTITY ns_xlink "http://www.w3.org/1999/xlink">
]>
<svg  version="1.1" id="Layer_1" xmlns="&ns_svg;" xmlns:xlink="&ns_xlink;" width="702.992" height="158.053"
	 viewBox="0 0 702.992 158.053" overflow="visible" enable-background="new 0 0 702.992 158.053" xml:space="preserve">
<g>
	<path fill-rule="evenodd" clip-rule="evenodd" d="M63.35,121.287c-4.338,1.973-11.281,3.262-17.9,3.262
		c-19.441,0-30.025-11.844-30.025-27.531c0-17.645,12.191-28.137,30.291-28.137c7.186,0,13.379,1.594,17.553,3.486l3.316-11.494
		c-3.271-1.707-10.813-3.875-21.471-3.875C18.334,56.998,0,73.826,0,97.666c0,23.297,16.471,38.945,43.137,38.945
		c10.738,0,19.146-2.152,22.834-3.996L63.35,121.287L63.35,121.287z"/>
	<path fill-rule="evenodd" clip-rule="evenodd" d="M96.668,136.611c16.008,0,31.262-10.066,31.262-29.816
		c0-16.342-12.104-28.447-30.254-28.447c-18.852,0-31.566,12.035-31.566,29.635c0,17.496,13.484,28.629,30.445,28.629H96.668
		L96.668,136.611z M96.797,126.139c-9.02,0-15.605-7.43-15.605-18.563c0-9.656,4.949-18.762,15.916-18.762
		c10.826,0,15.512,9.566,15.512,18.516c0,12.105-6.994,18.809-15.707,18.809H96.797L96.797,126.139z"/>
	<path fill-rule="evenodd" clip-rule="evenodd" d="M132.83,135.24h14.676v-32.117c0-1.453,0.195-3.133,0.652-4.258
		c1.602-4.23,5.85-8.719,12.295-8.719c8.457,0,11.965,6.285,11.965,15.059v30.035h14.676v-31.852
		c0-19.127-11.766-25.041-21.586-25.041c-10.363,0-16.82,6.041-19.219,10.305h-0.357l-0.719-8.938h-12.84
		c0.277,4.771,0.457,10.34,0.457,16.803V135.24L132.83,135.24z"/>
	<path fill-rule="evenodd" clip-rule="evenodd" d="M222.316,136.611c16.008,0,31.262-10.066,31.262-29.816
		c0-16.342-12.102-28.447-30.25-28.447c-18.855,0-31.568,12.035-31.568,29.635c0,17.496,13.482,28.629,30.443,28.629H222.316
		L222.316,136.611z M222.447,126.139c-9.021,0-15.607-7.43-15.607-18.563c0-9.656,4.949-18.762,15.918-18.762
		c10.824,0,15.51,9.566,15.51,18.516c0,12.105-6.992,18.809-15.707,18.809H222.447L222.447,126.139z"/>
	<path fill-rule="evenodd" clip-rule="evenodd" d="M304.729,122.65c-3.064,1.238-7.061,2.484-12.723,2.484
		c-10.279,0-18.727-6.402-18.727-17.801c-0.066-10.164,7.029-17.771,18.666-17.771c5.773,0,9.59,1.176,12.199,2.479l2.703-10.855
		c-3.775-1.596-9.594-2.838-15.422-2.838c-21.133,0-33.213,13.107-33.213,29.736c0,16.891,12.039,28.527,30.852,28.527
		c7.924,0,14.477-1.684,17.779-3.215L304.729,122.65L304.729,122.65z"/>
	<path fill-rule="evenodd" clip-rule="evenodd" d="M337.693,136.611c16.006,0,31.26-10.066,31.26-29.816
		c0-16.342-12.102-28.447-30.252-28.447c-18.854,0-31.566,12.035-31.566,29.635c0,17.496,13.484,28.629,30.443,28.629H337.693
		L337.693,136.611z M337.824,126.139c-9.023,0-15.607-7.43-15.607-18.563c0-9.656,4.947-18.762,15.916-18.762
		c10.826,0,15.51,9.566,15.51,18.516c0,12.105-6.992,18.809-15.707,18.809H337.824L337.824,126.139z"/>
	<path fill-rule="evenodd" clip-rule="evenodd" d="M433.344,135.24h14.676v-32.57c0-1.602,0.098-3.004,0.652-4.262
		c1.652-4,5.902-8.211,12.168-8.211c8.637,0,12.094,6.336,12.094,15.059v29.984h14.676v-31.898c0-19.08-11.668-24.994-21.328-24.994
		c-3.672,0-7.289,0.979-10.309,2.625c-3.176,1.584-5.816,4.047-7.727,6.885h-0.227V53.576h-14.676V135.24L433.344,135.24z"/>
	<path fill-rule="evenodd" clip-rule="evenodd" d="M510.98,135.24V79.715h-14.68v55.525H510.98L510.98,135.24z M503.648,71.111
		c5.383,0,8.637-3.693,8.637-8.084c-0.066-4.441-3.305-8.021-8.586-8.021c-5.285,0-8.637,3.631-8.637,8.021s3.254,8.084,8.473,8.084
		H503.648L503.648,71.111z"/>
	<polygon fill-rule="evenodd" clip-rule="evenodd" points="521.055,135.24 535.73,135.24 535.73,53.576 521.055,53.576 
		521.055,135.24 	"/>
	<polygon fill-rule="evenodd" clip-rule="evenodd" points="546.945,135.24 561.621,135.24 561.621,53.576 546.945,53.576 
		546.945,135.24 	"/>
	<path fill-rule="evenodd" clip-rule="evenodd" d="M586.371,135.24V79.715h-14.676v55.525H586.371L586.371,135.24z M579.043,71.111
		c5.383,0,8.637-3.693,8.637-8.084c-0.063-4.441-3.301-8.021-8.586-8.021s-8.637,3.631-8.637,8.021s3.254,8.084,8.473,8.084H579.043
		L579.043,71.111z"/>
	<path fill-rule="evenodd" clip-rule="evenodd" d="M597.59,158.053h14.672v-29.375h0.23c3.262,5.047,9.969,7.934,17.68,7.934
		c13.84,0,27.777-10.008,27.777-30.141c0-17.557-12.211-28.123-25.5-28.123c-9.719,0-16.922,3.865-21.48,10.5h-0.23l-0.715-9.133
		h-12.891c0.277,5.41,0.457,11.619,0.457,18.717V158.053L597.59,158.053z M612.262,104.506c0-1.09,0.246-2.27,0.512-3.363
		c1.715-7,7.898-11.482,14.574-11.482c10.18,0,15.668,8.174,15.668,17.619c0,11.258-6.27,18.211-16.094,18.211
		c-7.277,0-12.91-5.105-14.348-10.914c-0.211-1.176-0.313-2.332-0.313-3.555V104.506L612.262,104.506z"/>
	<path fill-rule="evenodd" clip-rule="evenodd" d="M660.449,132.49c4.625,2.395,11.086,4.121,18.594,4.121
		c16.066,0,23.949-7.816,23.949-17.559c-0.063-8.602-4.969-13.648-15.98-16.941c-7.578-2.281-10.695-3.965-10.695-7.656
		c0-3.561,3.02-5.914,8.273-5.914c5.559,0,10.719,2.15,13.129,3.469l2.879-10.143c-3.453-1.908-9.422-3.52-16.082-3.52
		c-13.941,0-22.438,7.803-22.438,17.635c-0.063,6.891,4.969,12.996,16.711,16.32c7.387,2.152,9.902,3.934,9.902,7.789
		c0,3.516-2.793,6.195-9.582,6.195c-5.473,0-12.262-2.313-15.703-4.43L660.449,132.49L660.449,132.49z"/>
	<path fill-rule="evenodd" clip-rule="evenodd" d="M374.086,135.209h14.547v-31.266c2.152,0.508,4.941,0.684,8.023,0.684
		c11.125,0,20.234-2.719,26.262-8.391c4.523-4.137,6.836-10.355,6.836-17.475c0-7.443-3.254-13.5-7.973-17.215
		c-5.02-4.072-12.82-6.453-23.805-6.453c-10.77,0-18.402,0.75-23.891,1.611V135.209L374.086,135.209z M388.633,66.898
		c1.629-0.328,4.848-0.703,9.426-0.703c10.227,0,17.148,4.043,17.148,12.926c0,9.07-7.059,14.209-18.383,14.209
		c-3.426,0-6.105-0.211-8.191-0.785V66.898L388.633,66.898z"/>
	<path fill-rule="evenodd" clip-rule="evenodd" fill="#EF3E42" d="M439.082,0c-19.863,6.898-25.074,13.732-35.797,22.342
		c-30.383,7.998-57.014-4.83-80.193-15.422c10.955,7.912,21.789,24.729,26.367,48.564c17.514-5.256,38.607-19.43,57.178-32.67
		C417.047,18.199,428.465,11.387,439.082,0L439.082,0z"/>
</g>
</svg>
