<?xml version="1.0" encoding="UTF-8" standalone="no"?>
<svg
   xmlns:dc="http://purl.org/dc/elements/1.1/"
   xmlns:cc="http://creativecommons.org/ns#"
   xmlns:rdf="http://www.w3.org/1999/02/22-rdf-syntax-ns#"
   xmlns:svg="http://www.w3.org/2000/svg"
   xmlns="http://www.w3.org/2000/svg"
   xmlns:sodipodi="http://sodipodi.sourceforge.net/DTD/sodipodi-0.dtd"
   xmlns:inkscape="http://www.inkscape.org/namespaces/inkscape"
   width="200pt"
   height="85.907372pt"
   viewBox="0 0 200 85.90737"
   version="1.1"
   id="svg3336"
   inkscape:version="0.91 r13725"
   sodipodi:docname="fraport-geschaeftsbericht-2016_safe.svg">
  <metadata
     id="metadata3639">
    <rdf:RDF>
      <cc:Work
         rdf:about="">
        <dc:format>image/svg+xml</dc:format>
        <dc:type
           rdf:resource="http://purl.org/dc/dcmitype/StillImage" />
        <dc:title></dc:title>
      </cc:Work>
    </rdf:RDF>
  </metadata>
  <sodipodi:namedview
     pagecolor="#ffffff"
     bordercolor="#666666"
     borderopacity="1"
     objecttolerance="10"
     gridtolerance="10"
     guidetolerance="10"
     inkscape:pageopacity="0"
     inkscape:pageshadow="2"
     inkscape:window-width="1600"
     inkscape:window-height="838"
     id="namedview3637"
     showgrid="false"
     inkscape:zoom="2.6074665"
     inkscape:cx="40.371528"
     inkscape:cy="-35.674809"
     inkscape:window-x="1432"
     inkscape:window-y="-8"
     inkscape:window-maximized="1"
     inkscape:current-layer="svg3336"
     fit-margin-top="0"
     fit-margin-left="0"
     fit-margin-right="0"
     fit-margin-bottom="0" />
  <defs
     id="defs3338" />
  <g
     id="g3732"
     transform="matrix(1.4699102,0,0,1.4699102,-537.50449,-181.37517)">
    <path
       style="fill:#004a99;fill-opacity:1;fill-rule:nonzero;stroke:none"
       d="m 426.13672,175.76953 3.15234,-16.99609 8.17578,0 -0.38281,2.08593 -5.11719,0 -1,5.36719 5.00391,0 -0.38281,2.08594 -5.00782,0 -1.375,7.45703 z m 9.74219,0 2.25781,-12.14844 2.85937,0 -0.43359,2.31641 0.92969,-1.18359 c 0.36718,-0.46485 0.66406,-0.78907 0.89062,-0.97657 0.37891,-0.30468 0.80469,-0.45703 1.27735,-0.45703 0.6289,0 1.2539,0.3086 1.87109,0.92969 l -1.41016,2.18359 c -0.46875,-0.16797 -0.86718,-0.2539 -1.19531,-0.2539 -0.60156,0 -1.14453,0.22265 -1.62891,0.67578 -0.35546,0.32812 -0.6875,0.89453 -1,1.69922 -0.26562,0.66015 -0.46875,1.36328 -0.60546,2.11328 l -0.95313,5.10156 z m 18.86328,0 -2.8711,0 0.38672,-2.03906 c -0.64453,0.66015 -1.21484,1.14844 -1.71484,1.47265 -0.88281,0.57032 -1.76172,0.85547 -2.64063,0.85547 -1.04687,0 -1.86328,-0.39453 -2.46093,-1.18359 -0.66797,-0.875 -1,-2.03125 -1,-3.47266 0,-1.3125 0.28125,-2.58203 0.84375,-3.8125 0.66015,-1.44531 1.58203,-2.55859 2.76171,-3.32812 0.94922,-0.6211 1.92188,-0.92969 2.92188,-0.92969 0.92969,0 1.69531,0.28906 2.28906,0.86719 0.1875,0.17969 0.39063,0.4414 0.61719,0.78515 l 0.25391,-1.36328 2.87109,0 z m -3.34375,-10.57812 c -0.86719,0 -1.65625,0.42187 -2.375,1.26562 -0.61719,0.72266 -1.05469,1.66406 -1.3125,2.82422 -0.15625,0.69141 -0.23047,1.39062 -0.23047,2.09766 0,0.85156 0.14844,1.51562 0.44531,1.98828 0.30469,0.48437 0.73438,0.72656 1.28125,0.72656 1.16406,0 2.17578,-0.83594 3.02734,-2.51172 0.44922,-0.88281 0.77344,-1.875 0.97657,-2.97656 0.11328,-0.61328 0.16797,-1.11328 0.16797,-1.4961 0,-0.58203 -0.1875,-1.04687 -0.56641,-1.40234 -0.37109,-0.34375 -0.83984,-0.51562 -1.41406,-0.51562 m 5.03515,16.64453 3.37891,-18.21485 2.85937,0 -0.42187,2.30469 c 0.60156,-0.71484 1.14062,-1.25391 1.61719,-1.61719 0.84375,-0.65234 1.76562,-0.97656 2.76172,-0.97656 1.08593,0 1.92187,0.37891 2.50781,1.13281 0.66797,0.86328 1,2.02735 1,3.5 0,1.35938 -0.30469,2.67969 -0.91406,3.95703 -0.69922,1.46094 -1.62891,2.5625 -2.78907,3.29297 -0.89062,0.5625 -1.8125,0.84375 -2.76172,0.84375 -1.14062,0 -2.16406,-0.43359 -3.0625,-1.30468 l -1.3164,7.08203 z m 8.89063,-16.48828 c -1.26172,0 -2.34766,1.02343 -3.25781,3.07421 -0.4336,0.98438 -0.74219,2.03125 -0.92579,3.14844 -0.0664,0.42578 -0.10546,0.67578 -0.12109,0.75 -0.0742,0.33594 -0.10937,0.52735 -0.10937,0.56641 0,0.0469 0.0156,0.0977 0.0469,0.14453 0.0156,0.0234 0.043,0.0547 0.0742,0.0977 0.19922,0.32031 0.50391,0.58984 0.90234,0.80859 0.39063,0.19922 0.79297,0.30078 1.22266,0.30078 1.04297,0 1.96484,-0.63672 2.76172,-1.90625 0.77734,-1.23828 1.16797,-2.65625 1.16797,-4.24609 0,-1.82813 -0.58594,-2.73828 -1.76172,-2.73828 m 12.97656,-2.01563 c 1.10938,0 2.07031,0.3125 2.88281,0.94141 1.35157,1.05468 2.02735,2.5625 2.02735,4.52343 0,1.19922 -0.25782,2.33594 -0.77344,3.41407 -0.60156,1.2539 -1.46484,2.22656 -2.59375,2.91797 -1.00391,0.62109 -2.08984,0.92968 -3.25391,0.92968 -1.44922,0 -2.65234,-0.46484 -3.60937,-1.39843 -1.08594,-1.05469 -1.62891,-2.4336 -1.62891,-4.13672 0,-1.3125 0.33985,-2.55078 1.01563,-3.71485 0.70703,-1.22656 1.64453,-2.13281 2.80859,-2.73047 0.97266,-0.49609 2.01563,-0.74609 3.125,-0.74609 m -0.38672,1.75 c -0.6914,0 -1.33203,0.32031 -1.92969,0.96484 -0.46484,0.51563 -0.84375,1.16797 -1.13281,1.96485 -0.28906,0.82031 -0.43359,1.70703 -0.43359,2.65625 0,1.03515 0.16797,1.88281 0.5039,2.54297 0.37891,0.73437 0.97657,1.09765 1.80079,1.09765 1.23046,0 2.16015,-0.77343 2.79687,-2.32812 0.43359,-1.04297 0.65234,-2.22266 0.65234,-3.53516 0,-2.24219 -0.7539,-3.36328 -2.25781,-3.36328 m 5.80078,10.6875 2.25782,-12.14844 2.85937,0 -0.4375,2.31641 0.93359,-1.18359 c 0.36719,-0.46485 0.66407,-0.78907 0.89063,-0.97657 0.37891,-0.30468 0.80469,-0.45703 1.27734,-0.45703 0.62891,0 1.25,0.3086 1.8711,0.92969 l -1.41016,2.18359 c -0.46875,-0.16797 -0.86719,-0.2539 -1.19531,-0.2539 -0.60156,0 -1.14453,0.22265 -1.62891,0.67578 -0.35156,0.32812 -0.6875,0.89453 -1,1.69922 -0.26562,0.66015 -0.46875,1.36328 -0.60547,2.11328 l -0.95312,5.10156 z m 10.47657,-10.51953 0.30468,-1.62891 1.51953,0 0.54297,-2.94531 2.95313,-0.71094 -0.67188,3.65625 2.89453,0 -0.30468,1.62891 -2.90625,0 -1.09766,5.89844 c -0.17578,0.94922 -0.26562,1.57031 -0.26562,1.85937 0,0.75391 0.36718,1.13281 1.09765,1.13281 0.41797,0 0.96485,-0.10546 1.64063,-0.3125 l 0.16797,1.55469 c -1.07422,0.44922 -2.09766,0.67578 -3.0625,0.67578 -0.86719,0 -1.53907,-0.18359 -2.01563,-0.55468 -0.51562,-0.40235 -0.76953,-0.98438 -0.76953,-1.75 0,-0.32032 0.11719,-1.11719 0.34766,-2.38672 L 495.6875,165.25 Z m 0,0"
       id="path3463"
       inkscape:connector-curvature="0" />
    <path
       style="fill:#004a99;fill-opacity:1;fill-rule:nonzero;stroke:none"
       d="m 414.00391,172.08203 c -0.14063,0.0547 -0.21485,-0.0195 -0.25391,-0.082 -0.0195,-0.0312 -2.05469,-3.28125 -2.70703,-7.52734 -0.38281,-2.48438 -0.21485,-4.8086 0.49219,-6.91016 0.88671,-2.625 2.625,-4.89844 5.17578,-6.76563 2.38672,-1.75 5.45312,-3.10156 9.10937,-4.01953 2.91797,-0.72656 6.21875,-1.18359 9.8125,-1.35156 5.97656,-0.28125 10.81641,0.34766 11.0586,0.37891 0.0586,0.008 0.1875,0.0391 0.17578,0.17187 -0.008,0.0859 -0.0859,0.15235 -0.19141,0.15625 -0.0469,0.004 -4.57812,0.25781 -10.09766,1.26172 -4.98828,0.91016 -11.79687,2.63281 -15.88671,5.6875 -8.31641,6.20313 -6.57422,18.67578 -6.55469,18.80078 0.0117,0.0977 -0.0625,0.17188 -0.13281,0.19922 M 397.5,175.625 c 0.0117,-0.0195 0.95703,-2.30859 1.53516,-5.28516 0.53906,-2.74218 0.85937,-6.625 -0.65235,-9.57812 -1.07812,-2.10156 -2.9414,-3.47656 -5.54297,-4.08203 -2.28515,-0.53516 -5.08203,-0.41407 -8.3164,0.35937 -2.57813,0.61719 -5.44141,1.64844 -8.51563,3.06641 -5.14453,2.375 -9.15625,5.05859 -9.32422,5.17187 -0.0351,0.0234 -0.16015,0.10938 -0.0859,0.24219 0.0469,0.082 0.16406,0.0703 0.21875,0.043 0.15234,-0.0703 15.27343,-7.13672 22.78125,-5.19922 8.14062,2.10547 7.51953,15.08984 7.51562,15.22266 0,0.0664 0.0234,0.1914 0.17578,0.1914 0.082,0 0.16797,-0.0508 0.21094,-0.15234 m -31.82422,-17.61328 c -0.0195,-0.0781 0.0312,-0.15625 0.11719,-0.19141 0.14453,-0.0625 14.32031,-6.13672 17.91406,-11.95312 0.85938,-1.39453 1.10547,-2.77735 0.72656,-4.10938 -0.78906,-2.77344 -4.03125,-4.46484 -4.16797,-4.53515 -0.043,-0.0195 -0.0937,-0.0898 -0.0625,-0.17969 0.0391,-0.10156 0.16407,-0.10938 0.22266,-0.10156 0.18359,0.0312 1.80859,0.28515 3.59375,0.92187 1.74609,0.62109 4.00781,1.74609 4.88672,3.56641 0.64062,1.32812 0.46484,2.84765 -0.51172,4.51562 -1.08594,1.85547 -2.95312,3.65235 -5.53906,5.33203 -2.06641,1.34766 -4.58985,2.625 -7.51172,3.79688 -5.00781,2.01562 -9.41797,3.03125 -9.46094,3.03906 -0.0508,0.008 -0.17578,0.0273 -0.20703,-0.10156 m 38.20313,-21.32813 c 2.65234,-0.72656 5.08984,-1.83984 7.25,-3.30468 1.72656,-1.17188 3.28515,-2.57032 4.6289,-4.16407 2.08985,-2.47656 3.16016,-5.13281 3.33985,-5.59765 0.008,-0.0156 0.0664,-0.1211 -0.0274,-0.20313 -0.0469,-0.0391 -0.1289,-0.0273 -0.19531,0.043 -0.11328,0.1211 -6.61328,7.20313 -15.01563,9.49609 -7.98828,2.1836 -14.48437,-0.94531 -14.80078,-1.10546 -0.043,-0.0195 -0.10547,-0.0352 -0.19531,0.0156 -0.0859,0.0469 -0.082,0.13672 -0.0586,0.19922 0.16406,0.42578 1.01562,2.48437 3.1914,3.76172 1.39063,0.8164 2.97657,1.33594 4.71485,1.54297 0.57422,0.0664 1.16797,0.10156 1.77343,0.10156 1.6875,0 3.49219,-0.26172 5.39454,-0.78516 m 27.86328,2.94532 c -1.26563,0 -2.4375,-0.0625 -3.51172,-0.17969 -3.04688,-0.34375 -5.28125,-1.17969 -6.63672,-2.48438 -0.94141,-0.90625 -1.36328,-1.98437 -1.25781,-3.21484 0.21875,-2.43359 2.51953,-5.04297 4.41015,-6.80859 2.03907,-1.89844 4.0625,-3.25 4.08203,-3.26563 0.0312,-0.0195 0.14454,-0.082 0.23829,-0.0117 0.0781,0.0586 0.0547,0.15625 0.0195,0.19922 -0.0469,0.0508 -4.3711,4.70313 -4.19922,8.35547 0.0469,1.04687 0.46484,1.92578 1.23828,2.60937 2.33594,2.0625 8.08594,2.58204 12.5,2.65625 4.88672,0.082 9.20703,-0.34765 9.25,-0.35156 0.0664,-0.008 0.17969,0.0117 0.19922,0.11328 0.0273,0.15235 -0.1211,0.19141 -0.16406,0.20313 -0.54688,0.13672 -5.41407,1.33203 -10.91797,1.89062 -1.89453,0.19141 -3.64844,0.28907 -5.25,0.28907"
       id="path3465"
       inkscape:connector-curvature="0" />
  </g>
</svg>
