<?xml version="1.0" encoding="utf-8"?>
<!-- Generator: Adobe Illustrator 11 Build 196, SVG Export Plug-In . SVG Version: 6.0.0 Build 78)  -->
<!DOCTYPE svg PUBLIC "-//W3C//DTD SVG 1.0//EN"    "http://www.w3.org/TR/2001/REC-SVG-20010904/DTD/svg10.dtd" [
	<!ENTITY ns_flows "http://ns.adobe.com/Flows/1.0/">
	<!ENTITY ns_extend "http://ns.adobe.com/Extensibility/1.0/">
	<!ENTITY ns_ai "http://ns.adobe.com/AdobeIllustrator/10.0/">
	<!ENTITY ns_graphs "http://ns.adobe.com/Graphs/1.0/">
	<!ENTITY ns_vars "http://ns.adobe.com/Variables/1.0/">
	<!ENTITY ns_imrep "http://ns.adobe.com/ImageReplacement/1.0/">
	<!ENTITY ns_sfw "http://ns.adobe.com/SaveForWeb/1.0/">
	<!ENTITY ns_custom "http://ns.adobe.com/GenericCustomNamespace/1.0/">
	<!ENTITY ns_adobe_xpath "http://ns.adobe.com/XPath/1.0/">
	<!ENTITY ns_svg "http://www.w3.org/2000/svg">
	<!ENTITY ns_xlink "http://www.w3.org/1999/xlink">
]>
<svg 
	 xmlns:x="&ns_extend;" xmlns:i="&ns_ai;" xmlns:graph="&ns_graphs;" i:viewOrigin="161 363" i:rulerOrigin="6 5" i:pageBounds="-6 590.2754 835.8896 -5"
	 xmlns="&ns_svg;" xmlns:xlink="&ns_xlink;" xmlns:a="http://ns.adobe.com/AdobeSVGViewerExtensions/3.0/"
	 width="519.523" height="130.826" viewBox="0 0 519.523 130.826" overflow="visible" enable-background="new 0 0 519.523 130.826"
	 xml:space="preserve">
	<metadata>
		<variableSets  xmlns="&ns_vars;">
			<variableSet  varSetName="binding1" locked="none">
				<variables></variables>
				<v:sampleDataSets  xmlns="&ns_custom;" xmlns:v="&ns_vars;"></v:sampleDataSets>
			</variableSet>
		</variableSets>
		<sfw  xmlns="&ns_sfw;">
			<slices></slices>
			<sliceSourceBounds  width="519.523" height="130.826" bottomLeftOrigin="true" y="232.174" x="161"></sliceSourceBounds>
		</sfw>
<?xpacket begin='﻿' id='W5M0MpCehiHzreSzNTczkc9d'?><x:xmpmeta xmlns:x='adobe:ns:meta/' x:xmptk='XMP toolkit 3.0-29, framework 1.6'>
<rdf:RDF xmlns:rdf='http://www.w3.org/1999/02/22-rdf-syntax-ns#' xmlns:iX='http://ns.adobe.com/iX/1.0/'>

 <rdf:Description rdf:about=''
  xmlns:pdf='http://ns.adobe.com/pdf/1.3/'>
 </rdf:Description>

 <rdf:Description rdf:about=''
  xmlns:tiff='http://ns.adobe.com/tiff/1.0/'>
 </rdf:Description>

 <rdf:Description rdf:about=''
  xmlns:xap='http://ns.adobe.com/xap/1.0/'
  xmlns:xapGImg='http://ns.adobe.com/xap/1.0/g/img/'>
  <xap:CreateDate>2009-01-23T19:10:24Z</xap:CreateDate>
  <xap:ModifyDate>2009-01-23T19:10:24Z</xap:ModifyDate>
  <xap:CreatorTool>Illustrator</xap:CreatorTool>
  <xap:Thumbnails>
   <rdf:Alt>
    <rdf:li rdf:parseType='Resource'>
     <xapGImg:format>JPEG</xapGImg:format>
     <xapGImg:width>256</xapGImg:width>
     <xapGImg:height>64</xapGImg:height>
     <xapGImg:image>/9j/4AAQSkZJRgABAgEASABIAAD/7QAsUGhvdG9zaG9wIDMuMAA4QklNA+0AAAAAABAASAAAAAEA&#xA;AQBIAAAAAQAB/+4ADkFkb2JlAGTAAAAAAf/bAIQABgQEBAUEBgUFBgkGBQYJCwgGBggLDAoKCwoK&#xA;DBAMDAwMDAwQDA4PEA8ODBMTFBQTExwbGxscHx8fHx8fHx8fHwEHBwcNDA0YEBAYGhURFRofHx8f&#xA;Hx8fHx8fHx8fHx8fHx8fHx8fHx8fHx8fHx8fHx8fHx8fHx8fHx8fHx8fHx8f/8AAEQgAQAEAAwER&#xA;AAIRAQMRAf/EAaIAAAAHAQEBAQEAAAAAAAAAAAQFAwIGAQAHCAkKCwEAAgIDAQEBAQEAAAAAAAAA&#xA;AQACAwQFBgcICQoLEAACAQMDAgQCBgcDBAIGAnMBAgMRBAAFIRIxQVEGE2EicYEUMpGhBxWxQiPB&#xA;UtHhMxZi8CRygvElQzRTkqKyY3PCNUQnk6OzNhdUZHTD0uIIJoMJChgZhJRFRqS0VtNVKBry4/PE&#xA;1OT0ZXWFlaW1xdXl9WZ2hpamtsbW5vY3R1dnd4eXp7fH1+f3OEhYaHiImKi4yNjo+Ck5SVlpeYmZ&#xA;qbnJ2en5KjpKWmp6ipqqusra6voRAAICAQIDBQUEBQYECAMDbQEAAhEDBCESMUEFURNhIgZxgZEy&#xA;obHwFMHR4SNCFVJicvEzJDRDghaSUyWiY7LCB3PSNeJEgxdUkwgJChgZJjZFGidkdFU38qOzwygp&#xA;0+PzhJSktMTU5PRldYWVpbXF1eX1RlZmdoaWprbG1ub2R1dnd4eXp7fH1+f3OEhYaHiImKi4yNjo&#xA;+DlJWWl5iZmpucnZ6fkqOkpaanqKmqq6ytrq+v/aAAwDAQACEQMRAD8AE/8AQ4es/wDUtW//AEkv&#xA;/wA0ZjeMXcfyZHvd/wBDh6z/ANS1b/8ASS//ADRj4xX+TI976gzJdO7FXYq8t/OX88dM8gxLp9lE&#xA;moeZJ09SK1Yn0oUOwknKkHf9lAanxApWqeSthzczS6Q5NztF8reavzT8/eaJpH1fWbh4XP8AvHE5&#xA;htlHSghj4p07kE++Y5kTzdzjwQhyDFCSTU7k9TgbU50Lzn5t0CQPo2sXdhSnwQzOqGnQMleDD2Ix&#xA;BphPHGXMW92/Kz/nJ3zDfazp+geZrFdRk1CeK1t9QtAsUwkmcIpki2jYcmFSvGg7HLo5T1ddqNBE&#xA;Ayiap9L5kOpdirsVdirsVdirsVdirsVdirsVdirsVdirsVdirsVdirsVdirsVdir82cwXqnYq/Sb&#xA;M55V2KqF9eQWVlcXk5Igto3mlIFSEjUs23yGAmgmIs0/PPzP5h1DzH5gv9c1BuV3qEzTSbkhQx+F&#xA;Fr+yi0VfYZhE29PCAjEAdEsxZPUvIH/OO/nfzjo8Wsxy22mabPU20l2z+pKoJHNI41b4ajqxFe1R&#xA;k44yXEza2GM1zLfmv/nG38zdAt2uo7aHWLZBykbTnaSRR/xidY5G/wBiDjLGQuPXY5bXXvRH/OM3&#xA;lhtU/NGG6nj/AHOhwy3cquP92/3ManwYPJyH+rjjFyRrsnDj977LzLdC7FXYq7FXYq7FXYq7FXYq&#xA;7FXYq7FXYq7FXYq7FXYq7FXYq7FXYq7FX5s5gvVOxV+k2ZzyrsVSrzZp82o+VtZ0+AVnvLG5t4h4&#xA;vLCyL+JyMhsWzFKpA+b87iCDQ7EdRmG9M7FX13+RX53eVNT8t6V5Y1S4j0vWtNt4rGFJ24xXCQII&#xA;42jkPw8yqiqE1r0rmRjyCqLpdXpJCRkNwXteXOvQNroej2mpXep2tlDBqF8qLeXUaBXlERYpzI+0&#xA;RzO53+4YBEc2RmSKJ2COwsXYq7FXYq7FXYq7FXYq7FXYq7FXYq7FXYq7FXYq7FXYq7FXYq7FXYq/&#xA;NnMF6p2Kv0mzOeVdirsVfIf/ADkH+TOoeXdZu/NGjW7TeXb+QzXIjFfqk0hJZWA6RM26tSgrxPau&#xA;LkhXud5o9UJjhP1D7XiuVuc7FXpP5d/n3558mvFbGc6toqUU6bdsW4qP98y7vH7Ddf8AJyUZkOLm&#xA;0kMnkX1h+Xf5m+WPPmlG90eUrcQ0F7p8tBPAx6cgCQVNPhYbH51GZMJiTps+nljNFluTaFK5ube1&#xA;t5bm5lSC2gRpJ55GCIiIOTMzNQKqgVJOKQL2CB0bzR5Z1tpV0XV7LU2gCmcWdxFcFA1ePP02bjXi&#xA;aVwAgspY5R5ghGX19ZWFpLeX1xFaWkC8prid1jjRfFnYhVHzwksQCTQbtr2zurSO8tZ457OZBLDc&#xA;xOrxvGwqHV1JUqRvUY2pBBooTR/Mfl7W0lfRtUtNTSEhZms54rgIW3AYxs1K074AQWUsco8wQpaR&#xA;5s8q6zPJb6PrNjqVxEvOWG0uYZ3Va05MsbMQKmlcRIFZY5R5ghBah+Y/kDTtRbTb7zFp1tfI3CS3&#xA;kuYlZGBpxerfAfZqYDMd7KOCZFgGmQRSxyxpLE4kikAZHUgqykVBBGxBGSaiFEalpxvjYC6hN8F5&#xA;m09RfVC9eXp15U+jBYumXCautkQSAKnYDqcLFIdP8/8AkjUtUOk2GvWF1qVSotIriN5GKirBQD8R&#xA;AG/HpkRMFtlgmBZBpEa/5t8r+XkR9c1W100S/wB0LmVI2emx4Kx5NTvQYmQHNEMUpfSLat/OPlK4&#xA;0eTWoNasX0iKgm1AXEXoRliAFkkLcUNWAoxrXESCnFIGqNrF88eSm05tTXzBpp01JRA98LyAwLMR&#xA;yEZl58A/HfjWuPEO9fBndUb9yyXz75Fis4L2XzHpcdncs6W1y17biKRoqeoqOX4sU5DlQ7Vx4h3r&#xA;4M7qj8lW586eTrWW1hutd06Ca+jjnso5buBGmimNI5IgzgurkfCy7Hth4goxTPIFVi80+WZtXbRo&#xA;tXspNYQsH01LiJrkFRyYGEN6my7nbHiCDjlV0aV7bWdHutQudOtr63n1Cz4m8s45UeaENuvqRqSy&#xA;V7chjYQYEC62QeqedPJ2kXZs9V17TtPuwoY291dwQyBW6HhI6tQ4mQZRxTkLAJRem65ouqWZvdM1&#xA;C2vrNSQ1zbTRzRAqKmroWXb54ghjKBBoiko/5WZ+W/8A1Nej/wDcQtf+qmDiHez8DJ/NPyfn9mG9&#xA;K7FX6TZnPKuxV2KrXRJEZHUOjgqysKgg7EEHFXjH5hf84w+Ude9a98usNB1R6t6SDlZOxqd4hvFX&#xA;/ivYfy5TLCOjsMOvlHaW4+18z+ePy582+Sb8WmvWRhSQkW15H8dvNTr6cgFD/qmjDuMoMSObtcWa&#xA;OQXEsawNrJPy8866h5N822Gu2jsEhcLeQqdprZiBLEQdt16eDUPbDE0ba82ITiYl9/wzRTwxzQsH&#xA;ilUPG67hlYVBHzGZoLzRFLiARQ7g9Rih47/zjDFEnlPzFwRVp5gu1HEAfCsMHEbdhXbKcHJz+0D6&#xA;x/VVv+ch9c04aZoXlK9vVsLXzHfxjU7p2CrHYWrLJOxJ6HkU4+NCMcx6I0MDZkBfCPtWf84y+ZBf&#xA;eS7vy9JcJc3Hlu7ktlljPJXtpWZ4XVuhBYSBfYDHCdqT2hjqYl/OeceX7zW/J3njzf59sFafQLTz&#xA;JfaZ5k0+MfZtJJy0dwijb907fqHQtldkSJcqYGSEYH6jEEJlpHmSTT/K/wCc2v6BMpeXUeVleQ/7&#xA;7uZWQSxsvgkpZT264g7SIYyx3LHGXcyzyx5O/LHRvyNs7vX7WI2mqadHcarq62rXNykl7GGL8445&#xA;pF9Fn4q1KKRXJiMRHdoyZcksxEeh5X3M+/Le98r/AOA9N/QF5Jc6FYW4t4b+4iltvUW3WjyUnSL4&#xA;ag/EBx677ZZCq2cbOJcZ4huXjumXtjF57fX57OWHy7fX155m0HU/QiS/1JoYeElssskqenAivJKi&#xA;PxMiDpvQ0WLvpzdhIEw4f4qET3D9r2W6mk86/l5emxWfSf05p8yWT3QjWRVuYSI5GEbTcVYMD15U&#xA;8Dl/1RdcB4eQXvReLeQrux8u695Y8jfmB5XXStY0+7D+XdetQBHcTPVEEjp/eBy4BIY/Fx5KKZTH&#xA;YgEOwzAyjKcJWCNwnX5R6XYeb/zF8++YvMltHqGoWN99QsYLpBKttAjyqFVHBAPGNVrTsfE4cY4i&#xA;ba9TI48cIx2FMt1HyL5Y8ueXPzGutHZVbV7Kea9sE4enbslnIQqov2eZkL0PjttkzEAGmmOaU5Qv&#xA;of0vG9M8y6+n/ON0mip5VuJNJeGfl5gEsIg3vmfmYz+8+Bvg+jKeI8NU5xxx8fi4t+74PSPM3laL&#xA;W/8AnGOwtYYV9e00Ox1K3CgCklvbpNIQB+06cx78stlH0OJjycOoPnIh5Z5s846j5g1Hy754seUt&#xA;r5HsdGk1fao+tXMxMo27MyhcpMr3HRzceIRBgf4ya9z1v8udQ06bXvzG/Mm7ZWsFums7a6Wh/wBD&#xA;0qEeo0Z/lkAU+5XLoHcycLPE8MMY5/pLyr8sfNsGmfmfoPmSfVIrm487Ndwa9ZxOrNbTXFyTbq6j&#xA;7IJ9KngOWVQlUrczUY7xmNfTyZr+flxa2n5p+Qbu4sJNSiiMzTWUEaTSzIsin01jcqrnrQE5PL9Q&#xA;cfRAnHIA0i/+ce9Js9ai86eYoIo7Py95kumtrfRoWC+iiB+Yb0wojJSccQtNvow4hdo1szHhj/FH&#xA;qlug+U/Lnm781oNO0Wwhh8kfl8qxs6Ip+uX4OwkkpylAdN+RNeJ/nyMYgy25BnPLKGKyfXP7A+Xs&#xA;qdq7FX6TZnPKuxV2KuxV2KvL/wDnI/UdCtvyr1O31N4/rN2Y00yFqGRrhZFblGOvwLUsfD50NWYi&#xA;nM0MZHICPi+KcxnfOxV+hnkmGaHyZoEM4Inj060SUN1DrAgatffMyH0h5nMfXL3lNblbhreVbaRY&#xA;rhkYQyyIZEVyPhZkDIWAPUchXxGSYDzeOaX+RHnfStC1LQtO/MA22m6vNLcX0celRh2edVSQrIbg&#xA;unJUA+E5SMRAq3PlrIGQkYbjzZJH+U0knny38yanqUGp6ZZWP6MsdFubEOIoFFUb1mmYNLy3ZzHu&#xA;CRttQ+Fvu1HVejhAok3dqfl78ptQ0H8xdS826brNvbWOqAx3GhQ2Hpw+mqgRUcXGzqVDFggqeWwr&#xA;iMdGws9SJYxEjl1v9iK8jfljd+Xz5lj1fVINctPM9xLeX1t9SNsBLcV9Yf389UYNTjT6cMYVd9WO&#xA;XUCXDQrh80N5A/JTRvKeleYtGlujqmj6+5rayx+m0cHFk9IuHbmeL/bAXxwRx1bLNqzMxPIxSM/k&#xA;f5wt9Bn8o6d54kh8nXHNfqU9jFPcJC5q0Kzl1+E16jjTsMHhHlezZ+bgZcRj6ve9G0HyfpWjeUIP&#xA;KsLSTabBbNaFpWHqOkgIcsyhdzyPQZYIACnFnlMp8XVhOtfk1res+VofKWoeaFm0CyCjT66fH9dj&#xA;EKcLYPcerwYRjZisSs61FRXIHGSKtyI6uMZcQj6j5syv/K8+qeR7nyzql3HJLd2UllLeWsH1ZBzQ&#xA;orpB6knHiKHjzoadhtk+HanHGSp8Q72GaT+T3mGbWdBvfN/mltetPK7+potolpHbH1E4+nJPIGdn&#xA;K+mu3t13NYDGb3PJyJaqNEQjXFzRerflPq1r5svvNXkjXz5f1DVAP0rZy263VpcPWvqFWZeDbk1F&#xA;d69KnE4zdgsY6kGIjMcQDekflJqOn6D5rt5PMT3uv+bhx1HV57VfTUFWjPp2qSJT93IwH7yg22oK&#xA;FGPY781lqQZR9Ppj0Q9p+Tur235TS/l2vmGJoHdwmoGwPJbeSUzvH6f1ndjKxo/LptTvj4fpq0nV&#xA;DxfEr7f2My8o+W7nRfKNj5d1K7j1RbK2WyE4g+rh7dF9NFaPnLuIwFJ5b5MR2otGTJxSMgKYP5Z/&#xA;IHStF8g+Y/KbaibpvMDMxvzBwMQRR9XBj9RufpSDn9oVr2yAxbU5GTWmUxKvpRE35NXkf5U235fa&#xA;Xrq2MFW/SOo/U/UkuVeUysAnrJwqxAPxN8Ipj4e1IGqHicZH2rfOn5I2nmHyxpGj2V1ZaLd6a8Ms&#xA;2qW2nD1ZJII+ClOM0ZjUkliGZ+2+26cQIpcWsMZEmzfS1XzF+VPmPXfNPlnzHdeZIFu/LaxlY104&#xA;8J5QwaV2/wBKHH1KD4R9nE4yTdrDUxjGURH6vP8AYt0f8odX8vaj5ol8s+Y10zTvMnN0sWsjKbOZ&#xA;waSwSLcRbqXbiONKU/lxGOuRWWqEhHijZj58/sSXSfyC8y6Z5a/wvb+c1i0Ka4Fzfww6YsU9x8QZ&#xA;lef6yz/EFC/IeGDwjVW2S1sTLi4d/f8AsfIGY7unYqyX/lZn5kf9TXrH/cQuv+qmS4j3tXgY/wCa&#xA;Pk7/AJWZ+ZH/AFNesf8AcQuv+qmPEe9fAx/zR8nf8rM/Mj/qa9Y/7iF1/wBVMeI96+Bj/mj5IWbz&#xA;z52nkMs3mDUpZWpyd7ydmNBQVJfIkshiiOgWf4y83/8AV81D/pKn/wCa8V8OPcEvvtR1C/m9e+up&#xA;buegHqzyNI9B0HJyTiyAA5IfFLPPyZ/Lm788ecra1MROj2TpcavPT4FhBqIq/wA0vHio+Z7HJRjZ&#xA;cfU5xjhfXo+6szHnULqixNpl2str9eiaGQSWRVXEylDWLi3wtzHw0O2KvKLDzL+SV1eaTbN5Y02H&#xA;9LaC/mNJGsbQiOCMVaFuKn94oWStP5DgSyby9ov5WaxpmkXX+HNGtLvWLKLULfTJrWz+siGVA/2A&#xA;tTxDUYjbFXa5pn5N6Npeo6jd6PoZj0uCW5uoY7ayMoWElGUIQvxGQemAafH8PXFV9vpP5MTWVreD&#xA;TPL0cF7GstuZILFeSu3AU23+P4dv2tsdlR0/kz8rre5gtbjQtDhubolbWCS0tFklKirCNSgLUG5p&#xA;hQpv5U/KZL5dPfR9BW/duC2jW1mJi3HnxEZXlXieXTpgSpL5Y/LFV1Sa88uaJZ2elziGW7lgsPTI&#xA;9GKUu5APpUMvDjJxbatOJUlVWuPKn5TW9vFc3Gj6DDbzJ6kM0ltZqjpQNyVioBWhBqMVS3RNN/Kb&#xA;VdU1PS08u6PBf6beSWX1aW0sxLMYoopXljjC8igE4FaYqm0Pkv8AK+a6ns4dB0SS7tgpubdLS0aS&#xA;MPXhzQJyXlQ0r1woU7Pyn+U99K8Nlo2g3U0aJJJHDbWcjKkgqjMFUkBh0PfAlKbCz/KO/wDMt1ol&#xA;p5d0adbXT4tTfUIrWye3Mcs80BTkqn4ka3PLFXa3Z/lNpllo19D5a0jUbTW9RttLtLi0tLOSPndu&#xA;UWTmF4lFKmtMVTiPyd+Vkt/Lp0eh6G+oQKJJ7NbW0MyI32WeMLyUGuxIwoQHlPQ/yr8zaFY6rY+X&#xA;NH/0y1truS1+qWbywfWoVmSOUKp4txfAlFx+Vvykls5b6LSNAeygYxzXS29kYkdTRlZwvFSCaEE4&#xA;qg9S0b8qbXS01K38u6Nf2731npxa1tbOQLLeXkVkKsFI/dvOCw67Yqmlv5F/LS5Eht/L2jTCKRop&#xA;THZ2r8ZENHRqIaMp6jthQxq8/wCVU2v5iWPkdvKOnvfX1qboXa2NoYEYiZ0hf4Kh3jtZHG3QYEpR&#xA;qWuflnaalqAg/L62vfL2i3i6brfmCGysPSt7piisqwNSeVYmlUSsi/D25Yq+b/8AlTX5p/8AUsX/&#xA;APyKOYfCe56P8zj/AJwd/wAqa/NP/qWL/wD5FHHhPcv5nH/ODv8AlTX5p/8AUsX/APyKOPCe5fzO&#xA;P+cHf8qa/NP/AKli/wD+RRx4T3L+Zx/zg7/lTX5p/wDUsX//ACKOPCe5fzOP+cHf8qa/NP8A6li/&#xA;/wCRRx4T3L+Zx/zg7/lTX5p/9Sxf/wDIo48J7l/M4/5wVbX8kPzYuZRFH5Zu1Y0AMoSJdzT7UjIv&#xA;44iJ7kHVYx/EHoHk7/nE3zTezJN5pvYdKswfjtrdhcXTUptUfuUr/Nyb/VyyOInm4uXtGI+nd9Ke&#xA;UfJ3l7ylo8Wk6FaLbWse7t1klfvJK53Zj/YKDbL4xA5Oqy5ZTNyTrJNbsVfLl3+TnniHSdZ/R1nL&#xA;9di1yTQ9GLjkw8vXKXkDyrX4RHTVS1e3Cu1MCWS69+Xusp+ccl5Hpd++nTX2i3ejXFjDaPaxRadC&#xA;kUiXFzMPWt1jMbn00P7wN0rirIIfy35+RPzLjGjI2v8AmS611rczInqzh3k+o8XfonIK8e9A3xdd&#xA;8VYZ5itLK58yaZbf4KutQdvJNzbW2jfVYEntbmS79ETNFIyiMF2NZEqwD8qUrgSifzN8leer7TtP&#xA;tJtIudT1S38uWNv+lrCCymmk1G2kL3AuLy5PrwojcXRbdeUrMfi2phQ15q0m+1T8zPPtjo+hS3Xm&#xA;K5vPL36K8xRxwsmmtBFDO8kkrsJYVCIW+BTzpx8MVTHzr5K81Xmla+1vYXTxJ54h1iSCCKKaWfT0&#xA;0+CIyQwT1iuOM1G4MKHgcVRHlz8t2uIvy9tNR0a6l0bSrrWbuW21OKBWiE5aW1M8MH7pAztyWP8A&#xA;Z2XtiqtfeRNS/wATjWYNHI1BvPdvePqCxgTHS1sAjOZB8Xoh2YEVpWuKoXy95T8zR/nDY6xPodzY&#xA;xw6rrJvrqCCyh08291DK1u/rRH65dvMfTZ3moqv8CqpGKoDQfyz8x2egRWelaQdM1HUPI+qWN7II&#xA;1h56nNPCYUncFf3rKz8WY/CK+GKpXdeQtb1TRPNNt5d8oXnlyOfy5pNkltMkMEl5cWN40l0oZCyO&#xA;7wr6dX+3sTswxVO9F8na4uiaebTS9TjhfzppurSRX1raWcghiSNLi4FrZgLDGDHuD1py/axVOvKH&#xA;ljVtO/N6/vrTy5Jb6XdTX9xqd/qEFozwz3DVSXT76NvrEsdzxBeJ1/ddKjpiqR/lr5S1+GTS7nT/&#xA;ACe2gz6V5Um0vV0v44YIdT1GRYWhVxGxZ1Lo7vIy1HIqd8VY5aeQPOB8oebbWDQdQg/Sug6ZF9Um&#xA;tLO0WW8t72T1Ugt7LbjHHsDLWUj4iaFcCWeat5E1lbHzvoug2j6LZXuv+XptEeygVI4EjOm/Wbq3&#xA;hXilIWhZ2p3Q1woZl+Uel6ho3kqDQdQsza3WjT3Fi8wTgl2scpZL1NyW+sKwdif2+WIQXnOs+R/P&#xA;9zrWr/mDFJOs1t5itbyy8sx26epdWeluLBJBKx9WP1bWSdwlKEN03xSpeY7T8yPL+n+aNF8vadrI&#xA;1i71261zRtU0tLdrKa2vpFlkjunkqwaIeovALyLBaVGKv//Z</xapGImg:image>
    </rdf:li>
   </rdf:Alt>
  </xap:Thumbnails>
 </rdf:Description>

 <rdf:Description rdf:about=''
  xmlns:dc='http://purl.org/dc/elements/1.1/'>
  <dc:format>image/svg+xml</dc:format>
 </rdf:Description>

</rdf:RDF>
</x:xmpmeta>
                                                                                                                                                                                                                                                                                                                                                                                                                                                                                                                                                                                                                                                                                                                                                                                                                                                                                                                                                                                                                                                                                                                                                                                                                                                                                                                                                                                                                                                                                                                                                                                                                                                                                                                                                                                                                                                                                                                                                                                                                                                                                                                                <?xpacket end='w'?>
			</metadata>
		<g id="Layer_1" i:layer="yes" i:dimmedPercent="50" i:rgbTrio="#4F008000FFFF">
			<g>
				<path i:knockout="Off" fill="#560C0C" d="M32.168,7.937l0.001,91.622c0,0,70.586-0.166,81.429-0.166
					c8.493,0,13.735-4.338,13.735-11.568c0-4.877-2.893-7.77-12.831-13.01c-17.529-9.036-18.251-9.396-22.95-13.373
					c-7.591-6.326-11.567-15-11.567-24.938C79.985,14.637,97.335,0,122.996,0c12.648,0,22.589,2.89,37.769,11.021l-7.048,24.398
					c-11.204-7.409-18.072-10.12-25.843-10.12s-12.648,3.976-12.648,10.12c0,5.06,2.71,7.589,13.374,13.01
					c13.192,6.508,18.974,9.94,24.034,14.278c6.867,5.783,11.024,15.18,11.024,24.756c0,22.049-18.607,39.02-45.17,39.02L0,126.484
					V7.937H32.168L32.168,7.937z"/>
				<path i:knockout="Off" fill="#560C0C" d="M519.523,63.191l-12.975,23.137h6.848c0.721,0,0.9-0.145,1.441-0.9l1.982-2.738
					c0.217-0.398,0.684-0.758,1.152-0.758c0.434,0,1.082,0.252,1.082,0.793c0,0.252-0.035,0.613-0.072,0.721l-1.369,5.406h-17.408
					l13.119-23.354h-5.623c-0.684,0-0.828,0.072-1.262,0.649l-1.766,2.451c-0.322,0.432-0.684,0.937-1.297,0.937
					c-0.721,0-1.117-0.577-1.117-1.189c0-0.289,0.072-0.613,0.107-0.685l1.082-4.469H519.523L519.523,63.191z"/>
				<path i:knockout="Off" fill="#060606" d="M518.91,112.482c-0.49-1.365-0.764-1.992-1.119-2.594
					c-0.518-0.846-2.047-2.893-4.914-2.893c-0.955,0-3.576,0.301-5.24,2.619c-0.875,1.229-1.939,3.74-1.939,7.426
					c0,5.65,2.131,8.354,4.613,9.336c1.01,0.41,1.885,0.465,2.32,0.465c1.721,0,2.84-0.711,3.359-1.119
					c0.436-0.383,0.846-0.875,1.201-1.338v2.129h1.637v-9.254h-5.787v1.719h4.014c0,1.721-0.027,3.332-1.201,4.75
					c-1.092,1.311-2.566,1.502-3.139,1.502c-2.049,0-3.658-1.719-4.369-3.549c-0.709-1.746-0.654-3.848-0.654-4.422
					c0-2.02,0.082-4.096,1.037-5.896c1.174-2.32,3.002-2.676,4.039-2.676c2.867,0,3.686,2.512,3.932,3.385
					c0.082,0.273,0.164,0.547,0.219,0.82L518.91,112.482L518.91,112.482z"/>
				<path i:knockout="Off" fill-rule="evenodd" clip-rule="evenodd" fill="#060606" d="M493.148,118.68h5.486l-2.783-10.537
					c-0.383,1.637-0.793,3.275-1.201,4.914C494.158,114.939,493.641,116.795,493.148,118.68L493.148,118.68z M494.541,107.352h2.729
					l5.406,19.162h-1.938l-1.693-6.197h-6.389l-1.746,6.143h-1.885L494.541,107.352L494.541,107.352z"/>
				<polygon i:knockout="Off" fill="#060606" points="466.764,107.352 466.764,126.459 468.537,126.459 468.537,121.873 
					470.939,118.953 474.406,126.486 476.344,126.486 472.059,117.533 475.799,112.783 473.725,112.783 468.537,119.416 
					468.537,107.352 466.764,107.352 "/>
				<path i:knockout="Off" fill-rule="evenodd" clip-rule="evenodd" fill="#060606" d="M453.627,112.811h-1.83v13.648h1.803v-10.295
					c0.846-0.764,2.32-2.098,3.631-2.098c0.436,0,0.846,0.135,1.174,0.436c0.682,0.572,0.709,1.361,0.709,2.26v9.752h1.828v-9.098
					c-0.025-1.525-0.025-3.404-1.473-4.279c-0.574-0.354-1.256-0.518-1.912-0.518c-1.664,0-2.756,0.928-3.93,2.02V112.811
					L453.627,112.811z"/>
				<path i:knockout="Off" fill-rule="evenodd" clip-rule="evenodd" fill="#060606" d="M444.902,118.695l-2.129,0.627
					c-2.211,0.762-3.275,1.279-3.795,2.422c-0.055,0.191-0.217,0.6-0.217,1.117c0,0.162,0.025,0.49,0.162,0.871
					c0.164,0.408,0.766,1.307,2.049,1.307c0.6,0,1.773-0.217,2.92-1.197c0.219-0.164,0.547-0.49,1.01-0.98V118.695L444.902,118.695z
					 M444.848,117.389v-0.764c-0.027-0.463-0.055-1.416-1.119-2.123c-0.244-0.164-0.764-0.463-1.527-0.463
					c-1.502,0.027-2.594,1.088-2.867,1.416c-0.273,0.326-0.438,0.652-0.492,0.789l-1.281-0.953c0.572-0.709,1.064-1.361,1.773-1.854
					c0.41-0.273,1.393-0.818,2.812-0.818c1.801,0,3.52,0.873,4.148,2.535c0.246,0.682,0.246,1.361,0.246,1.607v7.488
					c0.055,1.281,0.137,1.418,0.273,2.154h-1.83c-0.164-0.682-0.217-0.846-0.191-1.99c-0.217,0.244-0.463,0.463-0.682,0.652
					c-0.465,0.438-1.639,1.447-3.412,1.447c-0.301,0-0.928-0.027-1.639-0.328c-1.828-0.791-2.02-2.672-2.02-3.324
					c0-1.008,0.355-1.934,1.01-2.641C439.307,118.857,441.246,118.287,444.848,117.389L444.848,117.389z"/>
				<path i:knockout="Off" fill-rule="evenodd" clip-rule="evenodd" fill="#060606" d="M423.932,116.332v6.496
					c0.164,0.219,0.301,0.438,0.465,0.629c0.191,0.271,1.311,1.828,2.783,1.828c0.93,0,1.885-0.6,2.432-1.393
					c0.764-1.092,0.955-2.838,0.955-4.176c0-0.273,0-2.867-1.146-4.34c-0.793-1.039-1.748-1.121-2.24-1.121
					c-0.408,0-1.227,0.082-2.02,0.738C424.615,115.43,424.041,116.195,423.932,116.332L423.932,116.332z M422.158,107.377h1.828
					v7.07c1.092-1.01,1.939-1.746,3.439-1.746c0.711,0,2.049,0.164,3.223,1.447c0.791,0.9,1.801,2.646,1.801,5.486
					c0,3.275-1.064,4.969-2.129,5.896c-1.146,1.01-2.211,1.146-2.812,1.146c-0.518,0-0.928-0.109-1.119-0.137
					c-1.092-0.328-1.719-1.01-2.484-1.828l-0.082,1.773h-1.664V107.377L422.158,107.377z"/>
				<path i:knockout="Off" fill="#060606" d="M416.896,114.83c-0.326-0.383-0.736-0.846-1.146-1.174
					c-1.309-1.01-2.838-1.146-3.412-1.146c-1.527,0-3.029,0.738-3.768,2.184c-0.326,0.684-0.354,1.201-0.354,1.502
					c0,0.545,0.137,0.982,0.191,1.146c0.6,1.555,1.938,2.184,3.385,2.703c0.791,0.271,1.992,0.627,2.701,1.145
					c0.766,0.547,0.875,1.338,0.875,1.721c0,0.873-0.629,2.293-2.648,2.293c-2.32,0-3.139-1.447-3.631-2.156l-1.475,0.873
					c0.711,0.928,1.201,1.611,2.238,2.156c0.438,0.191,1.447,0.629,2.758,0.629c1.502,0,3.139-0.602,3.932-1.938
					c0.49-0.82,0.518-1.639,0.518-1.994c0-1.393-0.6-2.184-0.928-2.539c-0.928-0.928-2.566-1.363-3.768-1.801
					c-1.338-0.465-1.91-0.791-2.238-1.475c-0.137-0.299-0.191-0.518-0.191-0.846c0-0.736,0.602-2.102,2.43-2.102
					c1.529,0,2.402,0.928,2.758,1.311l0.408,0.49L416.896,114.83L416.896,114.83z"/>
				<polygon i:knockout="Off" fill="#060606" points="401.297,107.377 401.297,126.514 403.07,126.514 403.07,107.377 
					401.297,107.377 "/>
				<path i:knockout="Off" fill-rule="evenodd" clip-rule="evenodd" fill="#060606" d="M387.904,118.434l6.443-0.027
					c-0.137-1.447-0.301-2.676-1.447-3.686c-0.219-0.191-0.873-0.709-1.721-0.709c-0.764,0-1.336,0.408-1.582,0.6
					C388.342,115.566,388.123,116.932,387.904,118.434L387.904,118.434z M396.176,119.936h-8.271
					c0.027,0.354,0.055,0.736,0.109,1.092c0.055,0.49,0.219,2.156,1.42,3.303c0.848,0.791,1.639,0.846,2.129,0.846
					c0.219,0,0.602,0,1.119-0.191c0.793-0.271,1.311-0.682,2.295-2.02l1.281,0.846c-0.518,0.738-1.828,2.949-4.75,2.949
					c-0.654,0-1.256-0.109-1.855-0.355c-2.758-1.064-3.631-4.395-3.631-7.07c0-2.238,0.656-4.367,2.484-5.787
					c0.41-0.299,1.365-0.982,2.785-0.982c0.709,0,2.482,0.191,3.656,1.828C396.066,116.004,396.121,117.996,396.176,119.936
					L396.176,119.936z"/>
				<path i:knockout="Off" fill-rule="evenodd" clip-rule="evenodd" fill="#060606" d="M379.818,122.801l-0.027-6.605
					c-0.9-1.01-1.746-1.91-3.248-1.91c-0.301,0-0.955,0-1.611,0.518c-1.828,1.393-1.773,4.996-1.773,5.188
					c0,0.408,0.027,2.375,0.873,3.738c0.82,1.311,1.994,1.611,2.566,1.611c0.52,0,0.928-0.219,1.092-0.301
					C378.645,124.549,379.219,123.674,379.818,122.801L379.818,122.801z M379.873,114.42v-7.043h1.693v19.164h-1.693v-1.803
					c-0.326,0.383-0.6,0.684-0.955,0.984c-0.355,0.326-1.201,0.982-2.594,0.982c-0.518,0-1.527-0.109-2.619-0.955
					c-1.229-0.93-2.348-2.566-2.348-6.006c0-0.383,0.027-1.502,0.326-2.648c0.629-2.293,2.211-4.367,4.75-4.367
					C377.908,112.729,378.809,113.492,379.873,114.42L379.873,114.42z"/>
				<path i:knockout="Off" fill-rule="evenodd" clip-rule="evenodd" fill="#060606" d="M359.586,112.811h-1.83v13.648h1.801v-10.295
					c0.848-0.764,2.322-2.098,3.631-2.098c0.438,0,0.848,0.135,1.174,0.436c0.684,0.572,0.711,1.361,0.711,2.26v9.752h1.828v-9.098
					c-0.027-1.525-0.027-3.404-1.475-4.279c-0.572-0.354-1.254-0.518-1.91-0.518c-1.664,0-2.758,0.928-3.93,2.02V112.811
					L359.586,112.811z"/>
				<path i:knockout="Off" fill-rule="evenodd" clip-rule="evenodd" fill="#060606" d="M350.588,118.695l-2.129,0.627
					c-2.211,0.762-3.275,1.279-3.793,2.422c-0.057,0.191-0.219,0.6-0.219,1.117c0,0.162,0.027,0.49,0.162,0.871
					c0.164,0.408,0.766,1.307,2.049,1.307c0.6,0,1.773-0.217,2.92-1.197c0.219-0.164,0.547-0.49,1.01-0.98V118.695L350.588,118.695z
					 M350.533,117.389v-0.764c-0.025-0.463-0.053-1.416-1.119-2.123c-0.244-0.164-0.764-0.463-1.527-0.463
					c-1.502,0.027-2.594,1.088-2.867,1.416c-0.271,0.326-0.436,0.652-0.492,0.789l-1.281-0.953c0.572-0.709,1.064-1.361,1.773-1.854
					c0.41-0.273,1.393-0.818,2.812-0.818c1.801,0,3.521,0.873,4.148,2.535c0.246,0.682,0.246,1.361,0.246,1.607v7.488
					c0.055,1.281,0.137,1.418,0.273,2.154h-1.83c-0.162-0.682-0.217-0.846-0.189-1.99c-0.219,0.244-0.465,0.463-0.684,0.652
					c-0.463,0.438-1.637,1.447-3.412,1.447c-0.301,0-0.928-0.027-1.637-0.328c-1.83-0.791-2.021-2.672-2.021-3.324
					c0-1.008,0.355-1.934,1.01-2.641C344.992,118.857,346.932,118.287,350.533,117.389L350.533,117.389z"/>
				<path i:knockout="Off" fill="#060606" d="M328.416,107.377v19.109h1.83v-10.346c0.709-0.684,1.473-1.393,2.43-1.83
					c0.518-0.217,0.9-0.271,1.119-0.271s0.709,0.055,1.201,0.463c0.764,0.656,0.764,1.475,0.736,2.43v9.582h1.83v-9.828
					c-0.082-1.582-0.246-2.156-0.738-2.811c-0.627-0.818-1.584-1.311-2.648-1.311c-1.555,0-2.592,0.9-3.002,1.229
					c-0.301,0.273-0.6,0.545-0.9,0.846v-7.262H328.416L328.416,107.377z"/>
				<path i:knockout="Off" fill="#060606" d="M317.646,112.811v13.648h1.773v-7.725c0.52-1.119,1.258-2.73,2.24-3.576
					c0.955-0.848,1.883-0.793,2.375-0.793l0.027-1.746c-0.438,0.027-0.875,0.027-1.283,0.109c-1.502,0.328-2.293,1.664-2.512,1.992
					c-0.301,0.52-0.574,1.064-0.818,1.584v-3.494H317.646L317.646,112.811z"/>
				<path i:knockout="Off" fill-rule="evenodd" clip-rule="evenodd" fill="#060606" d="M304.557,118.434l6.441-0.027
					c-0.137-1.447-0.301-2.676-1.447-3.686c-0.217-0.191-0.873-0.709-1.719-0.709c-0.764,0-1.338,0.408-1.584,0.6
					C304.992,115.566,304.773,116.932,304.557,118.434L304.557,118.434z M312.828,119.936h-8.271
					c0.027,0.354,0.055,0.736,0.109,1.092c0.053,0.49,0.217,2.156,1.418,3.303c0.848,0.791,1.639,0.846,2.131,0.846
					c0.217,0,0.6,0,1.119-0.191c0.791-0.271,1.309-0.682,2.293-2.02l1.283,0.846c-0.52,0.738-1.83,2.949-4.75,2.949
					c-0.656,0-1.256-0.109-1.857-0.355c-2.756-1.064-3.631-4.395-3.631-7.07c0-2.238,0.656-4.367,2.484-5.787
					c0.41-0.299,1.365-0.982,2.785-0.982c0.709,0,2.484,0.191,3.658,1.828C312.719,116.004,312.773,117.996,312.828,119.936
					L312.828,119.936z"/>
				<polygon i:knockout="Off" fill="#060606" points="296.297,107.352 296.297,109.289 298.072,109.289 298.072,107.352 
					296.297,107.352 "/>
				<polygon i:knockout="Off" fill="#060606" points="296.244,112.814 296.244,126.486 298.072,126.486 298.072,112.814 
					296.244,112.814 "/>
				<path i:knockout="Off" fill-rule="evenodd" clip-rule="evenodd" fill="#060606" d="M282.752,116.523v6.496
					c0.873,1.092,1.664,2.02,3.221,2.02c2.812,0,3.439-3.658,3.439-5.732c0-0.328-0.027-2.512-0.873-3.85
					c-0.109-0.189-0.41-0.6-0.928-0.955c-0.219-0.137-0.848-0.49-1.584-0.49C284.553,114.012,283.543,115.404,282.752,116.523
					L282.752,116.523z M280.922,112.811h1.83v1.965l0.572-0.654c0.41-0.438,1.338-1.475,3.086-1.475c1.146,0,1.938,0.49,2.293,0.736
					c1.609,1.092,2.266,2.812,2.484,4.723c0.055,0.273,0.107,0.818,0.107,1.529c0,2.32-0.682,3.822-1.172,4.613
					c-0.383,0.654-1.557,2.348-3.904,2.348c-1.475,0-2.375-0.764-3.467-1.693v5.924h-1.83V112.811L280.922,112.811z"/>
				<path i:knockout="Off" fill-rule="evenodd" clip-rule="evenodd" fill="#060606" d="M273.537,118.695l-2.129,0.627
					c-2.211,0.762-3.275,1.279-3.795,2.422c-0.055,0.191-0.219,0.6-0.219,1.117c0,0.162,0.027,0.49,0.164,0.871
					c0.164,0.408,0.766,1.307,2.047,1.307c0.602,0,1.775-0.217,2.922-1.197c0.219-0.164,0.545-0.49,1.01-0.98V118.695
					L273.537,118.695z M273.482,117.389v-0.764c-0.027-0.463-0.055-1.416-1.119-2.123c-0.246-0.164-0.764-0.463-1.529-0.463
					c-1.5,0.027-2.592,1.088-2.865,1.416c-0.273,0.326-0.438,0.652-0.492,0.789l-1.283-0.953c0.574-0.709,1.064-1.361,1.775-1.854
					c0.408-0.273,1.393-0.818,2.811-0.818c1.803,0,3.521,0.873,4.15,2.535c0.246,0.682,0.246,1.361,0.246,1.607v7.488
					c0.055,1.281,0.135,1.418,0.271,2.154h-1.828c-0.164-0.682-0.219-0.846-0.191-1.99c-0.219,0.244-0.463,0.463-0.682,0.652
					c-0.465,0.438-1.639,1.447-3.412,1.447c-0.301,0-0.928-0.027-1.639-0.328c-1.828-0.791-2.02-2.672-2.02-3.324
					c0-1.008,0.354-1.934,1.01-2.641C267.941,118.857,269.879,118.287,273.482,117.389L273.482,117.389z"/>
				<path i:knockout="Off" fill-rule="evenodd" clip-rule="evenodd" fill="#060606" d="M252.812,116.523v6.496
					c0.874,1.092,1.665,2.02,3.221,2.02c2.812,0,3.439-3.658,3.439-5.732c0-0.328-0.027-2.512-0.873-3.85
					c-0.109-0.189-0.41-0.6-0.928-0.955c-0.219-0.137-0.848-0.49-1.584-0.49C254.614,114.012,253.604,115.404,252.812,116.523
					L252.812,116.523z M250.983,112.811h1.829v1.965l0.573-0.654c0.409-0.438,1.338-1.475,3.085-1.475
					c1.146,0,1.938,0.49,2.293,0.736c1.609,1.092,2.266,2.812,2.484,4.723c0.053,0.273,0.107,0.818,0.107,1.529
					c0,2.32-0.682,3.822-1.174,4.613c-0.381,0.654-1.555,2.348-3.902,2.348c-1.474,0-2.375-0.764-3.467-1.693v5.924h-1.829V112.811
					L250.983,112.811z"/>
				<path i:knockout="Off" fill="#060606" d="M239.826,112.838v1.555h2.129v9.938c0.082,0.654,0.137,0.846,0.3,1.146
					c0.3,0.572,1.119,1.229,2.484,1.229c0.819,0,1.829-0.246,2.047-0.273v-1.365c-0.491,0.055-0.982,0.109-1.474,0.109
					c-0.737,0-1.065-0.246-1.283-0.545c-0.327-0.438-0.273-1.012-0.273-1.146v-9.119h3.003v-1.555h-2.976v-4.559h-1.774v4.586
					H239.826L239.826,112.838z"/>
				<path i:knockout="Off" fill="#060606" d="M229.903,112.811v13.648h1.774v-7.725c0.519-1.119,1.256-2.73,2.238-3.576
					c0.956-0.848,1.884-0.793,2.375-0.793l0.027-1.746c-0.437,0.027-0.874,0.027-1.283,0.109c-1.501,0.328-2.293,1.664-2.511,1.992
					c-0.3,0.52-0.574,1.064-0.819,1.584v-3.494H229.903L229.903,112.811z"/>
				<path i:knockout="Off" fill-rule="evenodd" clip-rule="evenodd" fill="#060606" d="M217.085,118.434l6.442-0.027
					c-0.136-1.447-0.3-2.676-1.447-3.686c-0.218-0.191-0.873-0.709-1.72-0.709c-0.764,0-1.337,0.408-1.583,0.6
					C217.521,115.566,217.303,116.932,217.085,118.434L217.085,118.434z M225.356,119.936h-8.271
					c0.027,0.354,0.054,0.736,0.109,1.092c0.055,0.49,0.218,2.156,1.419,3.303c0.846,0.791,1.638,0.846,2.129,0.846
					c0.218,0,0.601,0,1.119-0.191c0.792-0.271,1.31-0.682,2.293-2.02l1.283,0.846c-0.519,0.738-1.829,2.949-4.75,2.949
					c-0.655,0-1.256-0.109-1.856-0.355c-2.757-1.064-3.63-4.395-3.63-7.07c0-2.238,0.655-4.367,2.484-5.787
					c0.409-0.299,1.364-0.982,2.784-0.982c0.709,0,2.484,0.191,3.658,1.828C225.247,116.004,225.302,117.996,225.356,119.936
					L225.356,119.936z"/>
				<path i:knockout="Off" fill="#060606" d="M202.719,107.352c-0.464,2.02-0.9,4.066-1.365,6.086
					c-0.437,1.83-0.874,3.658-1.256,5.486c-0.328,1.666-0.601,3.332-0.901,4.996c-0.327-2.238-0.682-4.477-1.091-6.715
					c-0.628-3.303-1.365-6.578-2.102-9.883h-1.911l4.123,19.137h1.938c0.464-2.211,0.929-4.422,1.447-6.605
					c0.437-1.885,0.901-3.768,1.283-5.65c0.301-1.529,0.492-3.086,0.683-4.613c0.191,1.527,0.41,3.057,0.683,4.586
					c0.355,1.883,0.819,3.738,1.229,5.596c0.519,2.238,0.983,4.477,1.447,6.715h1.829l4.504-19.189h-1.911
					c-0.41,1.938-0.819,3.875-1.256,5.814c-0.354,1.5-0.737,3.002-1.037,4.531c-0.437,2.02-0.737,4.094-1.037,6.168l-3.521-16.459
					H202.719L202.719,107.352z"/>
				<path i:knockout="Off" fill-rule="evenodd" clip-rule="evenodd" fill="#560C0C" d="M483.605,65.93v9.334h2.162
					c2.848,0,4.83-1.693,4.83-4.973c0-2.487-1.227-4.361-3.93-4.361H483.605L483.605,65.93z M478.92,85.969V66.074
					c0-0.793-0.145-0.901-1.262-1.226l-0.758-0.216c-0.396-0.108-0.684-0.324-0.684-0.721c0-0.721,0.541-0.721,0.83-0.721h10.596
					c4.072,0,7.641,1.874,7.641,6.812c0,2.992-1.803,5.55-4.434,6.667l4.504,9.551c0.324,0.684,0.613,0.793,1.227,0.973l0.721,0.217
					c0.541,0.145,0.973,0.324,0.973,0.793c0,0.467-0.396,0.648-0.686,0.648h-6.197l-5.262-10.848h-2.523v7.965
					c0,0.793,0.143,0.9,0.973,1.225l0.756,0.217c0.396,0.107,0.686,0.324,0.686,0.721c0,0.721-0.539,0.721-0.828,0.721h-8.145
					c-0.289,0-0.83,0-0.83-0.721c0-0.396,0.287-0.613,0.684-0.721l0.758-0.217C478.775,86.869,478.92,86.762,478.92,85.969
					L478.92,85.969z"/>
				<path i:knockout="Off" fill-rule="evenodd" clip-rule="evenodd" fill="#560C0C" d="M460.176,68.525l-3.316,10.235h6.596
					l-3.207-10.235H460.176L460.176,68.525z M450.877,85.68l7.965-22.489h3.893l7.82,22.237c0.469,1.297,0.504,1.334,1.551,1.766
					l1.08,0.432c0.324,0.145,0.361,0.361,0.361,0.613c0,0.324-0.145,0.613-0.865,0.613h-8.398c-0.611,0-0.793-0.324-0.793-0.613
					c0-0.396,0.254-0.541,0.469-0.613l1.154-0.432c0.287-0.107,0.828-0.324,0.828-0.686c0-0.252-0.107-0.648-0.252-1.008
					l-1.117-3.352h-8.865l-1.262,3.711c-0.037,0.145-0.109,0.396-0.109,0.504c0,0.326,0.252,0.506,0.541,0.613l1.189,0.434
					c0.434,0.145,0.686,0.324,0.686,0.648c0,0.793-0.758,0.793-1.045,0.793h-7.064c-0.432,0-0.721-0.217-0.721-0.613
					c0-0.504,0.18-0.721,0.467-0.828l1.406-0.434C450.408,86.797,450.518,86.689,450.877,85.68L450.877,85.68z"/>
				<path i:knockout="Off" fill="#560C0C" d="M436.902,89.104l-4.688-18.633l-4.756,18.633h-3.893l-6.379-23.137
					c-0.035-0.217-0.182-0.793-1.117-1.118l-1.189-0.433c-0.396-0.216-0.434-0.324-0.434-0.541c0-0.432,0.217-0.685,0.541-0.685
					h8.361c0.254,0,0.469,0.18,0.469,0.468c0,0.396-0.143,0.613-0.432,0.757l-0.938,0.433c-0.361,0.144-0.686,0.289-0.686,0.577
					c0,0.252,0.072,0.433,0.145,0.721l4.109,16.506l4.035-16.614c0.037-0.145,0.109-0.36,0.109-0.541
					c0-0.252-0.182-0.504-0.541-0.648l-1.117-0.433c-0.18-0.072-0.287-0.18-0.287-0.469c0-0.36,0.143-0.756,0.611-0.756h7.713
					c0.434,0,0.613,0.216,0.613,0.613c0,0.324-0.145,0.504-0.396,0.612l-1.117,0.469c-0.434,0.18-0.576,0.324-0.576,0.577
					c0,0.216,0.07,0.577,0.143,0.829l4.109,16.362l3.963-16.218c0.109-0.396,0.146-0.72,0.146-0.937
					c0-0.396-0.254-0.576-0.434-0.648l-1.117-0.433c-0.252-0.072-0.432-0.252-0.432-0.541c0-0.685,0.467-0.685,0.793-0.685h6.775
					c0.395,0,0.973,0,0.973,0.541c0,0.36-0.217,0.577-0.432,0.685l-1.082,0.433c-0.938,0.396-1.152,0.541-1.441,1.478l-6.309,22.777
					H436.902L436.902,89.104z"/>
				<path i:knockout="Off" fill="#560C0C" d="M388.525,85.969V66.074c0-0.793-0.145-0.901-1.262-1.226l-0.758-0.216
					c-0.396-0.108-0.684-0.324-0.684-0.721c0-0.721,0.541-0.721,0.828-0.721h8.434c0.289,0,0.83,0,0.83,0.721
					c0,0.396-0.289,0.613-0.686,0.721l-0.756,0.216c-1.117,0.324-1.262,0.432-1.262,1.226v8.182h9.982v-8.182
					c0-0.793-0.145-0.901-1.262-1.226l-0.756-0.216c-0.396-0.108-0.686-0.324-0.686-0.721c0-0.721,0.541-0.721,0.83-0.721h8.432
					c0.289,0,0.83,0,0.83,0.721c0,0.396-0.289,0.613-0.686,0.721l-0.756,0.216c-1.117,0.324-1.262,0.432-1.262,1.226v19.895
					c0,0.793,0.145,0.9,1.262,1.225l0.756,0.217c0.396,0.107,0.686,0.324,0.686,0.721c0,0.721-0.541,0.721-0.83,0.721h-8.432
					c-0.289,0-0.83,0-0.83-0.721c0-0.396,0.289-0.613,0.686-0.721l0.756-0.217c1.117-0.324,1.262-0.432,1.262-1.225v-8.543h-9.982
					v8.543c0,0.793,0.145,0.9,1.262,1.225l0.756,0.217c0.396,0.107,0.686,0.324,0.686,0.721c0,0.721-0.541,0.721-0.83,0.721h-8.434
					c-0.287,0-0.828,0-0.828-0.721c0-0.396,0.287-0.613,0.684-0.721l0.758-0.217C388.381,86.869,388.525,86.762,388.525,85.969
					L388.525,85.969z"/>
				<path i:knockout="Off" fill="#560C0C" d="M380.592,81.607v4.865c-2.701,1.838-5.91,2.955-9.189,2.955
					c-7.641,0-12.578-5.982-12.578-13.371c0-7.208,5.406-13.442,12.832-13.442c3.17,0,6.414,0.757,9.008,2.703v4.325
					c0,1.045-0.359,1.982-1.584,1.982c-0.793,0-1.154-0.685-1.406-1.297l-1.262-3.208c-0.037-0.108-0.18-0.433-0.541-0.721
					c-0.576-0.396-1.73-0.829-3.965-0.829c-5.91,0-7.963,5.982-7.963,10.884c0,4.83,2.162,10.02,7.713,10.02
					c2.918,0,4.432-1.441,4.611-1.803l1.73-3.748c0.359-0.756,1.01-0.865,1.406-0.865C380.377,80.057,380.592,80.742,380.592,81.607
					L380.592,81.607z"/>
				<path i:knockout="Off" fill="#560C0C" d="M339.281,87.662l-0.686-4.938c-0.035-0.217-0.035-0.396-0.035-0.576
					c0-0.686,0.793-0.975,1.369-0.975c0.504,0,0.756,0.289,0.973,0.758l1.551,3.135c0.611,1.262,2.342,1.406,3.531,1.406
					c2.09,0,4.18-1.406,4.18-3.676c0-5.803-11.279-5.01-11.279-13.083c0-4.649,4.18-7.1,8.324-7.1c2.162,0,4.361,0.504,6.199,1.658
					l0.504,3.856c0.037,0.18,0.037,0.396,0.037,0.612c0,0.288-0.324,0.973-1.225,0.973c-0.758,0-1.045-0.396-1.334-1.081
					l-0.83-1.946c-0.252-0.541-0.756-1.333-3.027-1.333c-2.09,0-4.18,1.081-4.18,3.532c0,4.648,11.496,4.972,11.496,12.361
					c0,5.227-4.396,8.182-9.154,8.182C343.461,89.428,341.191,88.922,339.281,87.662L339.281,87.662z"/>
				<path i:knockout="Off" fill-rule="evenodd" clip-rule="evenodd" fill="#560C0C" d="M321.324,85.031l-6.502-9.334
					c-3.449,2.486-5.035,4.576-5.035,6.775c0,3.135,3.133,4.865,5.947,4.865C317.875,87.338,319.857,86.4,321.324,85.031
					L321.324,85.031z M313.355,68.345c0,1.225,0.396,2.09,2.26,4.722c2.895-2.416,3.766-3.353,3.766-4.938
					c0-2.054-1.584-2.775-2.973-2.775C314.584,65.353,313.355,66.758,313.355,68.345L313.355,68.345z M324.1,88.852l-1.824-2.488
					c-1.982,1.768-3.965,2.775-6.818,2.775c-3.727,0-7.891-2.27-7.891-6.449c0-3.533,2.855-6.057,6.264-8.434
					c-1.941-2.776-2.695-4.109-2.695-6.019c0-2.523,2.418-4.253,5.393-4.253c2.695,0,4.836,1.838,4.836,4.325
					c0,1.694-0.951,2.955-4.756,6.09l6.104,8.758c0.834-1.262,1.904-3.748,1.904-4.756c0-0.613-0.357-0.902-1.23-1.189l-1.467-0.434
					c-0.516-0.145-0.635-0.324-0.635-0.504c0-0.252,0.24-0.434,0.676-0.434h6.699c0.516,0,0.715,0.182,0.715,0.361
					c0,0.252-0.16,0.469-0.596,0.576l-1.547,0.434c-0.713,0.215-0.791,0.252-0.871,0.467c-0.277,0.83-0.754,4.254-2.656,6.92
					l1.664,2.379c0.279,0.361,0.477,0.434,0.754,0.504l1.389,0.434c0.832,0.252,0.91,0.289,0.91,0.541
					c0,0.287-0.197,0.396-0.633,0.396H324.1L324.1,88.852z"/>
				<path i:knockout="Off" fill="#560C0C" d="M294.406,65.317v4.325c0,1.045-0.359,1.982-1.586,1.982
					c-0.793,0-1.152-0.685-1.404-1.297l-1.154-2.991c-0.18-0.433-0.9-1.766-4.613-1.766c-5.91,0-7.965,5.982-7.965,10.884
					c0,4.83,2.162,10.02,7.713,10.02c1.945,0.072,3.82-0.648,4.613-1.514v-4.541c0-0.576-0.145-0.758-0.758-1.045l-1.477-0.65
					c-0.252-0.107-0.396-0.287-0.396-0.648c0-0.684,0.793-0.793,1.297-0.793h8.074c0.396,0,0.9,0.182,0.9,0.65
					s-0.289,0.756-0.648,0.9l-1.551,0.684c-0.541,0.217-0.541,0.65-0.541,1.299v5.297c-2.594,2.02-5.945,3.209-9.73,3.316
					c-7.676,0-12.613-5.982-12.613-13.371c0-7.208,5.406-13.442,12.83-13.442C288.568,62.614,291.811,63.371,294.406,65.317
					L294.406,65.317z"/>
				<path i:knockout="Off" fill="#560C0C" d="M245.925,85.969V66.074c0-0.793-0.144-0.901-1.261-1.226l-0.757-0.216
					c-0.396-0.108-0.685-0.324-0.685-0.721c0-0.721,0.541-0.721,0.83-0.721h5.802l12.83,19.03l0.072-16.146
					c0-0.793-0.143-0.901-1.262-1.226l-0.756-0.216c-0.396-0.108-0.684-0.324-0.684-0.721c0-0.721,0.539-0.721,0.828-0.721h7.568
					c0.289,0,0.828,0,0.828,0.721c0,0.396-0.287,0.613-0.684,0.721l-0.758,0.216c-1.117,0.324-1.26,0.432-1.26,1.226v22.777h-3.713
					l-13.047-19.029l-0.072,16.146c0,0.793,0.144,0.9,1.261,1.225l0.757,0.217c0.396,0.107,0.685,0.324,0.685,0.721
					c0,0.721-0.541,0.721-0.829,0.721h-7.568c-0.289,0-0.83,0-0.83-0.721c0-0.396,0.289-0.613,0.685-0.721l0.757-0.217
					C245.782,86.869,245.925,86.762,245.925,85.969L245.925,85.969z"/>
				<path i:knockout="Off" fill-rule="evenodd" clip-rule="evenodd" fill="#560C0C" d="M226.408,68.525l-3.316,10.235h6.596
					l-3.208-10.235H226.408L226.408,68.525z M217.109,85.68l7.965-22.489h3.893l7.821,22.237c0.469,1.297,0.504,1.334,1.55,1.766
					l1.081,0.432c0.325,0.145,0.36,0.361,0.36,0.613c0,0.324-0.144,0.613-0.865,0.613h-8.398c-0.612,0-0.792-0.324-0.792-0.613
					c0-0.396,0.252-0.541,0.469-0.613l1.153-0.432c0.288-0.107,0.829-0.324,0.829-0.686c0-0.252-0.108-0.648-0.252-1.008
					l-1.117-3.352h-8.866l-1.261,3.711c-0.036,0.145-0.108,0.396-0.108,0.504c0,0.326,0.252,0.506,0.541,0.613l1.189,0.434
					c0.432,0.145,0.685,0.324,0.685,0.648c0,0.793-0.756,0.793-1.045,0.793h-7.063c-0.433,0-0.721-0.217-0.721-0.613
					c0-0.504,0.18-0.721,0.469-0.828l1.405-0.434C216.641,86.797,216.75,86.689,217.109,85.68L217.109,85.68z"/>
				<path i:knockout="Off" fill="#560C0C" d="M195.894,85.969V66.074c0-0.793-0.144-0.901-1.261-1.226l-0.757-0.216
					c-0.396-0.108-0.685-0.324-0.685-0.721c0-0.721,0.54-0.721,0.829-0.721h8.434c0.288,0,0.829,0,0.829,0.721
					c0,0.396-0.288,0.613-0.685,0.721l-0.757,0.216c-1.117,0.324-1.261,0.432-1.261,1.226v18.777c0,0.828,0.036,1.26,1.008,1.26
					h4.902c0.792,0,1.117-0.287,1.478-0.793l1.874-2.559c0.252-0.359,0.54-0.721,1.044-0.721c0.505,0,1.118,0.506,1.118,0.938
					c0,0.217-0.108,0.613-0.252,1.154l-1.225,4.721H194.02c-0.289,0-0.829,0-0.829-0.721c0-0.396,0.288-0.613,0.685-0.721
					l0.757-0.217C195.75,86.869,195.894,86.762,195.894,85.969L195.894,85.969z"/>
				
					<line i:knockout="Off" fill="#060606" stroke="#060606" stroke-width="1.1575" stroke-miterlimit="3.8637" x1="193.01" y1="98.846" x2="519.463" y2="98.846"/>
			</g>
		</g>
	</svg>
