<?xml version="1.0" encoding="UTF-8" standalone="no"?>
<!-- Created with Inkscape (http://www.inkscape.org/) -->

<svg
   xmlns:dc="http://purl.org/dc/elements/1.1/"
   xmlns:cc="http://creativecommons.org/ns#"
   xmlns:rdf="http://www.w3.org/1999/02/22-rdf-syntax-ns#"
   xmlns:svg="http://www.w3.org/2000/svg"
   xmlns="http://www.w3.org/2000/svg"
   version="1.1"
   width="538.58264"
   height="407.12598"
   id="svg35027"
   xml:space="preserve"><metadata
     id="metadata35033"><rdf:RDF><cc:Work
         rdf:about=""><dc:format>image/svg+xml</dc:format><dc:type
           rdf:resource="http://purl.org/dc/dcmitype/StillImage" /><dc:title></dc:title></cc:Work></rdf:RDF></metadata><defs
     id="defs35031"><clipPath
       id="clipPath35049"><path
         d="m 0,0 0,846.04797 1279.17,0 L 1279.17,0 0,0"
         id="path35051" /></clipPath><clipPath
       id="clipPath35055"><path
         d="m 649.462,27.024 602.688,0 0,792 -602.688,0 0,-792 z"
         id="path35057" /></clipPath><clipPath
       id="clipPath35093"><path
         d="m 647.462,36.024 594,0 0,155.709 -594,0 0,-155.709 z"
         id="path35095" /></clipPath><clipPath
       id="clipPath35141"><path
         d="m 657.564,44.702 577.082,0 0,144.896 -577.082,0 0,-144.896 z"
         id="path35143" /></clipPath><clipPath
       id="clipPath35161"><path
         d="m 647.462,36.024 594,0 0,155.709 -594,0 0,-155.709 z"
         id="path35163" /></clipPath><clipPath
       id="clipPath35391"><path
         d="m 78.104,731.676 55.2,0 0,42.648 -55.2,0 0,-42.648 z"
         id="path35393" /></clipPath><clipPath
       id="clipPath35411"><path
         d="m 78.104,726.024 58.278,0 0,49.402 -58.278,0 0,-49.402 z"
         id="path35413" /></clipPath><clipPath
       id="clipPath35521"><path
         d="m 78.104,731.676 55.2,0 0,42.648 -55.2,0 0,-42.648 z"
         id="path35523" /></clipPath><clipPath
       id="clipPath35543"><path
         d="m 0,0 1279.173,0 0,846.048 L 0,846.048 0,0 z"
         id="path35545" /></clipPath></defs><g
     transform="matrix(1.25,0,0,-1.25,-131.99702,772.33097)"
     id="g35035"><g
       transform="translate(-612,0)"
       id="g35045"><g
         clip-path="url(#clipPath35049)"
         id="g35047"><g
           clip-path="url(#clipPath35055)"
           id="g35053" /></g></g><g
       transform="translate(-612,0)"
       id="g35089"><g
         clip-path="url(#clipPath35093)"
         id="g35091" /></g><g
       transform="translate(-612,0)"
       id="g35137"><g
         clip-path="url(#clipPath35141)"
         id="g35139" /></g><g
       transform="translate(-612,0)"
       id="g35157"><g
         clip-path="url(#clipPath35161)"
         id="g35159" /></g><g
       transform="matrix(6.3455293,0,0,6.3455293,-3411.4214,-575.23592)"
       id="g39757"><g
         transform="translate(602.8425,187.5682)"
         id="g35173"><path
           d="m 0,0 c 2.547,-0.076 5.056,-1.691 6.066,-4.08 l 6.211,-13.863 4.922,-11.037 c 0.346,-1.048 0.326,-2.344 0.137,-3.464 l -3.653,-13.498 c -0.828,-2.364 -3.253,-4.268 -5.712,-4.454 l -46.381,0.005 c -2.405,0.153 -4.828,1.817 -5.727,4.112 l -0.51,1.479 -1.918,7.02 -1.48,5.397 c -0.225,1.239 -0.049,2.536 0.34,3.629 l 10.646,24.411 c 0.912,2.468 3.455,4.232 6.055,4.343 L 0,0 z"
           id="path35175"
           style="fill:#1e59ae;fill-opacity:1;fill-rule:nonzero;stroke:none" /><path
           d="m 0,0 c 2.547,-0.076 5.056,-1.691 6.066,-4.08 l 6.211,-13.863 4.922,-11.037 c 0.346,-1.048 0.326,-2.344 0.137,-3.464 l -3.653,-13.498 c -0.828,-2.364 -3.253,-4.268 -5.712,-4.454 l -46.381,0.005 c -2.405,0.153 -4.828,1.817 -5.727,4.112 l -0.51,1.479 -1.918,7.02 -1.48,5.397 c -0.225,1.239 -0.049,2.536 0.34,3.629 l 10.646,24.411 c 0.912,2.468 3.455,4.232 6.055,4.343 L 0,0 z"
           id="path35177"
           style="fill:none;stroke:none" /></g><g
         transform="translate(603.0454,185.1199)"
         id="g35179"><path
           d="m 0,0 c 1.674,-0.129 3.309,-1.524 3.789,-3.117 l 9.775,-21.696 c 0.598,-1.231 1.623,-2.713 1.221,-4.37 L 14.24,-31.42 11.291,-42.324 c -0.385,-1.609 -2.037,-2.906 -3.604,-3.171 l -45.746,-0.009 c -1.457,0.027 -2.765,0.583 -3.648,1.824 -0.883,1.452 -4.221,14.432 -4.221,14.432 -0.16,1.268 0.348,2.378 0.83,3.435 l 8.254,18.854 2.026,4.589 c 0.834,1.497 2.416,2.279 4.011,2.374 L 0,0 z"
           id="path35181"
           style="fill:#ffffff;fill-opacity:1;fill-rule:nonzero;stroke:none" /><path
           d="m 0,0 c 1.674,-0.129 3.309,-1.524 3.789,-3.117 l 9.775,-21.696 c 0.598,-1.231 1.623,-2.713 1.221,-4.37 L 14.24,-31.42 11.291,-42.324 c -0.385,-1.609 -2.037,-2.906 -3.604,-3.171 l -45.746,-0.009 c -1.457,0.027 -2.765,0.583 -3.648,1.824 -0.883,1.452 -4.221,14.432 -4.221,14.432 -0.16,1.268 0.348,2.378 0.83,3.435 l 8.254,18.854 2.026,4.589 c 0.834,1.497 2.416,2.279 4.011,2.374 L 0,0 z"
           id="path35183"
           style="fill:none;stroke:none" /></g><g
         transform="translate(587.4126,165.5653)"
         id="g35185"><path
           d="m 0,0 5.729,14.772 8.705,0.004 7.726,-25.176 -10.658,0.001 -1.187,13.823 -6.907,-13.823 -6.744,-0.008 -6.986,13.716 -1.145,-13.708 -10.638,-0.007 7.488,25.169 8.723,0.004 L 0,0 z"
           id="path35187"
           style="fill:#ed114c;fill-opacity:1;fill-rule:nonzero;stroke:none" /><path
           d="m 0,0 5.729,14.772 8.705,0.004 7.726,-25.176 -10.658,0.001 -1.187,13.823 -6.907,-13.823 -6.744,-0.008 -6.986,13.716 -1.145,-13.708 -10.638,-0.007 7.488,25.169 8.723,0.004 L 0,0 z"
           id="path35189"
           style="fill:none;stroke:none" /></g><g
         transform="translate(566.9866,148.4081)"
         id="g35191"><path
           d="M 0,0 0.756,3.628 2.961,3.626 3.846,-3.41 2.137,-3.412 1.608,1.139 C 1.327,-0.358 1.114,-1.908 0.87,-3.412 L -0.906,-3.418 -1.66,1.115 C -1.873,-0.379 -2.013,-1.914 -2.191,-3.418 L -3.927,-3.421 -2.963,3.633 -0.755,3.628 0,0 z"
           id="path35193"
           style="fill:#1e59ae;fill-opacity:1;fill-rule:nonzero;stroke:none" /><path
           d="M 0,0 0.756,3.628 2.961,3.626 3.846,-3.41 2.137,-3.412 1.608,1.139 C 1.327,-0.358 1.114,-1.908 0.87,-3.412 L -0.906,-3.418 -1.66,1.115 C -1.873,-0.379 -2.013,-1.914 -2.191,-3.418 L -3.927,-3.421 -2.963,3.633 -0.755,3.628 0,0 z"
           id="path35195"
           style="fill:none;stroke:none" /></g><g
         transform="translate(576.9365,144.9901)"
         id="g35197"><path
           d="m 0,0 -1.801,0.01 -0.207,1.219 -1.645,0.01 -0.242,-1.232 -1.738,-0.008 1.463,7.046 2.638,0 L 0,0 z"
           id="path35199"
           style="fill:#1e59ae;fill-opacity:1;fill-rule:nonzero;stroke:none" /><path
           d="m 0,0 -1.801,0.01 -0.207,1.219 -1.645,0.01 -0.242,-1.232 -1.738,-0.008 1.463,7.046 2.638,0 L 0,0 z"
           id="path35201"
           style="fill:none;stroke:none" /></g><g
         transform="translate(581.5376,151.8241)"
         id="g35203"><path
           d="M 0,0 C 1.018,-0.51 0.979,-1.778 0.918,-2.727 0.809,-3.243 0.61,-3.873 0.027,-4.056 l 0.002,-0.188 0.985,-2.584 -1.738,-0.007 c 0,0 -0.846,2.496 -0.85,2.514 -0.123,0.065 -0.33,0.064 -0.453,-0.003 l 0,-2.51 -1.686,0.01 0.006,7.032 c 0,0 2.664,0.225 3.707,-0.208"
           id="path35205"
           style="fill:#1e59ae;fill-opacity:1;fill-rule:nonzero;stroke:none" /><path
           d="M 0,0 C 1.018,-0.51 0.979,-1.778 0.918,-2.727 0.809,-3.243 0.61,-3.873 0.027,-4.056 l 0.002,-0.188 0.985,-2.584 -1.738,-0.007 c 0,0 -0.846,2.496 -0.85,2.514 -0.123,0.065 -0.33,0.064 -0.453,-0.003 l 0,-2.51 -1.686,0.01 0.006,7.032 c 0,0 2.664,0.225 3.707,-0.208 z"
           id="path35207"
           style="fill:none;stroke:none" /></g><g
         transform="translate(604.4985,151.4383)"
         id="g35209"><path
           d="m 0,0 c 0.777,-1.092 0.639,-2.652 0.59,-4.004 -0.057,-0.968 -0.406,-2.069 -1.447,-2.377 -1.086,-0.279 -2.215,-0.305 -3.129,0.364 -1.041,1.035 -0.733,2.737 -0.772,4.163 0.069,0.844 0.252,1.729 1.037,2.214 C -2.654,0.935 -0.965,0.923 0,0"
           id="path35211"
           style="fill:#1e59ae;fill-opacity:1;fill-rule:nonzero;stroke:none" /><path
           d="m 0,0 c 0.777,-1.092 0.639,-2.652 0.59,-4.004 -0.057,-0.968 -0.406,-2.069 -1.447,-2.377 -1.086,-0.279 -2.215,-0.305 -3.129,0.364 -1.041,1.035 -0.733,2.737 -0.772,4.163 0.069,0.844 0.252,1.729 1.037,2.214 C -2.654,0.935 -0.965,0.923 0,0 z"
           id="path35213"
           style="fill:none;stroke:none" /></g><g
         transform="translate(593.0665,150.538)"
         id="g35215"><path
           d="m 0,0 -1.519,0 -0.006,-5.541 -1.684,0.003 -10e-4,5.548 -1.516,0 0.002,1.505 L 0,1.514 0,0 z"
           id="path35217"
           style="fill:#1e59ae;fill-opacity:1;fill-rule:nonzero;stroke:none" /><path
           d="m 0,0 -1.519,0 -0.006,-5.541 -1.684,0.003 -10e-4,5.548 -1.516,0 0.002,1.505 L 0,1.514 0,0 z"
           id="path35219"
           style="fill:none;stroke:none" /></g><g
         transform="translate(595.4246,149.2372)"
         id="g35221"><path
           d="m 0,0 1.512,-0.011 0.007,2.82 1.725,0.005 0,-7.054 -1.723,-0.008 0,2.745 L 0.002,-1.504 -0.008,-4.236 -1.74,-4.239 -1.735,2.814 -0.01,2.817 0,0 z"
           id="path35223"
           style="fill:#1e59ae;fill-opacity:1;fill-rule:nonzero;stroke:none" /><path
           d="m 0,0 1.512,-0.011 0.007,2.82 1.725,0.005 0,-7.054 -1.723,-0.008 0,2.745 L 0.002,-1.504 -0.008,-4.236 -1.74,-4.239 -1.735,2.814 -0.01,2.817 0,0 z"
           id="path35225"
           style="fill:none;stroke:none" /></g><g
         transform="translate(609.7095,147.5311)"
         id="g35227"><path
           d="m 0,0 0.002,4.521 1.574,0 0,-7.067 -2.314,0 -1.229,4.241 0,-4.241 -1.515,0 0,7.067 2.31,0 L 0,0 z"
           id="path35229"
           style="fill:#1e59ae;fill-opacity:1;fill-rule:nonzero;stroke:none" /><path
           d="m 0,0 0.002,4.521 1.574,0 0,-7.067 -2.314,0 -1.229,4.241 0,-4.241 -1.515,0 0,7.067 2.31,0 L 0,0 z"
           id="path35231"
           style="fill:none;stroke:none" /></g><g
         transform="translate(574.6455,147.5603)"
         id="g35233"><path
           d="M 0,0 -1.106,0.004 -0.538,3.01 C -0.303,2.054 -0.176,1.004 0,0"
           id="path35235"
           style="fill:#ffffff;fill-opacity:1;fill-rule:nonzero;stroke:none" /><path
           d="M 0,0 -1.106,0.004 -0.538,3.01 C -0.303,2.054 -0.176,1.004 0,0 z"
           id="path35237"
           style="fill:none;stroke:none" /></g><g
         transform="translate(580.5044,150.4637)"
         id="g35239"><path
           d="M 0,0 C 0.293,-0.325 0.314,-0.87 0.168,-1.265 0.066,-1.407 0.006,-1.568 -0.252,-1.607 l -0.705,-0.007 -0.002,1.733 c 0,0 0.705,0.069 0.959,-0.119"
           id="path35241"
           style="fill:#ffffff;fill-opacity:1;fill-rule:nonzero;stroke:none" /><path
           d="M 0,0 C 0.293,-0.325 0.314,-0.87 0.168,-1.265 0.066,-1.407 0.006,-1.568 -0.252,-1.607 l -0.705,-0.007 -0.002,1.733 c 0,0 0.705,0.069 0.959,-0.119 z"
           id="path35243"
           style="fill:none;stroke:none" /></g><g
         transform="translate(603.0686,150.4999)"
         id="g35245"><path
           d="M 0,0 C 0.481,-0.844 0.26,-2.298 0.223,-3.417 0.166,-3.689 0.112,-4 -0.15,-4.142 c -0.32,-0.143 -0.805,-0.146 -1.088,0.086 -0.264,0.35 -0.228,0.432 -0.299,0.865 -0.148,0.907 -0.273,2.301 0.205,3.133 C -1.017,0.274 -0.341,0.307 0,0"
           id="path35247"
           style="fill:#ffffff;fill-opacity:1;fill-rule:nonzero;stroke:none" /><path
           d="M 0,0 C 0.481,-0.844 0.26,-2.298 0.223,-3.417 0.166,-3.689 0.112,-4 -0.15,-4.142 c -0.32,-0.143 -0.805,-0.146 -1.088,0.086 -0.264,0.35 -0.228,0.432 -0.299,0.865 -0.148,0.907 -0.273,2.301 0.205,3.133 C -1.017,0.274 -0.341,0.307 0,0 z"
           id="path35249"
           style="fill:none;stroke:none" /></g><g
         transform="translate(588.6255,144.9901)"
         id="g35251"><path
           d="m 0,0 -1.801,0.01 -0.207,1.219 -1.64,0.01 -0.245,-1.232 -1.738,-0.008 1.461,7.046 2.639,0 L 0,0 z"
           id="path35253"
           style="fill:#1e59ae;fill-opacity:1;fill-rule:nonzero;stroke:none" /><path
           d="m 0,0 -1.801,0.01 -0.207,1.219 -1.64,0.01 -0.245,-1.232 -1.738,-0.008 1.461,7.046 2.639,0 L 0,0 z"
           id="path35255"
           style="fill:none;stroke:none" /></g><g
         transform="translate(586.3385,147.5603)"
         id="g35257"><path
           d="m 0,0 -1.109,0.004 0.57,3.006 C -0.307,2.054 -0.176,1.004 0,0"
           id="path35259"
           style="fill:#ffffff;fill-opacity:1;fill-rule:nonzero;stroke:none" /><path
           d="m 0,0 -1.109,0.004 0.57,3.006 C -0.307,2.054 -0.176,1.004 0,0 z"
           id="path35261"
           style="fill:none;stroke:none" /></g><g
         transform="translate(619.7905,139.1727)"
         id="g35263"
         style="fill:#1e59ae;fill-opacity:1"><path
           d="m 0,0 c 0.28,0 0.53,0.021 0.53,0.356 0,0.269 -0.245,0.32 -0.474,0.32 l -0.45,0 L -0.394,0 0,0 z m -0.394,-1.225 -0.331,0 0,2.18 0.831,0 c 0.514,0 0.769,-0.189 0.769,-0.62 0,-0.39 -0.245,-0.56 -0.564,-0.6 l 0.62,-0.96 -0.37,0 -0.576,0.946 -0.379,0 0,-0.946 z M 0.005,-1.71 c 0.855,0 1.53,0.67 1.53,1.58 0,0.896 -0.675,1.57 -1.53,1.57 -0.864,0 -1.54,-0.674 -1.54,-1.57 0,-0.91 0.676,-1.58 1.54,-1.58 m -1.92,1.58 c 0,1.085 0.88,1.885 1.92,1.885 1.03,0 1.91,-0.8 1.91,-1.885 0,-1.095 -0.88,-1.894 -1.91,-1.894 -1.04,0 -1.92,0.799 -1.92,1.894"
           id="path35265"
           style="fill:#1e59ae;fill-opacity:1;fill-rule:nonzero;stroke:none" /></g></g><g
       transform="translate(-612,0)"
       id="g35387"><g
         clip-path="url(#clipPath35391)"
         id="g35389" /></g><g
       transform="translate(-612,0)"
       id="g35407"><g
         clip-path="url(#clipPath35411)"
         id="g35409" /></g><g
       transform="translate(-612,0)"
       id="g35517"><g
         clip-path="url(#clipPath35521)"
         id="g35519" /></g><g
       transform="translate(-575.851,810.024)"
       id="g35537" /><g
       transform="translate(-612,0)"
       id="g35539"><g
         clip-path="url(#clipPath35543)"
         id="g35541" /></g></g></svg>