<?xml version="1.0" encoding="UTF-8" standalone="no"?>
<svg xmlns:rdf="http://www.w3.org/1999/02/22-rdf-syntax-ns#" xmlns="http://www.w3.org/2000/svg" viewBox="0 0 299.99999 91.416826" width="84.667mm" version="1.1" xmlns:cc="http://creativecommons.org/ns#" height="25.8mm" xmlns:dc="http://purl.org/dc/elements/1.1/">
 <defs>
  <clipPath id="a" clipPathUnits="userSpaceOnUse">
   <path d="m414.14 728.34h132.63v40.416h-132.63v-40.416z"/>
  </clipPath>
 </defs>
 <g transform="translate(-311.39 -654.78)">
  <g transform="matrix(2.2619 0 0 -2.2619 -625.37 2393.6)">
   <g clip-path="url(#a)">
    <g transform="translate(433.67 733.34)">
     <path d="m0 0c-0.506 0-0.99-0.221-1.211-0.558-0.221-0.326-0.316-0.789-0.316-1.474 0-0.768 0.147-1.358 0.379-1.758 0.211-0.358 0.663-0.558 1.263-0.558 0.663 0 1.116 0.263 1.327 0.779 0.148 0.358 0.2 0.684 0.2 1.274 0 0.747-0.084 1.211-0.273 1.58-0.274 0.515-0.748 0.715-1.369 0.715m0.031 0.685c0.905 0 1.516-0.306 1.979-0.875 0.39-0.473 0.58-1.115 0.58-2 0-0.916-0.169-1.516-0.559-1.979-0.473-0.58-1.031-0.831-1.937-0.831-0.831 0-1.358 0.21-1.821 0.726-0.505 0.568-0.737 1.231-0.737 2.137 0 1.748 0.948 2.822 2.495 2.822" fill="#6f6d6b"/>
    </g>
    <g transform="translate(440.69 733.93)">
     <path d="m0 0h0.968l1.79-2.99c0.358-0.6 0.674-1.242 0.705-1.285 0 0-0.084 0.78-0.094 1.507l-0.032 2.768h0.821v-5.496h-0.873l-1.769 2.917c-0.348 0.568-0.769 1.432-0.769 1.432 0.021-0.222 0.053-0.727 0.063-1.527l0.053-2.822h-0.863v5.496z" fill="#6f6d6b"/>
    </g>
    <g transform="translate(450.17 733.93)">
     <path d="m0 0h0.842v-4.791h2.401l-0.116-0.705h-3.127v5.496z" fill="#6f6d6b"/>
    </g>
    <path d="m458.37 733.92h0.843v-5.496h-0.843v5.496z" fill="#6f6d6b"/>
    <g transform="translate(465.23 733.93)">
     <path d="m0 0h0.969l1.79-2.99c0.357-0.6 0.673-1.242 0.705-1.285 0 0-0.084 0.78-0.095 1.507l-0.031 2.768h0.821v-5.496h-0.874l-1.768 2.917c-0.349 0.568-0.77 1.432-0.77 1.432 0.022-0.222 0.053-0.727 0.064-1.527l0.052-2.822h-0.863v5.496z" fill="#6f6d6b"/>
    </g>
    <g transform="translate(474.07 733.93)">
     <path d="m0 0h3.421l-0.115-0.706h-2.464v-1.568h2.063v-0.706h-2.052v-1.779h2.663v-0.737h-3.516v5.496z" fill="#6f6d6b"/>
    </g>
    <g transform="translate(490.2 730.94)">
     <path d="m0 0v-1.811h1.031c0.39 0 0.685 0.032 0.886 0.115 0.283 0.117 0.484 0.443 0.484 0.78 0 0.431-0.253 0.684-0.527 0.8-0.211 0.084-0.548 0.116-0.821 0.116h-1.053zm0 2.274v-1.58h1.022c0.61 0 0.83 0.096 1.01 0.411 0.063 0.117 0.095 0.242 0.095 0.368 0 0.306-0.169 0.527-0.369 0.643-0.199 0.115-0.516 0.158-0.831 0.158h-0.927zm-0.821 0.716h1.526c0.769 0 1-0.022 1.295-0.116 0.62-0.2 1.043-0.684 1.043-1.263 0-0.337-0.158-0.664-0.442-0.895-0.17-0.138-0.39-0.252-0.643-0.306 0.316-0.042 0.579-0.136 0.801-0.305 0.348-0.253 0.547-0.663 0.547-1.084 0-0.6-0.421-1.158-1.032-1.379-0.389-0.137-0.653-0.148-1.285-0.148h-1.81v5.496z" fill="#6f6d6b"/>
    </g>
    <g transform="translate(499.37 733.23)">
     <path d="m0 0v-1.811h0.569c0.6 0 0.905 0.063 1.137 0.242 0.189 0.148 0.305 0.39 0.305 0.706 0 0.368-0.232 0.663-0.579 0.768-0.2 0.063-0.443 0.095-0.769 0.095h-0.663zm-0.843 0.695h1.474c0.906 0 1.264-0.084 1.58-0.284 0.399-0.253 0.674-0.717 0.674-1.243 0-0.968-0.611-1.537-1.665-1.547 0.107-0.053 0.223-0.148 0.296-0.243 0.169-0.21 0.517-0.631 0.821-1.031 0.326-0.432 0.874-1.148 0.874-1.148h-1.042c-0.127 0.242-0.317 0.548-0.495 0.821-0.411 0.621-0.747 1.032-1.052 1.306-0.211 0.189-0.37 0.253-0.622 0.274v-2.401h-0.843v5.496z" fill="#6f6d6b"/>
    </g>
    <g transform="translate(509.15 733.34)">
     <path d="m0 0c-0.506 0-0.991-0.221-1.211-0.558-0.222-0.326-0.316-0.789-0.316-1.474 0-0.768 0.147-1.358 0.379-1.758 0.211-0.358 0.663-0.558 1.263-0.558 0.664 0 1.116 0.263 1.327 0.779 0.147 0.358 0.2 0.684 0.2 1.274 0 0.747-0.084 1.211-0.274 1.58-0.274 0.515-0.747 0.715-1.368 0.715m0.031 0.685c0.906 0 1.516-0.306 1.978-0.875 0.391-0.473 0.58-1.115 0.58-2 0-0.916-0.169-1.516-0.558-1.979-0.473-0.58-1.031-0.831-1.937-0.831-0.831 0-1.358 0.21-1.821 0.726-0.505 0.568-0.738 1.231-0.738 2.137 0 1.748 0.948 2.822 2.496 2.822" fill="#6f6d6b"/>
    </g>
    <g transform="translate(516.71 733.93)">
     <path d="m0 0h0.852v-2.548l2.263 2.548h1.075l-2.4-2.558 2.431-2.938h-1.095l-2.274 2.895v-2.895h-0.852v5.496z" fill="#6f6d6b"/>
    </g>
    <g transform="translate(525.84 733.93)">
     <path d="m0 0h3.422l-0.115-0.706h-2.464v-1.568h2.063v-0.706h-2.053v-1.779h2.663v-0.737h-3.516v5.496z" fill="#6f6d6b"/>
    </g>
    <g transform="translate(535.43 733.24)">
     <path d="m0 0v-1.811h0.568c0.6 0 0.905 0.063 1.137 0.242 0.189 0.148 0.305 0.39 0.305 0.706 0 0.368-0.231 0.663-0.578 0.769-0.201 0.062-0.443 0.094-0.769 0.094h-0.663zm-0.843 0.695h1.474c0.906 0 1.263-0.084 1.579-0.284 0.4-0.253 0.675-0.716 0.675-1.242 0-0.969-0.612-1.538-1.665-1.548 0.107-0.053 0.223-0.148 0.296-0.243 0.168-0.21 0.516-0.631 0.821-1.031 0.326-0.432 0.874-1.148 0.874-1.148h-1.043c-0.125 0.243-0.316 0.548-0.494 0.821-0.411 0.621-0.749 1.032-1.054 1.306-0.21 0.19-0.368 0.253-0.62 0.274v-2.401h-0.843v5.496z" fill="#6f6d6b"/>
    </g>
    <g transform="translate(415.82 758.72)">
     <path d="m0 0c-0.931 0-1.682 0.751-1.682 1.682 0 0.932 0.751 1.683 1.682 1.683h15.435v1.652c0 2.763 2.253 5.016 5.017 5.016h3.334c0.931 0 1.682-0.75 1.682-1.682 0-0.901-0.751-1.652-1.682-1.652h-3.334c-0.932 0-1.683-0.751-1.683-1.682v-1.652h5.017c0.931 0 1.682-0.751 1.682-1.683 0-0.931-0.751-1.682-1.682-1.682h-5.017v-11.655c0-0.931-0.751-1.682-1.652-1.682-0.931 0-1.682 0.751-1.682 1.682v11.655h-15.435z" fill="#252120"/>
    </g>
    <g transform="translate(445.8 750.4)">
     <path d="m0 0v16.672c0 0.931 0.751 1.682 1.682 1.682 0.901 0 1.652-0.751 1.652-1.682v-16.672c0-0.931 0.751-1.682 1.683-1.682h1.652c0.931 0 1.682-0.751 1.682-1.652 0-0.932-0.751-1.682-1.682-1.682h-1.652c-2.764 0-5.017 2.252-5.017 5.016" fill="#252120"/>
    </g>
    <g transform="translate(470.79 748.72)">
     <path d="m0 0v3.335h-8.321c-0.931 0-1.682-0.752-1.682-1.653 0-0.931 0.751-1.682 1.682-1.682h8.321zm-1.652 13.368c2.764 0 5.016-2.254 5.016-5.017v-10.003c0-0.931-0.751-1.682-1.682-1.682h-10.003c-2.764 0-5.016 2.252-5.016 5.016s2.252 4.987 5.016 4.987h8.321v1.682c0 0.932-0.72 1.652-1.652 1.652h-6.669c-0.931 0-1.682 0.751-1.682 1.682 0 0.932 0.751 1.683 1.682 1.683h6.669z" fill="#252120"/>
    </g>
    <g transform="translate(483.83 750.4)">
     <path d="m0 0v8.321h-4.986c-0.931 0-1.682 0.751-1.682 1.682s0.751 1.682 1.682 1.682h4.986v4.987c0 0.931 0.751 1.682 1.682 1.682 0.902 0 1.652-0.751 1.652-1.682v-4.987h5.017c0.932 0 1.683-0.751 1.683-1.682s-0.751-1.682-1.683-1.682h-5.017v-8.321c0-0.931 0.752-1.682 1.683-1.682h3.334c0.932 0 1.683-0.751 1.683-1.652 0-0.932-0.751-1.682-1.683-1.682h-3.334c-2.764 0-5.017 2.252-5.017 5.016" fill="#252120"/>
    </g>
    <g transform="translate(544.5 756.12)">
     <path d="m0 0c-1.29 0-2.307-1.017-2.307-2.307 0-1.252 1.017-2.307 2.307-2.307 1.252 0 2.268 1.055 2.268 2.307 0 1.29-1.016 2.307-2.268 2.307" fill="#252120"/>
    </g>
    <g transform="translate(510.49 756.12)">
     <path d="m0 0c-1.291 0-2.309-1.017-2.309-2.307 0-1.252 1.018-2.307 2.309-2.307 1.251 0 2.268 1.055 2.268 2.307 0 1.29-1.017 2.307-2.268 2.307" fill="#f36318"/>
    </g>
    <g transform="translate(514.84 749.79)">
     <path d="m0 0h-10.365v8.057h10.404c1.29 0 2.307 1.016 2.307 2.307 0 1.251-1.056 2.268-2.307 2.268h-12.671c-1.292 0-2.307-1.017-2.307-2.308v-12.632c0-1.251 1.015-2.267 2.307-2.267h12.632c1.29 0 2.268 1.016 2.268 2.306 0 1.252-1.017 2.269-2.268 2.269" fill="#f36318"/>
    </g>
    <g transform="translate(537.64 761.79)">
     <path d="m0 0c0.9-0.899 0.9-2.347 0-3.246l-4.692-4.693 4.731-4.693c0.901-0.899 0.861-2.346-0.039-3.246-0.899-0.9-2.346-0.9-3.245 0l-4.692 4.694-4.694-4.694c-0.901-0.9-2.348-0.9-3.247 0s-0.899 2.347 0 3.246l4.693 4.693-4.693 4.693c-0.899 0.899-0.899 2.347 0 3.246 0.899 0.9 2.386 0.9 3.247 0l4.694-4.693 4.692 4.693c0.899 0.9 2.346 0.9 3.245 0" fill="#f36318"/>
    </g>
   </g>
  </g>
 </g>
</svg>
