<?xml version="1.0" encoding="UTF-8"?>
<svg width="752.21pt" height="249.05pt" version="1.1" viewBox="0 0 752.21 249.05" xmlns="http://www.w3.org/2000/svg">
 <g fill-rule="evenodd">
  <g transform="translate(-44.842 -173.11)" fill="#05248e">
   <path d="m415.48 173.11h45.15v94.671h-45.15z"/>
   <path d="m44.842 280.1v5.1585c7.7131 0.7888 10.802 2.0145 11.682 6.5236 0.4975 1.2016 0.4975 2.9979 0.6069 5.1582-3e-4 27.656 0 55.354 0 82.989-0.2551 4.9578-1.2867 7.5433-5.0069 8.7993-1.9539 0.5888-4.2842 0.8133-7.2822 1.3655v5.1585h43.694v-5.1585c-3.6836-0.5522-6.7059-0.7767-8.7996-1.3655-4.9943-1.256-6.1534-3.8412-6.5236-8.7993v-42.177h5.1582c7.41 0.2974 11.773 3.7987 14.565 11.53 0.8801 2.6518 1.5718 5.9959 2.124 9.5582h5.1585v-48.094h-5.1585c-0.4428 2.9797-1.1104 5.7713-1.5171 8.041-2.9917 8.7996-7.2822 12.823-15.172 13.048h-5.1582v-34.895c0.2185-2.154 0.54-3.9688 1.5171-5.1582 1.3291-3.8778 5.5468-5.1766 14.565-5.0065 6.5299-0.1701 11.615 1.5352 15.93 5.0065 2.6277 2.1059 4.9156 5.2495 6.524 8.7996 2.7609 5.1888 4.4966 11.366 5.9167 18.206-0.0728 1.7844 0.1517 3.3803 0 5.0066h5.7651v-43.694z"/>
   <path d="m129.35 280.1v5.1585c8.1018 0.7888 11.075 2.0145 12.289 6.5236 0.0312 29.341 0 58.78 0 88.147 0.1395 4.9578-0.8921 7.5433-5.0066 8.7993-1.5596 0.5888-3.8962 0.8133-7.2825 1.3655v5.1585h41.418v-5.1585c-3.2165-0.5522-5.5528-0.7767-7.2825-1.3655-3.9444-1.256-4.9762-3.8412-5.0066-8.7993v-40.812h8.648c7.7071-0.1579 11.852 3.028 13.806 10.165 0.7889 3.1071 1.2257 7.1428 1.5171 11.682-0.2851 0.3399-0.2851 0.3883 0 0.7585-0.2851 2.7613-0.1882 5.8805 0 8.7996 0.3033 3.2346 0.7767 6.2447 1.5171 9.4065 0.6191 3.113 1.6325 6.2566 2.8826 8.7993 2.81 4.8246 6.6756 7.6587 12.289 7.8894 5.7107-0.2307 9.6491-3.0345 12.441-7.8894 1.0318-2.5486 1.942-5.6863 2.8826-8.7993 0.1578-3.1558 0.4612-6.1597 0.7585-9.4065v-6.6756h-5.7651c0.2489 2.3667 0.176 4.7398 0 6.6756-0.1517 4.163-0.534 7.0155-0.7585 9.4065-1.1713 3.3497-2.5793 4.1933-4.4 4.3997-1.9236-0.2064-3.0464-1.317-3.6411-4.3997-0.4187-1.9482-0.6797-4.0479-0.7585-6.5239-0.1276-1.1894-0.182-2.0208 0-2.8826-0.4916-3.3741-0.7526-6.5055-1.3655-9.5581-0.6916-4.6848-1.9054-8.6539-3.6411-11.682-3.0645-6.5177-7.956-9.3943-13.958-11.53 4.4785-0.3339 9.0241-1.578 13.199-3.6414 5.923-3.2102 10.626-8.5081 13.048-15.323 1.1832-3.0402 1.8752-6.5299 1.5172-10.165 0.358-2.8401 0.0425-5.4618-0.7586-8.0408-0.625-3.2102-2.0877-6.3357-4.3999-8.7996-2.9736-4.2298-7.689-7.3128-14.565-9.4065-4.6001-1.341-10.529-2.2391-17.447-2.2756zm40.66 5.1585c6.3476 0.2851 11.779 2.4029 15.323 6.5236 2.6762 2.1787 4.5453 5.3039 5.917 8.7996 0.4246 2.6762 0.6979 5.3949 0.6066 8.6477 0.091 3.5438-0.1638 6.8879-0.6066 9.5581-3.1192 10.717-11.379 14.892-24.881 14.565h-7.8894c-8e-4 -13.855 0-27.721 0-41.57 1.232-4.5879 5.0794-6.2385 11.53-6.5236z"/>
   <path d="m259.67 277.22c-6.0383 0.2792-11.937 2.1059-16.841 5.1582-4.2055 2.4701-7.7556 5.4862-10.924 9.4065-2.3182 2.4942-4.4056 5.6075-6.5237 8.7996-2.7978 5.5468-5.1582 11.7-6.5236 18.206-1.3473 4.9643-2.0027 10.08-2.1243 15.323-0.1516 1.2079-0.182 2.4033 0 3.6414-0.182 3.9263-0.0241 7.6828 0.6069 11.53 0.4915 4.1023 1.5233 8.1746 3.0345 11.682 0.6613 3.526 1.8144 6.6756 2.8825 9.5581 1.8267 3.2772 3.5258 6.2688 5.7651 9.4065 2.1362 3.113 4.8793 6.2263 8.0411 8.7993 6.4267 5.7773 14.286 9.0607 22.606 9.4065 8.4535-0.3461 16.318-3.6292 22.606-9.4065 3.2952-2.573 5.923-5.6863 8.6479-8.7993 1.6444-3.1377 3.4651-6.1293 5.1582-9.4065 1.2016-2.8825 2.3851-6.0321 3.6414-9.5581 0.9224-3.5076 1.766-7.5796 2.124-11.682 0.7645-3.8474 1.074-7.6039 0.7585-11.53 0.3155-1.2381 0.2912-2.4335 0-3.6414 0.0182-5.2432-0.6372-10.359-2.124-15.323-1.2319-6.5055-3.7445-12.659-6.6755-18.206-1.9783-3.1921-4.0661-6.3054-6.5237-8.7996-3.0345-3.9203-6.5543-6.9364-10.165-9.4065-5.4922-3.0523-11.276-4.879-17.447-5.1582zm0 6.5237c6.2932 0.0666 11.506 2.4639 15.323 8.041 1.9357 2.1909 3.38 5.2676 5.0065 8.7996 1.3473 5.0006 2.5914 11.02 3.6411 18.206 0.176 4.6729 0.4856 9.7523 0.7586 15.323-0.1758 1.1895-0.1639 2.3851 0 3.6414-0.1639 4.0901-0.2974 7.8222-0.7586 11.53 0.0182 4.3087-0.4005 8.3688-0.7585 11.682-0.6616 3.6898-1.2076 6.815-2.124 9.5581-0.7404 3.5258-1.8326 6.4996-2.8826 9.4065-2.3607 3.8475-4.9762 6.8817-8.041 8.7993-2.9373 1.8936-6.3051 2.7431-10.165 2.8826-3.7202-0.1395-7.0883-0.989-10.165-2.8826-2.9251-1.9176-5.5103-4.9518-7.2825-8.7993-1.6444-2.9069-2.7612-5.8807-3.6411-9.4065-0.7767-2.7431-1.4746-5.8683-2.2757-9.5581-0.2245-3.3134-0.6434-7.3735-0.7585-11.682-0.328-3.708-0.3036-7.4401-0.6069-11.53 0.3033-1.2563 0.3095-2.4519 0-3.6414 0.4127-5.5649 0.6006-10.644 1.3654-15.323 0.4612-7.1853 1.6991-13.205 3.6411-18.206 1.0378-3.532 2.6034-6.6087 4.3997-8.7996 3.9569-5.5769 9.1638-7.9741 15.324-8.041z"/>
   <path d="m298.97 280.1v5.1585c8.3627 0.2851 12.313 2.931 13.806 6.5236 0.0791 0.6313 0.2248 1.6081 0 2.2757 3e-4 28.599 0 57.352 0 85.871-0.1395 3.7321-2.215 7.1243-7.2822 8.7993-1.8085 0.5706-3.8475 0.8558-6.5239 1.3655v5.1585h35.653v-5.1585c-2.8704-0.5097-5.1826-0.7949-7.2822-1.3655-5.4984-1.675-7.6587-5.0672-8.0411-8.7993v-75.706l55.376 92.395h5.917v-99.678c0.2426-1.9417 0.4975-3.7987 1.3654-5.1582 1.5475-3.5198 5.1523-5.7895 11.682-6.5236v-5.1585h-32.77v5.1585c7.0092 0.7341 10.79 3.0038 12.441 6.5236 0.8376 1.3595 1.0925 3.2165 1.3655 5.1582v68.424h-0.7586l-49.46-82.988-0.7585-2.2756z"/>
   <path d="m398.04 280.1v43.694h5.7651v-3.6411c-0.267-0.6132-0.267-0.874 0-1.3655-0.1698-7.0577 0.8558-13.133 2.8826-18.206 1.3533-3.5441 3.3985-6.6512 5.917-8.7996 3.9992-4.2236 9.3456-6.2385 15.93-6.5236h1.5171v94.671c-0.4065 5.0066-2.482 7.5067-7.2822 8.7993-2.0818 0.51-4.3937 0.7467-7.2825 1.3655v5.1585h45.211v-5.1585c-2.5546-0.6188-5.0551-0.8555-6.6753-1.3655-5.4377-1.2926-7.3976-3.7927-7.8894-8.7993v-94.671h1.3654c6.6756 0.2851 12.168 2.3 16.082 6.5236 2.6033 2.1484 4.4969 5.2555 5.7651 8.7996 2.1118 5.0672 3.1374 11.148 2.8826 18.206v5.0066h5.917v-43.694z"/>
   <path d="m484.67 280.1v5.1585c7.9198 0.7888 11.039 2.0145 12.441 6.5236 3e-3 29.376 0 58.786 0 88.147-0.0484 4.9578-1.2319 7.5433-5.1582 8.7993-1.7419 0.5888-4.0782 0.8133-7.2825 1.3655v5.1585h76.465v-46.577h-5.1585c-0.0122 0.0304-0.0303 0.2005 0 0.6069-0.3824 4.345-0.9346 8.3991-2.124 11.682-0.4612 3.7383-1.4442 6.8757-2.8825 9.5581-1.2986 3.623-3.2165 6.5724-5.1582 9.4065-4.0661 4.4541-8.733 7.4035-13.806 8.7993-2.1968 0.7648-4.7154 1.0137-7.2825 1.3655-2.385-0.3518-4.3512-0.6251-5.7651-1.3655-3.6351-1.4805-5.2129-4.6423-5.1585-8.7993-8e-3 -29.195 0-58.838 0-88.147 1.2623-4.5091 4.4484-5.7348 13.048-6.5236v-5.1585z"/>
   <path d="m566.29 280.1v5.1585c8.2596 0.7888 11.324 2.0145 12.289 6.5236 0.4431 1.2016 0.5948 2.9979 0.7586 5.1582v82.989c-0.3095 4.9578-1.3836 7.5433-5.7651 8.7993-1.5233 0.5888-3.9628 0.8133-7.2825 1.3655v5.1585h42.177v-5.1585c-3.1981-0.5522-5.6741-0.7767-7.2822-1.3655-4.3756-1.256-5.4496-3.8412-5.7654-8.7993v-82.989c0.1701-2.1603 0.1701-3.9566 0.6069-5.1582 0.9589-4.5091 4.1389-5.7348 12.441-6.5236v-5.1585z"/>
   <path d="m614.99 280.1v5.1585c8.2897 0.2851 12.234 2.931 13.806 6.5236 6e-3 0.6313 0.1516 1.6081 0 2.2757v85.871c-0.2186 3.7321-2.2941 7.1243-7.2825 8.7993-1.8814 0.5706-3.9203 0.8558-6.5237 1.3655v5.1585h35.653v-5.1585c-2.9492-0.5097-5.2614-0.7949-7.2822-1.3655-5.5772-1.675-7.5799-5.0672-7.8894-8.7993v-75.706l55.224 92.395h5.9171v-99.678c0.1638-1.9417 0.4186-3.7987 1.3654-5.1582 1.4746-3.5198 5.0794-5.7895 11.682-6.5236v-5.1585h-32.771v5.1585c6.9304 0.7341 10.711 3.0038 12.441 6.5236 0.7648 1.3595 1.0137 3.2165 1.3654 5.1582v68.424h-0.6069l-50.976-85.264z"/>
   <path d="m715.58 280.1v5.1585c7.9744 0.7888 10.942 2.0145 12.289 6.5236v88.147c6e-3 4.9578-1.0256 7.5433-5.0066 8.7993-1.6872 0.5888-4.0235 0.8133-7.2825 1.3655v5.1585h81.471v-45.97h-5.7651c-0.0181 4.5332-0.5706 8.4598-1.5171 11.682-0.534 3.6776-1.4505 6.8213-2.8828 9.5581-1.232 3.5076-3.1434 6.4814-5.1582 9.4065-4.1023 4.1508-9.006 7.2822-15.172 8.7993-2.9188 0.7282-6.2144 1.0137-9.5582 1.3655-2.9675-0.3518-5.2129-0.6432-7.2822-1.3655-3.702-1.5837-5.0187-4.9396-5.0068-8.7993v-42.177h4.2483c7.9982 0.2974 12.428 3.5258 15.323 11.53 0.5885 2.2879 1.2986 5.1282 1.5171 8.0411h5.7651v-45.818h-5.7651c-0.0362 2.8463-0.4674 5.2673-0.7585 7.2822-2.3 8.8906-6.1416 12.823-15.323 13.048h-5.0068v-34.895c-0.2426-2.0693-0.1273-3.8959 0.6069-5.1582 1.4202-4.3027 5.5346-6.2385 14.565-6.5236 6.8819 0.2851 12.319 2.4091 16.082 6.5236 2.9066 2.1665 4.9396 5.3102 6.5236 8.7996 2.5246 5.2192 4.3271 11.379 5.9171 18.206 0.1516 1.7782 0.3517 3.3803 0.6069 5.0066h5.1582v-43.694z"/>
  </g>
  <path d="m382.29 12.38c0.2367 2.5608 0.2367 67.61 0 67.726 0.4249 2.5367 2.7006 2.1603 2.9129 2.1847 2.2515-1.1654 4.9096-4.8187 5.0978-5.8261-0.1882-1.6444-0.1882-43.318 0-42.966-0.5706-2.0572 0.3033-4.5273 2.9129-1.4565 1.2319 1.7538 10.341 12.077 10.195 11.652 5.4802 7.8469 5.0978-4.1023 4.3696-5.8257-0.3824-0.6373-19.802-28.049-19.662-28.401-1.6566-2.4942-5.7773-3.6292-5.8258 2.9129z" fill="#33ca85"/>
  <path d="m370.64 233.76h45.15v15.293h-45.15z" fill="#33ca85"/>
 </g>
</svg>
