<?xml version="1.0" encoding="UTF-8" standalone="no"?>
<svg
   xmlns:dc="http://purl.org/dc/elements/1.1/"
   xmlns:cc="http://creativecommons.org/ns#"
   xmlns:rdf="http://www.w3.org/1999/02/22-rdf-syntax-ns#"
   xmlns:svg="http://www.w3.org/2000/svg"
   xmlns="http://www.w3.org/2000/svg"
   xmlns:sodipodi="http://sodipodi.sourceforge.net/DTD/sodipodi-0.dtd"
   xmlns:inkscape="http://www.inkscape.org/namespaces/inkscape"
   version="1.0"
   width="195.00002"
   height="157.58209"
   id="svg2506"
   sodipodi:docname="Jenoptik-Logo.svg"
   inkscape:version="1.0.2-2 (e86c870879, 2021-01-15)">
  <metadata
     id="metadata27">
    <rdf:RDF>
      <cc:Work
         rdf:about="">
        <dc:format>image/svg+xml</dc:format>
        <dc:type
           rdf:resource="http://purl.org/dc/dcmitype/StillImage" />
        <dc:title></dc:title>
      </cc:Work>
    </rdf:RDF>
  </metadata>
  <sodipodi:namedview
     pagecolor="#ffffff"
     bordercolor="#666666"
     borderopacity="1"
     objecttolerance="10"
     gridtolerance="10"
     guidetolerance="10"
     inkscape:pageopacity="0"
     inkscape:pageshadow="2"
     inkscape:window-width="1600"
     inkscape:window-height="837"
     id="namedview25"
     showgrid="false"
     fit-margin-top="0"
     fit-margin-left="0"
     fit-margin-right="0"
     fit-margin-bottom="0"
     inkscape:zoom="1.4142136"
     inkscape:cx="41.630601"
     inkscape:cy="74.427892"
     inkscape:window-x="-8"
     inkscape:window-y="-8"
     inkscape:window-maximized="1"
     inkscape:current-layer="svg2506" />
  <defs
     id="defs2508" />
  <path
     d="M 0,157.58209 H 194.99999 V 0 H 0 Z"
     id="path45"
     style="fill:#ffffff;fill-opacity:1;fill-rule:nonzero;stroke:none;stroke-width:1.46385" />
  <path
     d="M 0,157.58206 H 195.00001 V 0 H 0 Z"
     id="path47"
     style="fill:#006ea9;fill-opacity:1;fill-rule:nonzero;stroke:none;stroke-width:1.46385" />
  <path
     d="m 113.76342,120.42761 h -2.21774 v -9.8554 h 1.86824 c 3.24793,0 5.22047,1.56267 5.22047,4.90574 0,3.16559 -1.60658,4.94966 -4.87097,4.94966 m 0.62763,-14.00176 h -8.2049 v 29.74368 h 5.3943 v -11.59555 h 3.07409 c 5.67427,0 9.54982,-3.21133 9.54982,-9.09603 0,-6.10793 -4.01645,-9.0521 -9.81331,-9.0521"
     id="path51"
     style="fill:#ffffff;fill-opacity:1;fill-rule:nonzero;stroke:none;stroke-width:1.82982" />
  <path
     d="m 126.29767,110.84303 h 5.88469 v 25.32651 h 5.42907 v -25.32651 h 6.10976 v -4.41718 h -17.42352"
     id="path55"
     style="fill:#ffffff;fill-opacity:1;fill-rule:nonzero;stroke:none;stroke-width:1.82982" />
  <path
     d="m 148.15667,136.16953 h 5.48195 v -29.74368 h -5.48195 z"
     id="path57"
     style="fill:#ffffff;fill-opacity:1;fill-rule:nonzero;stroke:none;stroke-width:1.46385" />
  <path
     d="m 159.47044,136.16953 h 5.48213 V 122.0781 l 8.7813,14.09143 h 6.60015 l -10.7026,-15.78401 9.84625,-13.95968 h -6.2836 l -8.2415,12.88924 v -12.88924 h -5.48213"
     id="path61"
     style="fill:#ffffff;fill-opacity:1;fill-rule:nonzero;stroke:none;stroke-width:1.82982" />
  <path
     d="M 31.478352,136.16953 H 47.34836 v -4.28177 H 36.872654 v -8.96062 h 9.410752 v -4.23603 h -9.410752 v -7.98166 h 10.021911 v -4.28361 H 31.478352"
     id="path65"
     style="fill:#ffffff;fill-opacity:1;fill-rule:nonzero;stroke:none;stroke-width:1.82982" />
  <path
     d="m 14.54339,135.94813 c 1.118019,0.35498 2.40987,0.7118 3.526059,0.7118 6.162825,0 7.577274,-4.28177 7.577274,-9.5425 V 106.42585 H 20.16459 v 20.78124 c 0,2.40804 -0.2086,4.86183 -3.125329,4.86183 -0.69716,0 -1.412619,-0.26899 -2.215909,-0.58189"
     id="path69"
     style="fill:#ffffff;fill-opacity:1;fill-rule:nonzero;stroke:none;stroke-width:1.82982" />
  <path
     d="m 183.58194,51.048252 -0.13907,-1.760285 c -26.46831,-11.096013 -55.36296,-17.25335 -85.864191,-17.25335 -30.413395,0 -59.604476,6.214061 -86.038021,17.25335 l -0.122597,1.760285 c 27.114237,-8.448268 56.27055,-13.072217 86.160618,-13.072217 29.977901,0 58.837791,4.581863 86.003261,13.072217"
     id="path73"
     style="fill:#ffffff;fill-opacity:1;fill-rule:nonzero;stroke:none;stroke-width:1.82982" />
  <path
     d="m 52.638363,136.16953 h 4.731908 v -23.40886 l 9.077725,23.40886 h 7.141779 V 106.42584 H 68.8231 v 23.45644 l -9.061257,-23.45644 h -7.12348"
     id="path77"
     style="fill:#ffffff;fill-opacity:1;fill-rule:nonzero;stroke:none;stroke-width:1.82982" />
  <path
     d="m 89.844045,132.56113 c -4.905741,0 -5.882864,-5.97618 -5.882864,-11.23691 0,-4.59101 0.766694,-11.23691 5.882864,-11.23691 5.394302,0 5.935928,6.55258 5.935928,11.23691 0,4.54893 -0.627627,11.23691 -5.935928,11.23691 m 0,-26.57627 c -8.415331,0 -11.505893,8.02558 -11.505893,15.33936 0,7.44553 2.636767,15.33936 11.505893,15.33936 8.519634,0 11.593725,-7.89383 11.593725,-15.33936 0,-7.40344 -2.585531,-15.33936 -11.593725,-15.33936"
     id="path81"
     style="fill:#ffffff;fill-opacity:1;fill-rule:nonzero;stroke:none;stroke-width:1.82982" />
</svg>
