<?xml version="1.0" encoding="UTF-8" standalone="no"?>
<!-- Created with Inkscape (http://www.inkscape.org/) -->
<svg
   xmlns:svg="http://www.w3.org/2000/svg"
   xmlns="http://www.w3.org/2000/svg"
   version="1.0"
   width="779.52753"
   height="667.20471"
   id="svg2327">
  <defs
     id="defs2329" />
  <g
     transform="translate(80.889993,587.21302)"
     id="layer1">
    <g
       transform="translate(35.433052,35.363834)"
       id="g42472">
      <path
         d="M -80.889993,-232.86382 C -80.889993,-268.32652 -52.140243,-297.07627 -16.668233,-297.07627 C 18.794467,-297.07627 47.544217,-268.32652 47.544217,-232.86382 C 47.544217,-197.40113 18.794467,-168.6513 -16.668233,-168.6513 C -52.140243,-168.6513 -80.889993,-197.40113 -80.889993,-232.86382"
         style="font-size:6px;letter-spacing:0;word-spacing:0;fill:#0062ad;fill-rule:nonzero;stroke:none;font-family:fnt1"
         id="path29276" />
      <path
         d="M 64.173757,-232.86382 C 64.173757,-268.32652 92.923507,-297.07627 128.38621,-297.07627 C 163.8489,-297.07627 192.59873,-268.32652 192.59873,-232.86382 C 192.59873,-197.40113 163.8489,-168.6513 128.38621,-168.6513 C 92.923507,-168.6513 64.173757,-197.40113 64.173757,-232.86382"
         style="font-size:6px;letter-spacing:0;word-spacing:0;fill:#0062ad;fill-rule:nonzero;stroke:none;font-family:fnt1"
         id="path29280" />
      <path
         d="M 209.2282,-232.86382 C 209.2282,-268.32652 237.97802,-297.07627 273.44996,-297.07627 C 308.91266,-297.07627 337.65317,-268.32652 337.65317,-232.86382 C 337.65317,-197.40113 308.91266,-168.6513 273.44996,-168.6513 C 237.97802,-168.6513 209.2282,-197.40113 209.2282,-232.86382"
         style="font-size:6px;letter-spacing:0;word-spacing:0;fill:#0062ad;fill-rule:nonzero;stroke:none;font-family:fnt1"
         id="path29284" />
      <path
         d="M 354.28271,-232.86382 C 354.28271,-268.32652 383.03246,-297.07627 418.50447,-297.07627 C 453.96717,-297.07627 482.71692,-268.32652 482.71692,-232.86382 C 482.71692,-197.40113 453.96717,-168.6513 418.50447,-168.6513 C 383.03246,-168.6513 354.28271,-197.40113 354.28271,-232.86382"
         style="font-size:6px;letter-spacing:0;word-spacing:0;fill:#0062ad;fill-rule:nonzero;stroke:none;font-family:fnt1"
         id="path29288" />
      <path
         d="M 499.3557,-232.86382 C 499.3557,-268.32652 528.09621,-297.07627 563.55891,-297.07627 C 599.0216,-297.07627 627.77143,-268.32652 627.77143,-232.86382 C 627.77143,-197.40113 599.0216,-168.6513 563.55891,-168.6513 C 528.09621,-168.6513 499.3557,-197.40113 499.3557,-232.86382"
         style="font-size:6px;letter-spacing:0;word-spacing:0;fill:#0062ad;fill-rule:nonzero;stroke:none;font-family:fnt1"
         id="path29292" />
      <path
         d="M -80.889993,-377.92758 C -80.889993,-413.39951 -52.140243,-442.14926 -16.668233,-442.14926 C 18.794467,-442.14926 47.544217,-413.39951 47.544217,-377.92758 C 47.544217,-342.46488 18.794467,-313.71505 -16.668233,-313.71505 C -52.140243,-313.71505 -80.889993,-342.46488 -80.889993,-377.92758"
         style="font-size:6px;letter-spacing:0;word-spacing:0;fill:#78aad7;fill-rule:nonzero;stroke:none;font-family:fnt1"
         id="path29296" />
      <path
         d="M 64.173757,-377.92758 C 64.173757,-413.39951 92.923507,-442.14926 128.38621,-442.14926 C 163.8489,-442.14926 192.59873,-413.39951 192.59873,-377.92758 C 192.59873,-342.46488 163.8489,-313.71505 128.38621,-313.71505 C 92.923507,-313.71505 64.173757,-342.46488 64.173757,-377.92758"
         style="font-size:6px;letter-spacing:0;word-spacing:0;fill:#78aad7;fill-rule:nonzero;stroke:none;font-family:fnt1"
         id="path29300" />
      <path
         d="M 209.2282,-377.92758 C 209.2282,-413.39951 237.97802,-442.14926 273.44996,-442.14926 C 308.91266,-442.14926 337.65317,-413.39951 337.65317,-377.92758 C 337.65317,-342.46488 308.91266,-313.71505 273.44996,-313.71505 C 237.97802,-313.71505 209.2282,-342.46488 209.2282,-377.92758"
         style="font-size:6px;letter-spacing:0;word-spacing:0;fill:#78aad7;fill-rule:nonzero;stroke:none;font-family:fnt1"
         id="path29304" />
      <path
         d="M 354.28271,-377.92758 C 354.28271,-413.39951 383.03246,-442.14926 418.50447,-442.14926 C 453.96717,-442.14926 482.71692,-413.39951 482.71692,-377.92758 C 482.71692,-342.46488 453.96717,-313.71505 418.50447,-313.71505 C 383.03246,-313.71505 354.28271,-342.46488 354.28271,-377.92758"
         style="font-size:6px;letter-spacing:0;word-spacing:0;fill:#78aad7;fill-rule:nonzero;stroke:none;font-family:fnt1"
         id="path29308" />
      <path
         d="M 499.3557,-377.92758 C 499.3557,-413.39951 528.09621,-442.14926 563.55891,-442.14926 C 599.0216,-442.14926 627.77143,-413.39951 627.77143,-377.92758 C 627.77143,-342.46488 599.0216,-313.71505 563.55891,-313.71505 C 528.09621,-313.71505 499.3557,-342.46488 499.3557,-377.92758"
         style="font-size:6px;letter-spacing:0;word-spacing:0;fill:#78aad7;fill-rule:nonzero;stroke:none;font-family:fnt1"
         id="path29312" />
      <path
         d="M -80.889993,-522.99125 C -80.889993,-558.46327 -52.140243,-587.21302 -16.668233,-587.21302 C 18.794467,-587.21302 47.544217,-558.46327 47.544217,-522.99125 C 47.544217,-487.52856 18.794467,-458.77881 -16.668233,-458.77881 C -52.140243,-458.77881 -80.889993,-487.52856 -80.889993,-522.99125"
         style="font-size:6px;letter-spacing:0;word-spacing:0;fill:#cce2f4;fill-rule:nonzero;stroke:none;font-family:fnt1"
         id="path29316" />
      <path
         d="M 64.173757,-522.99125 C 64.173757,-558.46327 92.923507,-587.21302 128.38621,-587.21302 C 163.8489,-587.21302 192.59873,-558.46327 192.59873,-522.99125 C 192.59873,-487.52856 163.8489,-458.77881 128.38621,-458.77881 C 92.923507,-458.77881 64.173757,-487.52856 64.173757,-522.99125"
         style="font-size:6px;letter-spacing:0;word-spacing:0;fill:#cce2f4;fill-rule:nonzero;stroke:none;font-family:fnt1"
         id="path29320" />
      <path
         d="M 209.2282,-522.99125 C 209.2282,-558.46327 237.97802,-587.21302 273.44996,-587.21302 C 308.91266,-587.21302 337.65317,-558.46327 337.65317,-522.99125 C 337.65317,-487.52856 308.91266,-458.77881 273.44996,-458.77881 C 237.97802,-458.77881 209.2282,-487.52856 209.2282,-522.99125"
         style="font-size:6px;letter-spacing:0;word-spacing:0;fill:#cce2f4;fill-rule:nonzero;stroke:none;font-family:fnt1"
         id="path29324" />
      <path
         d="M 354.28271,-522.99125 C 354.28271,-558.46327 383.03246,-587.21302 418.50447,-587.21302 C 453.96717,-587.21302 482.71692,-558.46327 482.71692,-522.99125 C 482.71692,-487.52856 453.96717,-458.77881 418.50447,-458.77881 C 383.03246,-458.77881 354.28271,-487.52856 354.28271,-522.99125"
         style="font-size:6px;letter-spacing:0;word-spacing:0;fill:#cce2f4;fill-rule:nonzero;stroke:none;font-family:fnt1"
         id="path29328" />
      <g
         transform="matrix(9.2591905,0,0,-9.2591905,499.35555,-522.99125)"
         style="font-size:6px;letter-spacing:0;word-spacing:0;fill:none;fill-rule:nonzero;stroke:none;font-family:fnt1"
         id="xfrm327">
<path
   d="M 0,0 C 0,3.831 3.104,6.936 6.934,6.936 C 10.764,6.936 13.869,3.831 13.869,0 C 13.869,-3.83 10.764,-6.935 6.934,-6.935 C 3.104,-6.935 0,-3.83 0,0"
   style="fill:#cce2f4;fill-rule:nonzero;stroke:none"
   id="path29338" />

</g>
      <g
         transform="matrix(9.2591905,0,0,-9.2591905,-4.0480729,-117.31837)"
         style="font-size:6px;letter-spacing:0;word-spacing:0;fill:none;fill-rule:nonzero;stroke:none;font-family:fnt1"
         id="xfrm329">
<path
   d="M 0,0 C 2.654,-0.014 4.692,-2.162 4.811,-4.814 C 4.866,-6.03 4.429,-7.442 4.033,-7.838 L 2.808,-6.47 L -0.684,-7.01 L 1.692,-9.567 C 1.212,-9.701 0.512,-9.855 -0.252,-9.819 C -2.947,-9.691 -4.964,-7.363 -4.868,-4.667 C -4.774,-2.038 -2.63,0.014 0,0 M 8.22,-4.885 C 8.236,-7.139 6.766,-9.821 6.265,-10.323 L 8.786,-12.844 L 5.329,-13.671 L 3.925,-12.195 C 2.772,-12.663 1.631,-13.034 0.108,-13.022 C -4.516,-12.986 -8.449,-9.254 -8.273,-4.634 C -8.104,-0.212 -4.46,3.162 -0.036,3.167 C 4.462,3.172 8.19,-0.388 8.22,-4.885"
   style="fill:#e2002e;fill-rule:evenodd;stroke:none"
   id="path29342" />

</g>
      <path
         d="M 492.61503,-141.59598 L 521.71663,-141.59598 L 583.23469,-55.70775 L 583.23469,-141.59598 L 615.25301,-141.59598 L 615.25301,-0.56927 L 585.12357,-0.56927 L 522.91104,-87.14265 L 522.91104,-0.56927 L 492.61503,-0.56927 L 492.61503,-141.59598 z "
         style="font-size:6px;letter-spacing:0;word-spacing:0;fill:#e2002e;fill-rule:nonzero;stroke:none;font-family:fnt1"
         id="path29346" />
      <path
         d="M 79.506937,-142.13304 L 112.84003,-142.13304 L 112.84003,-1.11557 L 79.506937,-1.11557 L 79.506937,-142.13304 z "
         style="font-size:6px;letter-spacing:0;word-spacing:0;fill:#e2002e;fill-rule:nonzero;stroke:none;font-family:fnt1"
         id="path29348" />
      <path
         d="M 396.88421,-142.13304 L 480.39286,-142.13304 L 480.39286,-114.75359 L 430.14322,-114.75359 L 430.14322,-86.46674 L 480.39286,-86.46674 L 480.39286,-57.46694 L 430.14322,-57.46694 L 430.14322,-28.47646 L 480.39286,-28.47646 L 480.39286,-1.09701 L 396.88421,-1.09701 L 396.88421,-142.13304 z "
         style="font-size:6px;letter-spacing:0;word-spacing:0;fill:#e2002e;fill-rule:nonzero;stroke:none;font-family:fnt1"
         id="path29352" />
      <path
         d="M 187.12655,-105.05924 L 204.45048,-53.08737 L 168.76554,-53.08737 L 187.12655,-105.05924 M 168.07115,-142.13304 L 206.53381,-142.13304 L 259.89454,-1.09701 L 224.20959,-1.09701 L 214.16339,-26.40238 L 159.4138,-26.40238 L 149.01567,-1.09701 L 113.67334,-1.09701 L 113.67334,-1.45811 L 168.07115,-142.13304 z "
         style="font-size:6px;letter-spacing:0;word-spacing:0;fill:#e2002e;fill-rule:evenodd;stroke:none;font-family:fnt1"
         id="path29356" />
      <path
         d="M 383.04177,-109.9758 C 380.97693,-115.53138 361.45856,-148.64222 314.69965,-146.95704 C 265.5982,-145.18852 241.79281,-102.9666 242.78353,-70.92056 C 244.12611,-27.51347 275.72773,3.78258 317.72741,3.78258 C 352.37527,3.78258 392.70832,-17.85616 391.93985,-75.16129 L 321.42184,-75.16129 L 321.42184,-48.70779 L 357.6808,-48.56887 C 350.94938,-31.07829 333.86617,-26.03204 318.39407,-26.04129 C 295.82945,-26.05977 274.0333,-46.77263 274.05179,-70.92056 C 274.07034,-97.36481 294.47756,-116.40173 317.06998,-116.67026 C 334.88469,-116.87395 349.0605,-109.82771 356.74561,-98.1704 L 383.04177,-109.9758"
         style="font-size:6px;letter-spacing:0;word-spacing:0;fill:#e2002e;fill-rule:nonzero;stroke:none;font-family:fnt1"
         id="path29360" />
    </g>
  </g>
</svg>
