<svg version="1.1" xmlns="http://www.w3.org/2000/svg" xmlns:xlink="http://www.w3.org/1999/xlink" viewBox="0 0 174.85 26.7">
    <title>Logo</title>
    <g id="Logo" stroke="none" stroke-width="1" fill="none" fill-rule="evenodd" style="--darkreader-inline-stroke: none;" data-darkreader-inline-stroke="">
        <g transform="translate(0.000000, 0.000000)" fill="#1F3044" style="--darkreader-inline-fill: #192636;" data-darkreader-inline-fill="">
            <polygon id="Fill-1" points="45.9594 0.0001 45.9594 26.6851 81.7894 26.6851 81.7894 21.1541 51.9894 21.1541 51.9894 15.9131 74.0344 15.9131 74.0344 10.3811 51.9894 10.3811 51.9894 5.5331 80.8034 5.5331 80.8034 0.0001"/>
            <polygon id="Fill-2" points="121.7718 0.0001 121.7718 19.3001 97.6818 0.0001 91.7968 0.0001 91.7968 26.6851 97.8258 26.6851 97.8258 7.4761 121.7718 26.6851 127.8038 26.6851 127.8038 0.0001"/>
            <path d="M23.856,12.193 L6.03,12.193 L6.03,5.534 L23.856,5.534 C28.402,5.534 28.927,7.434 28.927,8.863 C28.927,10.292 28.402,12.193 23.856,12.193 M34.959,8.827 C34.959,3.466 30.657,0 23.999,0 L0,0 L0,26.686 L6.03,26.686 L6.03,17.723 L21.416,17.723 L29.13,26.686 L36.786,26.686 L28.395,17.072 C32.536,15.839 34.959,12.84 34.959,8.827" id="Fill-3"/>
            <polygon id="Fill-5" points="174.8186 0.0004 166.4336 0.0004 144.8286 18.7014 144.8286 0.0004 138.7966 0.0004 138.7966 26.6854 143.8776 26.6854 155.1756 16.9414 166.4336 26.6854 174.8186 26.6854 159.3476 13.3434"/>
        </g>
    </g>
</svg>