<?xml version="1.0" encoding="utf-8"?>
<!-- Generator: Adobe Illustrator 26.0.2, SVG Export Plug-In . SVG Version: 6.00 Build 0)  -->
<svg version="1.1" id="Ebene_1" xmlns="http://www.w3.org/2000/svg" xmlns:xlink="http://www.w3.org/1999/xlink" x="0px" y="0px"
	 viewBox="0 0 373.4 94.1" style="enable-background:new 0 0 373.4 94.1;" xml:space="preserve">
<style type="text/css">
	.st0{fill:#EB6619;}
	.st1{fill:#B0BDC7;}
</style>
<path id="SALZGITTER_AG" d="M358,37.6h-2.3v7.3c-0.9,0.5-2.5,0.9-4.2,0.9c-4.9,0-8.1-3.3-8.1-8.7c0-5.1,3-8.6,8.4-8.6
	c2.2,0,4.1,0.6,5.6,1.3v-2.2c-1.2-0.5-3.3-1.1-5.7-1.1c-6.4,0-10.7,4.5-10.7,10.9c0,6.1,4.1,10.4,10.3,10.4c2.9,0,5.4-0.9,6.8-1.6
	v-8.6H358z M326.3,39.9l2.2-6c0.7-1.8,1-2.8,1.3-3.6h0.1c0.3,0.8,0.6,1.8,1.2,3.6l2.1,6H326.3z M321,47.5h2.5l2.1-5.6h8.4l2.1,5.6
	h2.5l-8-20.9H329L321,47.5z M304.2,36.1v-5.9h1.6c0.9,0,1.5,0.2,2,0.4c0.9,0.5,1.4,1.4,1.4,2.5c0,1.2-0.6,2-1.4,2.5
	c-0.5,0.3-1.1,0.4-2.1,0.4h-1.5V36.1z M299.9,47.5h4.3v-7.9h1.6c0.5,0.1,1.2,0.9,2.3,2.9l2.7,5h5l-3.4-6c-1.1-1.9-2-3.1-2.7-3.4V38
	c2.3-0.7,4-2.6,4-5.3c0-2.2-0.9-4.2-3.3-5.2c-1.1-0.5-2.5-0.8-4.4-0.8h-6.2v20.8H299.9z M279.8,47.5h12v-3.7h-7.7v-5.1h6.6v-3.6
	h-6.6v-4.8h6.6l1.1-3.7h-12V47.5z M262.5,47.5h4.3V30.3h5.5l1.1-3.7h-17v3.7h6.1V47.5z M241.2,47.5h4.3V30.3h5.5l1.1-3.7h-17v3.7
	h6.1L241.2,47.5L241.2,47.5z M224.1,47.5h4.3V26.6h-4.3V47.5z M215.5,37.3h-4.3v6.4c-0.8,0.3-1.9,0.5-3.2,0.5c-4.3,0-6.7-2.8-6.7-7
	s2.5-7.1,7.4-7.1c2.3,0,4.1,0.6,5.8,1.4v-4c-1.7-0.6-3.7-1-6.2-1c-7.1,0-11.7,4.7-11.7,11c0,5.9,4,10.3,11.1,10.3
	c2.9,0,5.8-0.7,7.8-1.7L215.5,37.3L215.5,37.3z M173.4,47.5h17.1v-3.7h-10l10.1-17.2H174l1.1,3.7h8.6L173.4,47.5z M156.8,47.5h11.6
	v-3.7h-7.3V26.6h-4.3V47.5z M137.8,38.9l1.3-3.5c0.6-1.5,0.9-2.4,1-3.1h0.1c0.2,0.7,0.4,1.6,0.9,3.1l1.2,3.5H137.8z M130.1,47.5h4.5
	l1.9-5.1h7.1l2,5.1h4.6l-8.5-20.9h-3.5L130.1,47.5z M110.3,45.9c1.7,1.2,4.1,1.9,6.5,1.9c4.4,0,7.7-2.3,7.7-6.1
	c0-6.6-8.9-6.1-8.9-9.7c0-1.5,1.2-1.9,2.5-1.9c1.7,0,3.3,0.5,5.2,1.4v-3.9c-1.2-0.6-3.1-1.1-5.3-1.1c-4.5,0-7,2.8-7,5.9
	c0,6.4,8.9,5.9,8.9,9.7c0,1.6-1.6,2.1-3.2,2.1c-1.8,0-3.4-0.7-4.7-1.5L110.3,45.9z"/>
<g id="Bildmarke">
	<path class="st0" d="M62.8,61.5h0.4V33.6H35.3v0.3C48.4,38.1,58.7,48.4,62.8,61.5z"/>
	<g>
		<g>
			<path class="st1" d="M20.4,47.3c0-16.2,13.2-29.4,29.4-29.4c6,0,11.6,1.8,16.3,4.9l9.2-9.2c-7.1-5.3-15.8-8.5-25.4-8.5
				C26.6,5.2,7.7,24,7.7,47.3c0,9.5,3.2,18.3,8.5,25.4l9-9C22.2,58.9,20.4,53.3,20.4,47.3z"/>
			<path class="st1" d="M83.4,21.9l-9.2,9.2c3.1,4.7,4.9,10.2,4.9,16.3c0,16.2-13.2,29.4-29.4,29.4c-6,0-11.6-1.8-16.3-4.9l-9,9
				c7.1,5.3,15.8,8.5,25.4,8.5c23.2,0,42.1-18.8,42.1-42.1C91.9,37.7,88.7,28.9,83.4,21.9z"/>
		</g>
	</g>
</g>
<path id="Mensch_x2C__Stahl_und_Technologie" d="M354.813,59.617c0.286,0,0.515,0.1,0.689,0.299c0.173,0.199,0.26,0.455,0.26,0.767
	v0.689c0,0.035-0.018,0.052-0.052,0.052h-1.781c-0.035,0-0.052-0.017-0.052-0.052v-0.689c0-0.312,0.086-0.568,0.26-0.767
	C354.31,59.717,354.535,59.617,354.813,59.617 M356.997,62.334v-1.729c0-0.615-0.195-1.114-0.585-1.495
	c-0.39-0.381-0.923-0.572-1.599-0.572c-0.668,0-1.198,0.191-1.593,0.572c-0.394,0.381-0.591,0.88-0.591,1.495v2.704
	c0,0.624,0.197,1.122,0.591,1.495c0.395,0.373,0.925,0.559,1.593,0.559c0.632,0,1.133-0.158,1.501-0.475
	c0.369-0.316,0.583-0.756,0.644-1.319c0.008-0.035,0.002-0.065-0.02-0.091c-0.021-0.026-0.054-0.039-0.097-0.039l-0.962-0.052
	c-0.07,0-0.117,0.035-0.143,0.104c-0.044,0.234-0.148,0.425-0.312,0.572c-0.165,0.147-0.369,0.221-0.611,0.221
	c-0.278,0-0.503-0.1-0.676-0.299c-0.174-0.199-0.26-0.455-0.26-0.767v-0.702c0-0.035,0.017-0.052,0.052-0.052h2.938
	C356.953,62.464,356.997,62.421,356.997,62.334 M346.298,65.259h0.988c0.086,0,0.13-0.043,0.13-0.13v-6.357
	c0-0.087-0.044-0.13-0.13-0.13h-0.988c-0.087,0-0.13,0.043-0.13,0.13v6.357C346.168,65.216,346.211,65.259,346.298,65.259
	 M346.779,57.602c0.242,0,0.442-0.078,0.598-0.234c0.156-0.156,0.234-0.355,0.234-0.598c0-0.251-0.076-0.453-0.228-0.605
	c-0.151-0.151-0.353-0.227-0.604-0.227c-0.243,0-0.442,0.078-0.598,0.234c-0.156,0.156-0.234,0.355-0.234,0.598
	s0.078,0.442,0.234,0.598C346.337,57.524,346.536,57.602,346.779,57.602 M338.693,64.18c-0.277,0-0.503-0.098-0.676-0.293
	c-0.173-0.195-0.26-0.448-0.26-0.76v-2.444c0-0.312,0.087-0.568,0.26-0.767c0.173-0.199,0.399-0.299,0.676-0.299
	c0.277,0,0.501,0.1,0.67,0.299c0.169,0.199,0.253,0.455,0.253,0.767v2.444c0,0.312-0.084,0.565-0.253,0.76
	C339.194,64.082,338.97,64.18,338.693,64.18 M339.616,58.772v0.338c0,0.017-0.006,0.03-0.019,0.039s-0.029,0.004-0.046-0.013
	c-0.277-0.399-0.698-0.598-1.261-0.598c-0.563,0-1.001,0.184-1.313,0.552c-0.312,0.369-0.468,0.874-0.468,1.515v2.6
	c0,0.633,0.154,1.133,0.462,1.501c0.307,0.369,0.747,0.553,1.319,0.553c0.546,0,0.966-0.199,1.261-0.598
	c0.017-0.017,0.033-0.024,0.046-0.02c0.013,0.005,0.019,0.016,0.019,0.033v0.273c0,0.65-0.132,1.129-0.396,1.436
	c-0.265,0.308-0.752,0.449-1.463,0.423c-0.095,0-0.143,0.043-0.143,0.13v0.832c0,0.087,0.043,0.134,0.13,0.143l0.351,0.013
	c1.014,0,1.729-0.249,2.145-0.748c0.416-0.498,0.624-1.202,0.624-2.112v-6.292c0-0.087-0.043-0.13-0.13-0.13h-0.988
	C339.659,58.642,339.616,58.685,339.616,58.772 M329.294,64.271c-0.277,0-0.505-0.098-0.682-0.292
	c-0.178-0.196-0.267-0.453-0.267-0.774v-2.522c0-0.312,0.089-0.568,0.267-0.767c0.177-0.199,0.405-0.299,0.682-0.299
	s0.507,0.1,0.689,0.299c0.182,0.199,0.273,0.455,0.273,0.767v2.522c0,0.321-0.091,0.578-0.273,0.774
	C329.801,64.173,329.571,64.271,329.294,64.271 M329.294,65.363c0.676,0,1.213-0.189,1.612-0.565
	c0.399-0.377,0.598-0.878,0.598-1.502v-2.691c0-0.615-0.199-1.114-0.598-1.495c-0.399-0.381-0.936-0.572-1.612-0.572
	c-0.667,0-1.2,0.191-1.599,0.572c-0.398,0.381-0.598,0.88-0.598,1.495v2.691c0,0.624,0.197,1.125,0.592,1.502
	C328.083,65.174,328.618,65.363,329.294,65.363 M320.909,65.259h0.988c0.087,0,0.13-0.043,0.13-0.13v-8.84
	c0-0.087-0.043-0.13-0.13-0.13h-0.988c-0.086,0-0.13,0.043-0.13,0.13v8.84C320.779,65.216,320.823,65.259,320.909,65.259
	 M313.499,64.271c-0.277,0-0.505-0.098-0.682-0.292c-0.178-0.196-0.267-0.453-0.267-0.774v-2.522c0-0.312,0.089-0.568,0.267-0.767
	c0.177-0.199,0.405-0.299,0.682-0.299c0.278,0,0.507,0.1,0.689,0.299c0.182,0.199,0.273,0.455,0.273,0.767v2.522
	c0,0.321-0.091,0.578-0.273,0.774C314.006,64.173,313.777,64.271,313.499,64.271 M313.499,65.363c0.676,0,1.214-0.189,1.612-0.565
	c0.399-0.377,0.598-0.878,0.598-1.502v-2.691c0-0.615-0.199-1.114-0.598-1.495c-0.398-0.381-0.936-0.572-1.612-0.572
	c-0.667,0-1.2,0.191-1.599,0.572c-0.398,0.381-0.598,0.88-0.598,1.495v2.691c0,0.624,0.197,1.125,0.592,1.502
	C312.288,65.174,312.823,65.363,313.499,65.363 M304.542,58.551c-0.563,0-1.001,0.191-1.313,0.572
	c-0.017,0.026-0.034,0.037-0.052,0.032c-0.017-0.004-0.026-0.015-0.026-0.032v-0.351c0-0.087-0.043-0.13-0.13-0.13h-0.988
	c-0.086,0-0.13,0.043-0.13,0.13v6.357c0,0.087,0.044,0.13,0.13,0.13h0.988c0.087,0,0.13-0.043,0.13-0.13v-4.303
	c0.009,0,0.013-0.026,0.013-0.078c0.018-0.355,0.106-0.631,0.267-0.825c0.16-0.196,0.383-0.293,0.669-0.293
	c0.278,0,0.494,0.1,0.65,0.299c0.156,0.199,0.234,0.481,0.234,0.845v4.355c0,0.087,0.044,0.13,0.13,0.13h0.988
	c0.087,0,0.13-0.043,0.13-0.13V60.67c0-0.676-0.145-1.198-0.435-1.566C305.507,58.735,305.088,58.551,304.542,58.551
	 M295.027,58.551c-0.564,0-1.001,0.191-1.313,0.572c-0.018,0.026-0.035,0.037-0.052,0.032c-0.018-0.004-0.026-0.015-0.026-0.032
	v-2.834c0-0.087-0.044-0.13-0.13-0.13h-0.988c-0.087,0-0.13,0.043-0.13,0.13v8.84c0,0.087,0.043,0.13,0.13,0.13h0.988
	c0.086,0,0.13-0.043,0.13-0.13v-4.303c0.008,0,0.013-0.026,0.013-0.078c0.017-0.355,0.106-0.631,0.266-0.825
	c0.16-0.196,0.384-0.293,0.67-0.293c0.277,0,0.494,0.1,0.65,0.299c0.156,0.199,0.234,0.481,0.234,0.845v4.355
	c0,0.087,0.043,0.13,0.13,0.13h0.988c0.086,0,0.13-0.043,0.13-0.13V60.67c0-0.676-0.146-1.198-0.436-1.566
	C295.991,58.735,295.573,58.551,295.027,58.551 M285.186,65.363c0.667,0,1.2-0.18,1.599-0.539c0.398-0.36,0.598-0.822,0.598-1.385
	v-0.195c0-0.087-0.044-0.13-0.13-0.13l-0.988-0.013c-0.087,0-0.13,0.043-0.13,0.13v0.13c0,0.251-0.091,0.468-0.273,0.65
	c-0.182,0.182-0.408,0.273-0.676,0.273c-0.278,0-0.503-0.1-0.676-0.299c-0.174-0.199-0.26-0.455-0.26-0.767v-2.535
	c0-0.312,0.086-0.568,0.26-0.767c0.173-0.199,0.398-0.299,0.676-0.299c0.268,0,0.494,0.091,0.676,0.273s0.273,0.399,0.273,0.65v0.13
	c0,0.087,0.043,0.13,0.13,0.13l0.988-0.039c0.086,0,0.13-0.043,0.13-0.13v-0.169c0-0.364-0.089-0.691-0.267-0.982
	c-0.178-0.29-0.433-0.52-0.767-0.689c-0.334-0.169-0.721-0.253-1.163-0.253c-0.668,0-1.199,0.191-1.593,0.572
	c-0.394,0.381-0.591,0.88-0.591,1.495v2.691c0,0.633,0.197,1.135,0.591,1.508C283.987,65.177,284.518,65.363,285.186,65.363
	 M275.865,59.617c0.286,0,0.515,0.1,0.689,0.299c0.173,0.199,0.26,0.455,0.26,0.767v0.689c0,0.035-0.018,0.052-0.052,0.052h-1.781
	c-0.035,0-0.052-0.017-0.052-0.052v-0.689c0-0.312,0.086-0.568,0.26-0.767C275.362,59.717,275.587,59.617,275.865,59.617
	 M278.049,62.334v-1.729c0-0.615-0.195-1.114-0.585-1.495c-0.39-0.381-0.923-0.572-1.599-0.572c-0.668,0-1.198,0.191-1.593,0.572
	c-0.394,0.381-0.591,0.88-0.591,1.495v2.704c0,0.624,0.197,1.122,0.591,1.495c0.395,0.373,0.925,0.559,1.593,0.559
	c0.632,0,1.133-0.158,1.501-0.475c0.369-0.316,0.583-0.756,0.644-1.319c0.008-0.035,0.002-0.065-0.02-0.091
	c-0.021-0.026-0.054-0.039-0.097-0.039l-0.962-0.052c-0.07,0-0.117,0.035-0.143,0.104c-0.044,0.234-0.148,0.425-0.312,0.572
	c-0.165,0.147-0.369,0.221-0.611,0.221c-0.278,0-0.503-0.1-0.676-0.299c-0.174-0.199-0.26-0.455-0.26-0.767v-0.702
	c0-0.035,0.017-0.052,0.052-0.052h2.938C278.005,62.464,278.049,62.421,278.049,62.334 M269.456,56.159h-4.667
	c-0.087,0-0.13,0.043-0.13,0.13v0.819c0,0.087,0.043,0.13,0.13,0.13h1.612c0.034,0,0.052,0.017,0.052,0.052v7.839
	c0,0.087,0.043,0.13,0.13,0.13h0.988c0.086,0,0.13-0.043,0.13-0.13V57.29c0-0.035,0.017-0.052,0.052-0.052h1.703
	c0.086,0,0.13-0.043,0.13-0.13v-0.819C269.586,56.202,269.542,56.159,269.456,56.159 M251.009,64.284
	c-0.278,0-0.505-0.1-0.683-0.299c-0.177-0.199-0.266-0.455-0.266-0.767v-2.535c0-0.312,0.089-0.568,0.266-0.767
	c0.178-0.199,0.405-0.299,0.683-0.299c0.242,0,0.448,0.08,0.617,0.24c0.169,0.161,0.271,0.371,0.306,0.631v2.925
	c-0.035,0.26-0.137,0.47-0.306,0.63C251.457,64.204,251.251,64.284,251.009,64.284 M251.932,56.289v2.691
	c0,0.017-0.007,0.03-0.02,0.039c-0.013,0.009-0.028,0.004-0.045-0.013c-0.165-0.156-0.351-0.273-0.559-0.351
	c-0.208-0.078-0.416-0.117-0.624-0.117c-0.572,0-1.025,0.184-1.359,0.552c-0.333,0.369-0.5,0.874-0.5,1.515v2.704
	c0,0.615,0.167,1.112,0.5,1.489c0.334,0.376,0.787,0.565,1.359,0.565c0.208,0,0.416-0.039,0.624-0.117
	c0.208-0.078,0.394-0.195,0.559-0.351c0.017-0.017,0.032-0.022,0.045-0.013c0.013,0.009,0.02,0.022,0.02,0.039v0.208
	c0,0.087,0.043,0.13,0.13,0.13h0.988c0.086,0,0.13-0.043,0.13-0.13v-8.84c0-0.087-0.044-0.13-0.13-0.13h-0.988
	C251.975,56.159,251.932,56.202,251.932,56.289 M242.065,58.551c-0.564,0-1.001,0.191-1.313,0.572
	c-0.018,0.026-0.035,0.037-0.052,0.032c-0.018-0.004-0.026-0.015-0.026-0.032v-0.351c0-0.087-0.044-0.13-0.13-0.13h-0.988
	c-0.087,0-0.13,0.043-0.13,0.13v6.357c0,0.087,0.043,0.13,0.13,0.13h0.988c0.086,0,0.13-0.043,0.13-0.13v-4.303
	c0.008,0,0.013-0.026,0.013-0.078c0.017-0.355,0.106-0.631,0.266-0.825c0.161-0.196,0.384-0.293,0.67-0.293
	c0.277,0,0.494,0.1,0.65,0.299c0.156,0.199,0.234,0.481,0.234,0.845v4.355c0,0.087,0.043,0.13,0.13,0.13h0.988
	c0.086,0,0.13-0.043,0.13-0.13V60.67c0-0.676-0.145-1.198-0.436-1.566C243.029,58.735,242.611,58.551,242.065,58.551
	 M232.913,58.772v4.303c0,0.373-0.08,0.665-0.24,0.877c-0.161,0.213-0.388,0.319-0.683,0.319c-0.589,0-0.884-0.373-0.884-1.118
	v-4.381c0-0.087-0.043-0.13-0.13-0.13h-0.988c-0.087,0-0.13,0.043-0.13,0.13v4.654c0,0.65,0.16,1.133,0.481,1.449
	c0.321,0.317,0.741,0.475,1.261,0.475c0.572,0,0.988-0.204,1.248-0.611c0.017-0.017,0.033-0.026,0.046-0.026
	s0.019,0.013,0.019,0.039v0.377c0,0.087,0.043,0.13,0.13,0.13h0.988c0.087,0,0.13-0.043,0.13-0.13v-6.357
	c0-0.087-0.043-0.13-0.13-0.13h-0.988C232.956,58.642,232.913,58.685,232.913,58.772 M217.105,65.259h0.988
	c0.087,0,0.13-0.043,0.13-0.13v-8.84c0-0.087-0.043-0.13-0.13-0.13h-0.988c-0.087,0-0.13,0.043-0.13,0.13v8.84
	C216.975,65.216,217.018,65.259,217.105,65.259 M210.15,58.551c-0.563,0-1.001,0.191-1.313,0.572
	c-0.017,0.026-0.034,0.037-0.052,0.032c-0.017-0.004-0.026-0.015-0.026-0.032v-2.834c0-0.087-0.043-0.13-0.13-0.13h-0.988
	c-0.086,0-0.13,0.043-0.13,0.13v8.84c0,0.087,0.044,0.13,0.13,0.13h0.988c0.087,0,0.13-0.043,0.13-0.13v-4.303
	c0.009,0,0.013-0.026,0.013-0.078c0.018-0.355,0.106-0.631,0.267-0.825c0.16-0.196,0.383-0.293,0.669-0.293
	c0.278,0,0.494,0.1,0.65,0.299c0.156,0.199,0.234,0.481,0.234,0.845v4.355c0,0.087,0.044,0.13,0.13,0.13h0.988
	c0.087,0,0.13-0.043,0.13-0.13V60.67c0-0.676-0.145-1.198-0.435-1.566C211.114,58.735,210.696,58.551,210.15,58.551 M199.997,64.271
	c-0.26,0-0.468-0.078-0.624-0.234c-0.156-0.156-0.234-0.39-0.234-0.702c0-0.355,0.104-0.626,0.312-0.813
	c0.208-0.186,0.486-0.279,0.832-0.279h0.793c0.035,0,0.052,0.017,0.052,0.052v0.884c0,0.347-0.112,0.615-0.338,0.806
	C200.565,64.176,200.301,64.271,199.997,64.271 M200.218,58.538c-0.589,0-1.083,0.173-1.482,0.52
	c-0.398,0.347-0.619,0.797-0.663,1.352c0,0.087,0.044,0.13,0.13,0.13h1.053c0.087,0,0.13-0.043,0.13-0.13
	c0.026-0.234,0.113-0.425,0.26-0.572c0.148-0.147,0.33-0.221,0.546-0.221c0.278,0,0.503,0.11,0.676,0.332
	c0.174,0.22,0.26,0.513,0.26,0.877v0.377c0,0.035-0.017,0.052-0.052,0.052h-0.754c-0.736,0-1.332,0.175-1.787,0.526
	c-0.455,0.351-0.683,0.904-0.683,1.658c0,0.719,0.189,1.22,0.566,1.501c0.377,0.282,0.812,0.423,1.306,0.423
	c0.59,0,1.036-0.182,1.339-0.546c0.018-0.017,0.033-0.022,0.046-0.013c0.013,0.009,0.019,0.022,0.019,0.039v0.286
	c0,0.087,0.044,0.13,0.13,0.13h0.988c0.087,0,0.13-0.043,0.13-0.13v-4.42c0-0.65-0.201-1.174-0.604-1.573
	C201.369,58.737,200.851,58.538,200.218,58.538 M193.199,59.422v-0.65c0-0.087-0.044-0.13-0.13-0.13h-0.91
	c-0.035,0-0.052-0.017-0.052-0.052v-1.469c0-0.087-0.044-0.13-0.13-0.13h-0.949c-0.087,0-0.13,0.043-0.13,0.13v1.469
	c0,0.035-0.018,0.052-0.052,0.052h-0.507c-0.087,0-0.13,0.043-0.13,0.13v0.65c0,0.087,0.043,0.13,0.13,0.13h0.507
	c0.034,0,0.052,0.017,0.052,0.052v4.095c0,0.607,0.14,1.018,0.422,1.235s0.7,0.325,1.255,0.325h0.403c0.086,0,0.13-0.043,0.13-0.13
	v-0.832c0-0.087-0.044-0.13-0.13-0.13h-0.117c-0.26,0.009-0.451-0.054-0.572-0.188c-0.122-0.135-0.182-0.375-0.182-0.722v-3.653
	c0-0.035,0.017-0.052,0.052-0.052h0.91C193.155,59.552,193.199,59.509,193.199,59.422 M183.28,65.363
	c0.684,0,1.239-0.219,1.664-0.657c0.424-0.437,0.637-1.02,0.637-1.748c0-0.399-0.072-0.743-0.215-1.034
	c-0.143-0.29-0.347-0.556-0.611-0.799c-0.264-0.243-0.656-0.559-1.176-0.949c-0.546-0.399-0.915-0.717-1.105-0.956
	c-0.191-0.238-0.286-0.53-0.286-0.877c0-0.381,0.095-0.678,0.286-0.891c0.19-0.212,0.437-0.318,0.741-0.318
	c0.32,0,0.58,0.119,0.78,0.358c0.199,0.238,0.299,0.552,0.299,0.942v0.351c0,0.087,0.043,0.13,0.13,0.13h0.962
	c0.086,0,0.13-0.043,0.13-0.13V58.46c0-0.719-0.211-1.3-0.631-1.742s-0.977-0.663-1.67-0.663c-0.668,0-1.209,0.206-1.625,0.618
	c-0.416,0.411-0.624,0.968-0.624,1.67c0,0.442,0.086,0.828,0.26,1.157c0.173,0.329,0.385,0.611,0.637,0.845
	c0.251,0.234,0.598,0.516,1.04,0.845c0.398,0.295,0.686,0.518,0.864,0.669c0.178,0.152,0.321,0.323,0.429,0.514
	c0.108,0.191,0.163,0.412,0.163,0.663c0,0.373-0.102,0.674-0.306,0.903c-0.204,0.23-0.461,0.345-0.773,0.345
	s-0.568-0.119-0.767-0.358c-0.2-0.238-0.299-0.556-0.299-0.955v-0.273c0-0.087-0.044-0.13-0.13-0.13h-0.962
	c-0.087,0-0.13,0.043-0.13,0.13v0.338c0,0.693,0.21,1.254,0.63,1.683C182.042,65.148,182.595,65.363,183.28,65.363 M168.226,66.377
	h0.585c0.086,0,0.134-0.039,0.143-0.117l0.624-2.886c0.017-0.095-0.022-0.143-0.117-0.143h-0.858c-0.078,0-0.122,0.039-0.13,0.117
	l-0.377,2.886c-0.009,0.035,0,0.067,0.026,0.097C168.148,66.362,168.182,66.377,168.226,66.377 M161.583,58.551
	c-0.564,0-1.001,0.191-1.313,0.572c-0.018,0.026-0.035,0.037-0.052,0.032c-0.018-0.004-0.026-0.015-0.026-0.032v-2.834
	c0-0.087-0.044-0.13-0.13-0.13h-0.988c-0.087,0-0.13,0.043-0.13,0.13v8.84c0,0.087,0.043,0.13,0.13,0.13h0.988
	c0.086,0,0.13-0.043,0.13-0.13v-4.303c0.008,0,0.013-0.026,0.013-0.078c0.017-0.355,0.106-0.631,0.266-0.825
	c0.16-0.196,0.384-0.293,0.67-0.293c0.277,0,0.494,0.1,0.65,0.299c0.156,0.199,0.234,0.481,0.234,0.845v4.355
	c0,0.087,0.043,0.13,0.13,0.13h0.988c0.086,0,0.13-0.043,0.13-0.13V60.67c0-0.676-0.146-1.198-0.436-1.566
	C162.547,58.735,162.129,58.551,161.583,58.551 M151.742,65.363c0.667,0,1.2-0.18,1.599-0.539c0.398-0.36,0.598-0.822,0.598-1.385
	v-0.195c0-0.087-0.044-0.13-0.13-0.13l-0.988-0.013c-0.087,0-0.13,0.043-0.13,0.13v0.13c0,0.251-0.091,0.468-0.273,0.65
	c-0.182,0.182-0.408,0.273-0.676,0.273c-0.278,0-0.503-0.1-0.676-0.299c-0.174-0.199-0.26-0.455-0.26-0.767v-2.535
	c0-0.312,0.086-0.568,0.26-0.767c0.173-0.199,0.398-0.299,0.676-0.299c0.268,0,0.494,0.091,0.676,0.273
	c0.182,0.182,0.273,0.399,0.273,0.65v0.13c0,0.087,0.043,0.13,0.13,0.13l0.988-0.039c0.086,0,0.13-0.043,0.13-0.13v-0.169
	c0-0.364-0.089-0.691-0.267-0.982c-0.178-0.29-0.433-0.52-0.767-0.689c-0.334-0.169-0.721-0.253-1.163-0.253
	c-0.668,0-1.199,0.191-1.593,0.572c-0.394,0.381-0.591,0.88-0.591,1.495v2.691c0,0.633,0.197,1.135,0.591,1.508
	S151.074,65.363,151.742,65.363 M142.629,65.337c0.658,0,1.181-0.165,1.566-0.494c0.386-0.329,0.579-0.776,0.579-1.339
	c0-0.39-0.089-0.715-0.267-0.975c-0.177-0.26-0.383-0.462-0.617-0.605c-0.234-0.143-0.529-0.292-0.884-0.448
	c-0.321-0.139-0.555-0.245-0.702-0.318c-0.148-0.074-0.273-0.172-0.377-0.293c-0.104-0.121-0.156-0.273-0.156-0.455
	c0-0.234,0.078-0.433,0.234-0.598c0.156-0.165,0.368-0.247,0.637-0.247c0.26,0,0.472,0.082,0.637,0.247
	c0.164,0.165,0.247,0.364,0.247,0.598v0.091c0,0.087,0.043,0.13,0.13,0.13h0.897c0.086,0,0.13-0.043,0.13-0.13v-0.039
	c0-0.581-0.184-1.04-0.553-1.378c-0.368-0.338-0.873-0.507-1.514-0.507c-0.624,0-1.12,0.165-1.489,0.494
	c-0.368,0.329-0.552,0.789-0.552,1.378c0,0.399,0.086,0.728,0.26,0.988c0.173,0.26,0.37,0.459,0.591,0.598
	c0.221,0.139,0.501,0.282,0.839,0.429c0.312,0.13,0.544,0.232,0.695,0.306c0.152,0.073,0.284,0.175,0.397,0.305
	c0.112,0.13,0.169,0.29,0.169,0.481c0,0.243-0.08,0.442-0.241,0.598c-0.16,0.156-0.37,0.234-0.63,0.234
	c-0.269,0-0.494-0.08-0.676-0.241c-0.182-0.16-0.273-0.357-0.273-0.591v-0.091c0-0.087-0.044-0.13-0.13-0.13h-0.923
	c-0.087,0-0.13,0.043-0.13,0.13v0.117c0,0.537,0.188,0.964,0.565,1.28C141.465,65.179,141.979,65.337,142.629,65.337
	 M133.867,58.551c-0.564,0-1.001,0.191-1.313,0.572c-0.018,0.026-0.035,0.037-0.052,0.032c-0.018-0.004-0.026-0.015-0.026-0.032
	v-0.351c0-0.087-0.044-0.13-0.13-0.13h-0.988c-0.087,0-0.13,0.043-0.13,0.13v6.357c0,0.087,0.043,0.13,0.13,0.13h0.988
	c0.086,0,0.13-0.043,0.13-0.13v-4.303c0.008,0,0.013-0.026,0.013-0.078c0.017-0.355,0.106-0.631,0.266-0.825
	c0.161-0.196,0.384-0.293,0.67-0.293c0.277,0,0.494,0.1,0.65,0.299c0.156,0.199,0.234,0.481,0.234,0.845v4.355
	c0,0.087,0.043,0.13,0.13,0.13h0.988c0.086,0,0.13-0.043,0.13-0.13V60.67c0-0.676-0.145-1.198-0.436-1.566
	C134.831,58.735,134.413,58.551,133.867,58.551 M123.974,59.617c0.286,0,0.516,0.1,0.689,0.299c0.173,0.199,0.26,0.455,0.26,0.767
	v0.689c0,0.035-0.017,0.052-0.052,0.052h-1.781c-0.035,0-0.052-0.017-0.052-0.052v-0.689c0-0.312,0.087-0.568,0.26-0.767
	C123.471,59.717,123.697,59.617,123.974,59.617 M126.158,62.334v-1.729c0-0.615-0.195-1.114-0.585-1.495
	c-0.39-0.381-0.923-0.572-1.599-0.572c-0.667,0-1.198,0.191-1.593,0.572c-0.394,0.381-0.591,0.88-0.591,1.495v2.704
	c0,0.624,0.197,1.122,0.591,1.495c0.395,0.373,0.926,0.559,1.593,0.559c0.633,0,1.133-0.158,1.501-0.475
	c0.369-0.316,0.583-0.756,0.644-1.319c0.009-0.035,0.002-0.065-0.02-0.091c-0.021-0.026-0.054-0.039-0.097-0.039l-0.962-0.052
	c-0.069,0-0.117,0.035-0.143,0.104c-0.043,0.234-0.147,0.425-0.312,0.572c-0.165,0.147-0.368,0.221-0.611,0.221
	c-0.277,0-0.503-0.1-0.676-0.299c-0.173-0.199-0.26-0.455-0.26-0.767v-0.702c0-0.035,0.017-0.052,0.052-0.052h2.938
	C126.115,62.464,126.158,62.421,126.158,62.334 M115.29,56.25l-1.352,2.444c-0.009,0.009-0.022,0.013-0.039,0.013
	c-0.017,0-0.03-0.004-0.039-0.013l-1.365-2.444c-0.043-0.061-0.095-0.091-0.156-0.091h-0.988c-0.087,0-0.13,0.043-0.13,0.13v8.84
	c0,0.087,0.043,0.13,0.13,0.13h0.988c0.087,0,0.13-0.043,0.13-0.13v-6.435c0-0.026,0.007-0.039,0.02-0.039s0.028,0.009,0.045,0.026
	l1.235,2.314c0.026,0.061,0.065,0.091,0.117,0.091c0.052,0,0.091-0.03,0.117-0.091l1.248-2.327c0.017-0.017,0.032-0.026,0.046-0.026
	c0.013,0,0.019,0.013,0.019,0.039v6.448c0,0.087,0.043,0.13,0.13,0.13h0.988c0.087,0,0.13-0.043,0.13-0.13v-8.84
	c0-0.087-0.043-0.13-0.13-0.13h-0.988C115.377,56.159,115.325,56.189,115.29,56.25"/>
</svg>
