<?xml version="1.0" encoding="UTF-8" standalone="no"?>
<!-- Created with Inkscape (http://www.inkscape.org/) -->
<svg
   xmlns:svg="http://www.w3.org/2000/svg"
   xmlns="http://www.w3.org/2000/svg"
   version="1.0"
   width="744.09448"
   height="288.4252"
   id="svg2298">
  <defs
     id="defs2300" />
  <g
     transform="translate(-92.739696,-387.36888)"
     id="layer1">
    <g
       transform="translate(17.716544,17.664051)"
       id="g2362">
      <path
         d="M 142.4068,553.58395 C 148.22804,556.69235 154.83292,557.36776 161.32584,557.36776 C 173.64,557.36776 185.39443,550.60616 185.39443,535.87023 C 185.39443,513.82787 155.5046,517.88407 155.5046,503.82355 C 155.5046,498.14409 161.21392,495.43871 167.66952,495.43871 C 170.65477,495.43871 178.22983,497.19629 181.06582,498.95384 L 182.14799,487.86738 C 177.14769,486.37849 172.29664,485.16198 166.32616,485.16198 C 152.66861,485.16198 141.99634,492.05792 141.99634,506.39085 C 141.99634,525.72781 171.88618,524.64567 171.88618,537.22105 C 171.88618,544.65804 164.72158,547.09103 158.90034,547.09103 C 155.24341,547.09103 148.07881,545.47152 143.07848,542.22508 L 142.4068,553.58395"
         style="fill:#007499;fill-rule:nonzero;stroke:none"
         id="path20" />
      <path
         d="M 197.63396,555.74825 L 210.35861,555.74825 L 210.35861,486.78521 L 197.63396,486.78521 L 197.63396,555.74825 z M 211.14224,457.03345 L 196.85036,457.03345 L 196.85036,471.37011 L 211.14224,471.37011 L 211.14224,457.03345"
         style="fill:#007499;fill-rule:evenodd;stroke:none"
         id="path22" />
      <path
         d="M 228.41938,555.74825 L 241.10671,555.74825 L 241.10671,454.33181 L 228.41938,454.33181 L 228.41938,555.74825 z "
         style="fill:#007499;fill-rule:nonzero;stroke:none"
         id="path24" />
      <path
         d="M 296.89359,486.78521 L 278.64624,486.78521 L 278.64624,466.76912 L 265.95893,470.82905 L 265.95893,486.78521 L 250.3983,486.78521 L 250.3983,497.06195 L 265.95893,497.06195 L 265.95893,537.35536 C 265.95893,551.15099 274.0564,557.36776 287.1542,557.36776 C 291.22162,557.36776 295.13974,556.28932 297.97576,555.47587 L 297.97576,544.65804 C 296.10996,545.87455 293.23666,547.09103 289.3185,547.09103 C 283.53458,547.09103 278.64624,542.76615 278.64624,534.78806 L 278.64624,497.06195 L 296.89359,497.06195 L 296.89359,486.78521"
         style="fill:#007499;fill-rule:nonzero;stroke:none"
         id="path26" />
      <path
         d="M 310.10333,555.74825 L 322.79064,555.74825 L 322.79064,524.37699 C 322.79064,507.06626 330.25377,496.24846 341.59775,496.24846 C 343.76206,496.24846 346.33682,496.52088 348.61308,497.46494 L 348.61308,486.1098 C 345.92636,485.56873 344.02325,485.16198 340.25436,485.16198 C 332.94049,485.16198 325.62665,490.30034 322.26823,497.46494 L 322.00704,497.46494 L 322.00704,486.78521 L 310.10333,486.78521 L 310.10333,555.74825"
         style="fill:#007499;fill-rule:nonzero;stroke:none"
         id="path28" />
      <path
         d="M 349.91912,521.26488 C 349.91912,541.00857 364.24832,557.36776 385.07047,557.36776 C 405.74332,557.36776 420.07255,541.00857 420.07255,521.26488 C 420.07255,500.30466 406.04186,485.16198 385.07047,485.16198 C 363.98713,485.16198 349.91912,500.30466 349.91912,521.26488 z M 363.4274,521.26488 C 363.4274,508.14843 371.41295,495.43871 385.07047,495.43871 C 398.57872,495.43871 406.56427,508.14843 406.56427,521.26488 C 406.56427,533.57158 399.9594,547.09103 385.07047,547.09103 C 370.06956,547.09103 363.4274,533.57158 363.4274,521.26488"
         style="fill:#007499;fill-rule:evenodd;stroke:none"
         id="path30" />
      <path
         d="M 432.34939,555.74825 L 445.03669,555.74825 L 445.03669,523.83592 C 445.03669,507.06626 451.52959,495.43871 465.97079,495.43871 C 477.09079,496.11412 480.59849,503.95786 480.59849,520.04837 L 480.59849,555.74825 L 493.28579,555.74825 L 493.28579,514.77569 C 493.28579,496.24846 485.30029,485.16198 467.46339,485.16198 C 457.87329,485.16198 448.69359,489.89362 444.88749,497.73736 L 444.62619,497.73736 L 444.62619,486.78521 L 432.34939,486.78521 L 432.34939,555.74825"
         style="fill:#007499;fill-rule:nonzero;stroke:none"
         id="path32" />
      <path
         d="M 509.74199,555.74825 L 522.42939,555.74825 L 522.42939,486.78521 L 509.74199,486.78521 L 509.74199,555.74825 z M 523.25029,457.03345 L 508.92109,457.03345 L 508.92109,471.37011 L 523.25029,471.37011 L 523.25029,457.03345"
         style="fill:#007499;fill-rule:evenodd;stroke:none"
         id="path34" />
      <path
         d="M 585.11969,487.86738 C 581.46269,486.37849 574.85789,485.16198 569.70829,485.16198 C 548.62499,485.16198 534.55689,500.30466 534.55689,521.26488 C 534.55689,541.00857 548.88619,557.36776 569.70829,557.36776 C 574.29809,557.36776 580.38059,556.96476 585.64209,554.53177 L 584.70919,543.17287 C 580.79099,545.7402 575.38029,547.09103 571.05169,547.09103 C 554.70739,547.09103 548.06519,533.57158 548.06519,521.26488 C 548.06519,508.14843 556.05079,495.43871 570.23069,495.43871 C 574.29809,495.43871 579.14919,496.38654 584.03749,498.41277 L 585.11969,487.86738"
         style="fill:#007499;fill-rule:nonzero;stroke:none"
         id="path36" />
      <path
         d="M 92.739696,513.91743 C 92.739696,444.02522 149.38485,387.36888 219.23974,387.36888 C 226.77748,387.36888 234.2033,388.04056 241.40522,389.30928 C 237.11392,388.82419 232.74799,388.60029 228.34474,388.60029 C 162.14678,388.60029 108.48689,442.30123 108.48689,508.54023 C 108.48689,574.77924 162.14678,628.47272 228.34474,628.47272 C 278.08651,628.47272 320.7756,598.16496 338.911,555.00194 C 321.85777,604.72505 274.72811,640.46598 219.23974,640.46598 C 149.38485,640.46598 92.739696,583.80964 92.739696,513.91743"
         style="fill:#007499;fill-rule:nonzero;stroke:none"
         id="path38" />
      <path
         d="M 354.77015,613.46811 L 359.21071,613.46811 L 359.21071,604.54966 L 359.28535,604.54966 C 360.85261,606.44155 362.41987,606.90428 364.28564,606.90428 C 369.62179,606.90428 371.56219,602.59433 371.56219,597.91867 C 371.56219,593.21318 369.62179,589.03754 364.39759,589.03754 C 361.78551,589.03754 360.06898,590.19807 359.09879,591.85489 L 359.02415,591.85489 L 359.02415,589.4331 L 354.77015,589.4331 L 354.77015,613.46811 z M 363.24082,592.48552 C 366.11412,592.48552 366.89775,595.63494 366.89775,597.91867 C 366.89775,600.27329 366.0768,603.45633 363.16618,603.45633 C 360.21824,603.45633 359.24803,600.34046 359.24803,597.91867 C 359.24803,595.53419 360.36751,592.48552 363.24082,592.48552"
         style="fill:#231f20;fill-rule:evenodd;stroke:none"
         id="path40" />
      <path
         d="M 381.5628,596.29543 C 381.74936,594.008 383.01811,592.28401 385.48093,592.28401 C 387.98109,592.28401 388.98859,594.14232 389.10055,596.29543 L 381.5628,596.29543 z M 392.0858,601.93011 C 390.4439,602.85925 388.57814,603.65408 386.41383,603.65408 C 383.65248,603.65408 381.74936,602.09801 381.5628,599.34785 L 393.35453,599.34785 C 393.35453,593.37734 391.56339,589.03754 385.21974,589.03754 C 379.92091,589.03754 377.3088,593.11242 377.3088,598.05301 C 377.3088,603.65408 380.59259,606.90428 386.22724,606.90428 C 388.61545,606.90428 390.4439,606.44155 392.0858,605.546 L 392.0858,601.93011"
         style="fill:#231f20;fill-rule:evenodd;stroke:none"
         id="path42" />
      <path
         d="M 400.29525,606.50872 L 404.73582,606.50872 L 404.73582,600.2397 C 404.73582,597.78806 404.73582,593.28035 408.35543,593.28035 C 409.13906,593.28035 409.96001,593.41093 410.33315,593.64603 L 410.33315,589.16815 C 409.88538,589.03754 409.40026,589.03754 408.9898,589.03754 C 406.3404,589.03754 404.51191,591.72055 404.32533,593.31393 L 404.25069,593.31393 L 404.25069,589.4331 L 400.29525,589.4331 L 400.29525,606.50872"
         style="fill:#231f20;fill-rule:nonzero;stroke:none"
         id="path44" />
      <path
         d="M 419.40087,606.50872 L 423.84144,606.50872 L 423.84144,592.68327 L 427.72229,592.68327 L 427.72229,589.4331 L 423.84144,589.4331 L 423.84144,587.31357 C 423.84144,585.98514 424.32653,584.69399 425.81919,584.69399 C 426.75209,584.69399 427.31179,585.0597 427.72229,585.29107 L 428.09539,581.61175 C 427.23719,581.41023 425.96839,581.24604 424.84894,581.24604 C 421.34127,581.24604 419.40087,583.63425 419.40087,587.04862 L 419.40087,589.4331 L 416.11708,589.4331 L 416.11708,592.68327 L 419.40087,592.68327 L 419.40087,606.50872"
         style="fill:#231f20;fill-rule:nonzero;stroke:none"
         id="path46" />
      <path
         d="M 436.86459,596.29543 C 437.05119,594.008 438.31989,592.28401 440.81999,592.28401 C 443.28289,592.28401 444.29039,594.14232 444.40229,596.29543 L 436.86459,596.29543 z M 447.38759,601.93011 C 445.74569,602.85925 443.87989,603.65408 441.71559,603.65408 C 438.99159,603.65408 437.05119,602.09801 436.86459,599.34785 L 448.65629,599.34785 C 448.65629,593.37734 446.86519,589.03754 440.52149,589.03754 C 435.22269,589.03754 432.61059,593.11242 432.61059,598.05301 C 432.61059,603.65408 435.89439,606.90428 441.52899,606.90428 C 443.91729,606.90428 445.78299,606.44155 447.38759,605.546 L 447.38759,601.93011"
         style="fill:#231f20;fill-rule:evenodd;stroke:none"
         id="path48" />
      <path
         d="M 466.30659,589.60102 C 465.07519,589.23532 463.80649,589.03754 462.01529,589.03754 C 456.67919,589.03754 453.73129,592.94823 453.73129,597.88881 C 453.73129,603.09062 456.56729,606.90428 462.16459,606.90428 C 463.99309,606.90428 465.29909,606.74009 466.60519,606.34082 L 466.41859,602.6615 C 465.63499,602.99359 464.25429,603.45633 462.98559,603.45633 C 459.88829,603.45633 458.39569,601.03826 458.39569,597.88881 C 458.39569,594.67222 460.14959,592.48552 462.91089,592.48552 C 464.25429,592.48552 465.11249,592.75045 465.89619,593.11242 L 466.30659,589.60102"
         style="fill:#231f20;fill-rule:nonzero;stroke:none"
         id="path50" />
      <path
         d="M 475.03849,601.36662 C 475.03849,604.75117 476.97889,606.90428 480.44929,606.90428 C 481.79259,606.90428 482.80009,606.77367 483.73299,606.50872 L 483.58379,602.99359 C 483.13599,603.29213 482.35239,603.45633 481.56869,603.45633 C 479.88949,603.45633 479.47909,602.09801 479.47909,600.63897 L 479.47909,592.68327 L 483.43449,592.68327 L 483.43449,589.4331 L 479.47909,589.4331 L 479.47909,584.59327 L 475.03849,586.01872 L 475.03849,589.4331 L 471.75469,589.4331 L 471.75469,592.68327 L 475.03849,592.68327 L 475.03849,601.36662"
         style="fill:#231f20;fill-rule:nonzero;stroke:none"
         id="path52" />
      <path
         d="M 513.54819,589.6682 C 512.13019,589.36966 510.78689,589.03754 508.69719,589.03754 C 505.22689,589.03754 502.01769,590.66077 502.01769,594.3401 C 502.01769,600.50466 509.70469,598.22093 509.70469,601.56814 C 509.70469,603.22496 507.95089,603.65408 506.79409,603.65408 C 505.30149,603.65408 503.80889,603.22496 502.42819,602.53089 L 502.16699,606.17663 C 503.77159,606.60575 505.52539,606.90428 507.20459,606.90428 C 510.82419,606.90428 514.36919,605.31463 514.36919,601.3368 C 514.36919,595.16851 506.64489,596.8925 506.64489,594.1759 C 506.64489,592.71686 508.06289,592.28401 509.25689,592.28401 C 510.89879,592.28401 511.86899,592.54896 513.24969,593.0154 L 513.54819,589.6682"
         style="fill:#231f20;fill-rule:nonzero;stroke:none"
         id="path54" />
      <path
         d="M 521.27259,606.50872 L 525.71309,606.50872 L 525.71309,589.43683 L 521.27259,589.43683 L 521.27259,606.50872 z M 521.27259,586.31723 L 525.71309,586.31723 L 525.71309,582.07445 L 521.27259,582.07445 L 521.27259,586.31723"
         style="fill:#231f20;fill-rule:evenodd;stroke:none"
         id="path56" />
      <path
         d="M 534.18379,606.50872 L 538.62439,606.50872 L 538.62439,581.64533 L 534.18379,581.64533 L 534.18379,606.50872 z "
         style="fill:#231f20;fill-rule:nonzero;stroke:none"
         id="path58" />
      <path
         d="M 547.09499,606.50872 L 551.53559,606.50872 L 551.53559,589.43683 L 547.09499,589.43683 L 547.09499,606.50872 z M 547.09499,586.31723 L 551.53559,586.31723 L 551.53559,582.07445 L 547.09499,582.07445 L 547.09499,586.31723"
         style="fill:#231f20;fill-rule:evenodd;stroke:none"
         id="path60" />
      <path
         d="M 571.05169,589.60102 C 569.82019,589.23532 568.55149,589.03754 566.76039,589.03754 C 561.42419,589.03754 558.51359,592.94823 558.51359,597.88881 C 558.51359,603.09062 561.31229,606.90428 566.90959,606.90428 C 568.73809,606.90428 570.04409,606.74009 571.35019,606.34082 L 571.16359,602.6615 C 570.37999,602.99359 568.99929,603.45633 567.73059,603.45633 C 564.63339,603.45633 563.14069,601.03826 563.14069,597.88881 C 563.14069,594.67222 564.89459,592.48552 567.65589,592.48552 C 568.99929,592.48552 569.85759,592.75045 570.64119,593.11242 L 571.05169,589.60102"
         style="fill:#231f20;fill-rule:nonzero;stroke:none"
         id="path62" />
      <path
         d="M 576.23849,598.08659 C 576.23849,602.99359 579.52229,606.90428 585.15699,606.90428 C 590.82899,606.90428 594.11269,602.99359 594.11269,598.08659 C 594.11269,592.45194 590.23189,589.03754 585.15699,589.03754 C 580.11939,589.03754 576.23849,592.45194 576.23849,598.08659 z M 580.86569,597.55672 C 580.86569,595.00431 582.28369,592.48552 585.15699,592.48552 C 588.06759,592.48552 589.44829,594.93714 589.44829,597.55672 C 589.44829,600.40763 588.58999,603.45633 585.15699,603.45633 C 581.79859,603.45633 580.86569,600.37405 580.86569,597.55672"
         style="fill:#231f20;fill-rule:evenodd;stroke:none"
         id="path64" />
      <path
         d="M 600.60559,606.50872 L 605.04619,606.50872 L 605.04619,598.15376 C 605.04619,595.96333 605.75519,592.48552 608.96439,592.48552 C 611.83769,592.48552 611.83769,595.30285 611.83769,597.38879 L 611.83769,606.50872 L 616.31549,606.50872 L 616.31549,595.73197 C 616.31549,591.88845 614.52439,589.03754 610.49429,589.03754 C 608.18069,589.03754 606.27759,589.79878 604.89699,591.75414 L 604.82229,591.75414 L 604.82229,589.4331 L 600.60559,589.4331 L 600.60559,606.50872"
         style="fill:#231f20;fill-rule:nonzero;stroke:none"
         id="path66" />
      <path
         d="M 647.92189,589.6682 C 646.54119,589.36966 645.16049,589.03754 643.07079,589.03754 C 639.60049,589.03754 636.39129,590.66077 636.39129,594.3401 C 636.39129,600.50466 644.11569,598.22093 644.11569,601.56814 C 644.11569,603.22496 642.32449,603.65408 641.20509,603.65408 C 639.67509,603.65408 638.21979,603.22496 636.83909,602.53089 L 636.57789,606.17663 C 638.18249,606.60575 639.89899,606.90428 641.57819,606.90428 C 645.19779,606.90428 648.74279,605.31463 648.74279,601.3368 C 648.74279,595.16851 641.01849,596.8925 641.01849,594.1759 C 641.01849,592.71686 642.47379,592.28401 643.66789,592.28401 C 645.27249,592.28401 646.27999,592.54896 647.62339,593.0154 L 647.92189,589.6682"
         style="fill:#231f20;fill-rule:nonzero;stroke:none"
         id="path68" />
      <path
         d="M 654.15359,598.08659 C 654.15359,602.99359 657.43739,606.90428 663.07209,606.90428 C 668.70669,606.90428 671.99049,602.99359 671.99049,598.08659 C 671.99049,592.45194 668.14699,589.03754 663.07209,589.03754 C 658.03439,589.03754 654.15359,592.45194 654.15359,598.08659 z M 658.78079,597.55672 C 658.78079,595.00431 660.19869,592.48552 663.07209,592.48552 C 665.98269,592.48552 667.36329,594.93714 667.36329,597.55672 C 667.36329,600.40763 666.46779,603.45633 663.07209,603.45633 C 659.67629,603.45633 658.78079,600.37405 658.78079,597.55672"
         style="fill:#231f20;fill-rule:evenodd;stroke:none"
         id="path70" />
      <path
         d="M 678.29679,606.50872 L 682.73739,606.50872 L 682.73739,581.64533 L 678.29679,581.64533 L 678.29679,606.50872 z "
         style="fill:#231f20;fill-rule:nonzero;stroke:none"
         id="path72" />
      <path
         d="M 706.13429,589.4331 L 701.69369,589.4331 L 701.69369,597.78806 C 701.69369,599.97475 700.98479,603.45633 697.77559,603.45633 C 694.90229,603.45633 694.90229,600.63897 694.90229,598.5493 L 694.90229,589.4331 L 690.46169,589.4331 L 690.46169,600.20985 C 690.46169,604.05337 692.21559,606.90428 696.24559,606.90428 C 698.55919,606.90428 700.49959,605.84451 701.84299,604.18771 L 701.91759,604.18771 L 701.91759,606.50872 L 706.13429,606.50872 L 706.13429,589.4331"
         style="fill:#231f20;fill-rule:nonzero;stroke:none"
         id="path74" />
      <path
         d="M 715.53779,601.36662 C 715.53779,604.75117 717.44089,606.90428 720.91129,606.90428 C 722.25459,606.90428 723.26219,606.77367 724.19509,606.50872 L 724.08309,602.99359 C 723.59799,603.29213 722.85169,603.45633 722.06809,603.45633 C 720.35159,603.45633 719.97839,602.09801 719.97839,600.63897 L 719.97839,592.68327 L 723.89649,592.68327 L 723.89649,589.4331 L 719.97839,589.4331 L 719.97839,584.59327 L 715.53779,586.01872 L 715.53779,589.4331 L 712.25409,589.4331 L 712.25409,592.68327 L 715.53779,592.68327 L 715.53779,601.36662"
         style="fill:#231f20;fill-rule:nonzero;stroke:none"
         id="path76" />
      <path
         d="M 730.76259,606.50872 L 735.20319,606.50872 L 735.20319,589.43683 L 730.76259,589.43683 L 730.76259,606.50872 z M 730.76259,586.31723 L 735.20319,586.31723 L 735.20319,582.07445 L 730.76259,582.07445 L 730.76259,586.31723"
         style="fill:#231f20;fill-rule:evenodd;stroke:none"
         id="path78" />
      <path
         d="M 742.47969,598.08659 C 742.47969,602.99359 745.76349,606.90428 751.39819,606.90428 C 757.07009,606.90428 760.31659,602.99359 760.31659,598.08659 C 760.31659,592.45194 756.47309,589.03754 751.39819,589.03754 C 746.36059,589.03754 742.47969,592.45194 742.47969,598.08659 z M 747.10689,597.55672 C 747.10689,595.00431 748.52489,592.48552 751.39819,592.48552 C 754.30879,592.48552 755.68949,594.93714 755.68949,597.55672 C 755.68949,600.40763 754.79389,603.45633 751.39819,603.45633 C 748.00249,603.45633 747.10689,600.37405 747.10689,597.55672"
         style="fill:#231f20;fill-rule:evenodd;stroke:none"
         id="path80" />
      <path
         d="M 766.84689,606.50872 L 771.28739,606.50872 L 771.28739,598.15376 C 771.28739,595.96333 771.99639,592.48552 775.20549,592.48552 C 778.04159,592.48552 778.07889,595.30285 778.07889,597.38879 L 778.07889,606.50872 L 782.51939,606.50872 L 782.51939,595.73197 C 782.51939,591.88845 780.76559,589.03754 776.73549,589.03754 C 774.42189,589.03754 772.51879,589.79878 771.13809,591.75414 L 771.06349,591.75414 L 771.06349,589.4331 L 766.84689,589.4331 L 766.84689,606.50872"
         style="fill:#231f20;fill-rule:nonzero;stroke:none"
         id="path82" />
      <path
         d="M 800.58019,589.6682 C 799.19949,589.36966 797.81879,589.03754 795.72919,589.03754 C 792.25879,589.03754 789.04959,590.66077 789.04959,594.3401 C 789.04959,600.50466 796.77399,598.22093 796.77399,601.56814 C 796.77399,603.22496 794.98279,603.65408 793.86339,603.65408 C 792.33339,603.65408 790.87809,603.22496 789.46009,602.53089 L 789.19889,606.17663 C 790.84079,606.60575 792.55729,606.90428 794.23649,606.90428 C 797.85609,606.90428 801.40109,605.31463 801.40109,601.3368 C 801.40109,595.16851 793.67679,596.8925 793.67679,594.1759 C 793.67679,592.71686 795.09479,592.28401 796.28889,592.28401 C 797.93079,592.28401 798.93829,592.54896 800.28169,593.0154 L 800.58019,589.6682"
         style="fill:#231f20;fill-rule:nonzero;stroke:none"
         id="path84" />
    </g>
  </g>
</svg>
