<svg version="1.1" id="Ebene_1" x="0px" y="0px" style="enable-background:new 0 0 629.5 193.6;" xml:space="preserve" sodipodi:docname="vossloh.svg" inkscape:version="1.2 (dc2aedaf03, 2022-05-15)" xmlns:inkscape="http://www.inkscape.org/namespaces/inkscape" xmlns:sodipodi="http://sodipodi.sourceforge.net/DTD/sodipodi-0.dtd" xmlns="http://www.w3.org/2000/svg" xmlns:svg="http://www.w3.org/2000/svg" viewBox="0 0 504.4 118.5"><defs id="defs67"/><sodipodi:namedview id="namedview65" pagecolor="#505050" bordercolor="#eeeeee" borderopacity="1" inkscape:showpageshadow="0" inkscape:pageopacity="0" inkscape:pagecheckerboard="0" inkscape:deskcolor="#505050" showgrid="false" inkscape:zoom="2.1826847" inkscape:cx="314.75" inkscape:cy="96.899017" inkscape:window-width="1920" inkscape:window-height="1001" inkscape:window-x="-9" inkscape:window-y="-9" inkscape:window-maximized="1" inkscape:current-layer="Ebene_1"/>
<style type="text/css" id="style2">
	.st0{fill:#3EAB36;}
	.st1{fill:#B2B2B2;}
</style><style class="darkreader darkreader--sync" media="screen"/>
<polygon points="56.7,34.9 43.3,89.2 42.9,89.2 29,34.9 0,34.9 25.2,114.2 58.1,114.2 83.8,34.9 " id="polygon4"/>
<g id="g10">
	<path d="M231.5,90.1c0-13.9-6.1-18.6-16.1-22.3l-9.1-3.4c-6.8-2.3-9.3-4.1-9.3-7c0-4.3,4.5-5.7,9.8-5.7c7.2,0,14.7,2.5,19.7,4.8   l1.1-19.7c-5.9-2.1-14.1-3.8-22.3-3.8c-24.5,0-33.6,12-33.6,26.1c0,10,3.8,17.7,16.6,22.3l8.4,3c6.8,2.3,8.9,3.9,8.9,6.6   c0,3.8-3.8,5.7-11.4,5.7c-9.7,0-16.6-3.6-20.9-5.7l-0.7,21.3c4.5,1.6,15.7,3.6,24.7,3.6C220.9,116,231.5,106.4,231.5,90.1" id="path6"/>
	<path d="M296.4,90.1c0-13.9-6.1-18.6-16.1-22.3l-9.3-3.4c-6.6-2.3-9.3-4.1-9.3-7c0-4.3,4.5-5.7,10-5.7c7,0,14.7,2.5,19.7,4.8   l0.9-19.7c-5.9-2.1-13.9-3.8-22.3-3.8c-24.3,0-33.4,12-33.4,26.1c0,10,3.8,17.7,16.4,22.3l8.6,3c6.8,2.3,8.9,3.9,8.9,6.6   c0,3.8-3.9,5.7-11.4,5.7c-9.8,0-16.6-3.6-21.1-5.7l-0.5,21.3c4.5,1.6,15.7,3.6,24.5,3.6C285.7,116,296.4,106.4,296.4,90.1" id="path8"/>
</g>
<rect x="302.6" width="27.7" height="114.2" id="rect12"/>
<path d="M504.4,114.2V58.6c0-17.5-10.7-25.6-24.5-25.6c-9.3,0-16.4,3.8-21.1,12h-0.5c0.4-3,0.7-6.6,0.7-9.8V0h-27.7v114.2H459V70.6  c0-8.2,3-15.4,10-15.4c5.2,0,7.5,3.8,7.5,11.3v47.7H504.4z" id="path14"/>
<path class="st0" d="M79.7,74.5c0-18.4,11.4-34.3,27.7-40.8l14.7,27.3L104.9,93h22.2l17.2-31.8L128,30.9  c22.2,2.1,39.5,20.9,39.5,43.6c0,24.3-19.7,44-43.8,44C99.4,118.5,79.7,98.9,79.7,74.5" id="path16"/>
<path d="M337,74.2c0-24.3,19.7-44,43.8-44c24.3,0,44,19.7,44,44c0,22.7-17.5,41.5-39.7,43.6l16.3-30.2l-17.2-31.8h-22l17.2,31.8  l-14.8,27.3C348.4,108.5,337,92.6,337,74.2" id="path18"/>

</svg>