<?xml version="1.0" encoding="utf-8"?>
<!-- Generator: Adobe Illustrator 22.0.1, SVG Export Plug-In . SVG Version: 6.00 Build 0)  -->
<svg version="1.1" id="WD-40_brand" xmlns="http://www.w3.org/2000/svg" xmlns:xlink="http://www.w3.org/1999/xlink" x="0px"
	 y="0px" viewBox="0 0 223.5 123.1" enable-background="new 0 0 223.5 123.1" xml:space="preserve">
<symbol  id="WD-40_brand_1_" viewBox="-111.8 -61.5 223.5 123.1">
	<g>
		<path fill="#B1B3B6" d="M-111.8-37.6c0-6.5,3.9-8.3,22-13.1c24-6.4,54.6-10.8,89.8-10.8c35.2,0,65.8,4.4,89.8,10.8
			c18.1,4.8,22,6.6,22,13.1v75.1c0,6.5-3.9,8.3-22,13.1C65.8,57.1,35.2,61.5,0,61.5c-35.2,0-65.8-4.4-89.8-10.8
			c-18.1-4.8-22-6.6-22-13.1V-37.6z"/>
	</g>
	<g>
		<path fill="#133C8B" d="M-105.3-38.5c0-5.5,5.6-7.2,18.1-9.9c23.1-5,53.2-7.6,87.3-7.6c34.1,0,64.2,2.7,87.3,7.6
			c12.4,2.7,18.1,4.4,18.1,9.9v76.9c0,5.5-5.6,7.2-18.1,9.9c-23.1,5-53.2,7.6-87.3,7.6c-34.1,0-64.2-2.7-87.3-7.6
			c-12.4-2.7-18.1-4.4-18.1-9.9V-38.5z"/>
	</g>
	<g>
		<path fill="#FFF200" d="M-67.6-38.3c0,3.6,2,4.5,5.5,4.5h4.5c5.4,0,6.1-1.2,6.1-4.7h-3.8v0.3c0,0.9-0.7,1.1-1.8,1.1h-4.1
			c-2,0-2.4-0.9-2.4-2.5v-1.3c0-1.8,0.4-2.5,2.2-2.5h4.1c1.7,0,2.2,0.2,2.2,1.7h3.8v-1.2c0-2.1-0.8-3.7-4.6-3.7h-6.1
			c-3.4,0-5.5,0.9-5.5,4.5V-38.3z M-47.4-38.3c0,3.6,2,4.5,5.5,4.5h6.1c3.4,0,5.5-0.9,5.5-4.5V-42c0-3.6-2-4.5-5.5-4.5h-6.1
			c-3.4,0-5.5,0.9-5.5,4.5V-38.3z M-43.5-40.8c0-1.8,0.4-2.5,2.2-2.5h4.9c1.8,0,2.2,0.7,2.2,2.5v1.3c0,1.5-0.4,2.5-2.4,2.5h-4.5
			c-2,0-2.4-0.9-2.4-2.5V-40.8z M-26-33.9h5.8l4.3-8l4.3,8h5.8v-12.4h-3.7v8.9h0l-5-8.9h-2.8l-5,8.9h0v-8.9H-26V-33.9z M-1-33.9H9.4
			c3.6,0,4.5-1.8,4.5-4.2v-1.1c0-1.8-0.8-4-3.5-4H2.8v-3.1H-1V-33.9z M2.8-40.1h5.9c0.9,0,1.2,0.6,1.2,1.3v0.5
			c0,0.8-0.4,1.3-1.6,1.3H2.8V-40.1z M20.7-33.9h4.9l6.8-12.4h-4.2l-1.2,2.2h-7.7l-1.1-2.2H14L20.7-33.9z M20.8-41.5h4.9l-2.5,4.7
			L20.8-41.5z M34.7-33.9h5.9l7.1-9h0v9h3.8v-12.4h-5.9l-7.1,9h0v-9h-3.8V-33.9z M60.5-42l-6.9,8.1h4.6l4.2-5.1l4.2,5.1h4.6L64.3-42
			v-4.3h-3.8V-42z"/>
	</g>
	<g>
		<path fill="#FFFFFF" d="M-15.3,39.1h-35.3l-4.2-24l-3.8,24h-11.5l-3.8-24l-4.2,24h-14l10.7-65.6h12.8l4.1,25.1l4.1-25.1h12.8
			l8.7,53.3v-53.3l23.4,0c4.2,0,11.3,2.7,11.3,12.8v40.1C-4,36.5-11.1,39.1-15.3,39.1z M-18.9-11.6c0-3-2.9-3-4.6-3h-0.7v42h0.7
			c1.7,0,4.6,0,4.6-3V-11.6z M-0.4-1h12.6v13.4H-0.4V-1z M72.4,39.8c-15.4,0-17.6-8.3-17.6-13.2V-2.2h-5.4v41.4H33.2L14.2-2v-12.8
			h20.9v-11.7h14.2v11.7h5.4c0.4-5,3.4-12,17.6-12c15.3,0,17.6,8.3,17.6,13.2v40.2C90,31.6,87.7,39.8,72.4,39.8z M35.1-2.2H27
			l0.6,1.1l6.2,12l1.4,2.7V-2.2z M75.1-15c0-1.2-1-2.4-2.7-2.4c-1.7,0-2.7,1.2-2.7,2.4v43c0,1.2,1,2.4,2.7,2.4
			c1.7,0,2.7-1.2,2.7-2.4V-15z"/>
	</g>
</symbol>
<use xlink:href="#WD-40_brand_1_"  width="223.5" height="123.1" x="-111.8" y="-61.5" transform="matrix(1 0 0 -1 111.7578 61.5317)" overflow="visible"/>
</svg>
